M48
;GenerationSoftware,Autodesk,EAGLE,9.4.2*%
;CreationDate,2019-12-31T11:42:20Z*%
FMAT,2
ICI,OFF
METRIC,TZ,000.000
T8C0.350
T7C0.900
T6C1.016
T5C1.400
T4C3.000
T3C3.251
T2C4.000
T1C4.500
%
G90
M71
T1
X93000Y36865
X93000Y175265
X93000Y151135
X93000Y129265
X93000Y105135
X93000Y83065
X93000Y58935
X93000Y12735
T2
X123000Y7000
X123000Y193000
X7000Y7000
X7000Y155000
X75000Y193000
T3
X14912Y192136
X3482Y192136
T4
X27250Y196500
X61000Y193250
X44200Y193250
X123650Y180400
X123650Y134400
X123650Y88200
X123650Y42000
T5
X48400Y180450
X52600Y185950
X52600Y180450
X56800Y185950
X56800Y180450
X61000Y185950
X61000Y180450
X110500Y90200
X116000Y90200
X116000Y86000
X110500Y132200
X110500Y136400
X116000Y136400
X116000Y132200
X110500Y178200
X110500Y182400
X116000Y178200
X116000Y182400
X48400Y185950
X44200Y185950
X44200Y180450
X110500Y86000
X116000Y39800
X116000Y44000
X110500Y44000
X110500Y39800
T6
X43140Y141950
X40600Y141950
X45630Y99810
X45630Y97270
X45630Y94730
X45630Y92190
X48170Y99810
X48170Y97270
X48170Y94730
X48170Y92190
X43730Y114710
X43730Y112170
X43730Y109630
X43730Y107090
X46270Y114710
X46270Y112170
X46270Y109630
X46270Y107090
X77280Y171709
X82360Y170007
X77280Y168305
X77280Y164902
X82360Y163200
X77280Y161498
X82360Y159796
X77280Y158095
X82360Y156393
X77280Y154691
X108720Y154691
X103640Y156393
X108720Y158095
X103640Y159796
X108720Y161498
X103640Y163200
X108720Y164902
X103640Y166604
X108720Y168305
X103640Y170007
X108720Y171709
X82360Y166604
X77280Y125709
X82360Y124007
X77280Y122305
X82360Y120604
X77280Y118902
X82360Y117200
X77280Y115498
X82360Y113796
X77280Y112095
X82360Y110393
X77280Y108691
X108720Y108691
X103640Y110393
X108720Y112095
X103640Y113796
X108720Y115498
X103640Y117200
X108720Y118902
X103640Y120604
X108720Y122305
X103640Y124007
X108720Y125709
X77280Y79509
X82360Y77807
X77280Y76105
X82360Y74404
X77280Y72702
X82360Y71000
X82360Y67596
X77280Y65895
X82360Y64193
X77280Y62491
X108720Y62491
X103640Y64193
X108720Y65895
X103640Y67596
X108720Y69298
X103640Y71000
X108720Y72702
X103640Y74404
X108720Y76105
X103640Y77807
X108720Y79509
X77280Y69298
X77280Y33309
X82360Y31607
X77280Y29905
X82360Y28204
X77280Y26502
X82360Y24800
X77280Y23098
X82360Y21396
X77280Y19695
X82360Y17993
X77280Y16291
X108720Y16291
X103640Y17993
X108720Y19695
X103640Y21396
X108720Y23098
X103640Y24800
X108720Y26502
X103640Y28204
X108720Y29905
X103640Y31607
X108720Y33309
X24730Y177710
X27270Y177710
X29810Y177710
X45680Y141950
X43170Y64290
X43170Y66830
X43170Y69370
X43170Y71910
X40630Y64290
X40630Y66830
X40630Y69370
X40630Y71910
T7
X8562Y185786
X4752Y183246
X12372Y183246
X11102Y185786
X9832Y183246
X6022Y185786
X7292Y183246
X13642Y185786
T8
X76300Y6500
X69300Y145000
X69300Y99000
X69300Y52800
X69300Y6600
X51600Y149600
X47600Y149900
X38300Y148700
X38300Y155900
X36800Y155400
X46800Y140000
X37100Y108900
X38000Y132600
X76200Y52900
X76200Y98900
X76100Y145000
X105500Y153800
X118800Y184000
X119500Y182100
X119500Y179700
X119500Y177600
X103600Y152800
X109800Y152700
X103100Y154500
X105500Y107800
X118800Y138000
X119500Y136100
X119500Y133700
X119500Y131600
X103600Y106800
X109800Y106700
X103100Y108500
X75100Y137500
X64100Y116100
X78900Y132400
X76300Y104500
X63950Y92100
X56200Y81150
X62800Y100000
X106600Y70900
X45250Y73100
X105500Y61600
X118800Y91800
X119500Y89900
X119500Y87500
X119500Y85400
X103600Y60600
X109800Y60500
X103100Y62300
X75100Y91300
X64100Y69900
X78900Y86200
X76300Y58300
X63100Y51100
X52800Y65950
X63450Y68350
X55450Y62850
X49150Y61150
X105500Y15400
X118800Y45600
X119500Y43700
X119500Y41300
X119500Y39200
X103600Y14400
X109800Y14300
X103100Y16100
X75100Y45100
X64100Y23700
X78900Y40000
X76300Y12200
X61450Y46750
X52950Y49050
X61450Y43950
X52450Y45150
X75100Y183500
X64100Y162100
X78900Y178400
X76300Y150500
X13200Y178400
X2600Y178700
X31200Y118400
X24650Y124550
X30200Y108178
X27400Y93800
X29478Y103350
X29800Y117600
X24900Y120600
X29478Y107324
X28550Y113350
X25400Y115400
X30078Y105400
X3200Y169600
X54450Y82300
X16000Y169430
X20400Y170600
X21500Y176000
X20000Y169700
X37700Y161300
X37700Y159200
X69500Y146800
X65000Y157400
X69600Y157600
X79400Y163500
X80200Y161300
X74200Y162700
X75000Y164200
X106600Y163100
X106700Y166700
X111300Y165100
X111200Y163200
X114800Y167800
X118700Y167900
X69500Y100800
X65000Y111400
X69600Y111600
X79400Y117500
X80200Y115300
X74200Y116700
X75000Y118200
X106600Y117100
X106700Y120700
X111300Y119100
X111200Y117200
X114800Y121800
X118700Y121900
X69500Y54600
X65000Y65200
X69600Y65400
X79400Y71300
X80200Y69100
X74200Y70500
X75000Y72000
X106700Y74500
X111300Y72900
X111200Y71000
X114800Y75600
X118700Y75700
X69500Y8400
X65000Y19000
X69600Y19200
X79400Y25100
X80200Y22900
X74200Y24300
X75000Y25800
X106600Y24700
X106700Y28300
X111300Y26700
X111200Y24800
X114800Y29400
X118700Y29500
X45200Y152800
X36300Y152900
X47600Y155900
X51600Y155400
X43100Y148700
X36800Y165000
X48300Y135100
X37000Y105200
X39400Y101900
X39100Y93900
X40400Y87800
X38000Y101000
X36600Y101200
X37600Y94400
X36200Y94400
X31700Y94300
X29800Y94400
X33100Y94500
X23500Y106510
X31000Y110000
X33300Y115200
X22900Y164300
X28300Y84200
X28300Y89300
X25200Y84100
X33100Y101000
X31470Y100420
X28200Y95500
X29900Y95500
X20900Y184900
X22300Y184300
X42800Y161200
X42800Y159500
X83400Y152700
X84100Y154500
X82000Y154000
X80300Y152800
X103300Y171900
X106300Y172600
X106400Y174600
X103200Y174500
X109100Y150700
X83400Y106700
X84100Y108500
X82000Y108000
X80300Y106800
X103300Y125900
X106300Y126600
X30500Y101800
X106400Y128600
X103200Y128500
X109100Y104700
X83400Y60500
X84100Y62300
X82000Y61800
X80300Y60600
X103300Y79700
X106300Y80400
X106400Y82400
X103200Y82300
X109100Y58500
X83400Y14300
X84100Y16100
X82000Y15600
X80300Y14400
X103300Y33500
X106300Y34200
X106400Y36200
X103200Y36100
X109100Y12300
X47400Y163200
X31500Y178400
X31600Y177100
X31500Y175800
X29800Y175600
X20500Y167600
X19600Y167100
X28800Y94400
X32200Y91000
X30200Y97200
X23700Y105000
X32900Y112700
X31600Y111400
X33700Y113600
X33000Y104500
X19200Y125100
X18700Y116500
X18800Y113100
X19000Y121300
X29000Y97150
X56100Y163300
X56000Y141200
X56100Y117300
X56000Y95200
X56100Y71100
X56000Y49000
X56100Y24900
X56000Y2800
X42500Y139900
X43800Y140000
X57400Y142900
X54900Y142800
M30