G04 EAGLE Gerber RS-274X export*
G75*
%MOMM*%
%FSLAX34Y34*%
%LPD*%
%IN*%
%IPPOS*%
%AMOC8*
5,1,8,0,0,1.08239X$1,22.5*%
G01*
%ADD10C,0.254000*%


D10*
X0Y0D02*
X1300000Y0D01*
X1300000Y2000000D01*
X0Y2000000D01*
X0Y0D01*
X1250000Y69396D02*
X1249927Y68189D01*
X1249781Y66989D01*
X1249563Y65800D01*
X1249274Y64627D01*
X1248915Y63473D01*
X1248486Y62343D01*
X1247990Y61241D01*
X1247428Y60170D01*
X1246803Y59136D01*
X1246116Y58141D01*
X1245371Y57190D01*
X1244569Y56285D01*
X1243715Y55431D01*
X1242810Y54629D01*
X1241859Y53884D01*
X1240864Y53197D01*
X1239830Y52572D01*
X1238759Y52010D01*
X1237657Y51514D01*
X1236527Y51085D01*
X1235373Y50726D01*
X1234200Y50437D01*
X1233011Y50219D01*
X1231811Y50073D01*
X1230604Y50000D01*
X1229396Y50000D01*
X1228189Y50073D01*
X1226989Y50219D01*
X1225800Y50437D01*
X1224627Y50726D01*
X1223473Y51085D01*
X1222343Y51514D01*
X1221241Y52010D01*
X1220170Y52572D01*
X1219136Y53197D01*
X1218141Y53884D01*
X1217190Y54629D01*
X1216285Y55431D01*
X1215431Y56285D01*
X1214629Y57190D01*
X1213884Y58141D01*
X1213197Y59136D01*
X1212572Y60170D01*
X1212010Y61241D01*
X1211514Y62343D01*
X1211085Y63473D01*
X1210726Y64627D01*
X1210437Y65800D01*
X1210219Y66989D01*
X1210073Y68189D01*
X1210000Y69396D01*
X1210000Y70604D01*
X1210073Y71811D01*
X1210219Y73011D01*
X1210437Y74200D01*
X1210726Y75373D01*
X1211085Y76527D01*
X1211514Y77657D01*
X1212010Y78759D01*
X1212572Y79830D01*
X1213197Y80864D01*
X1213884Y81859D01*
X1214629Y82810D01*
X1215431Y83715D01*
X1216285Y84569D01*
X1217190Y85371D01*
X1218141Y86116D01*
X1219136Y86803D01*
X1220170Y87428D01*
X1221241Y87990D01*
X1222343Y88486D01*
X1223473Y88915D01*
X1224627Y89274D01*
X1225800Y89563D01*
X1226989Y89781D01*
X1228189Y89927D01*
X1229396Y90000D01*
X1230604Y90000D01*
X1231811Y89927D01*
X1233011Y89781D01*
X1234200Y89563D01*
X1235373Y89274D01*
X1236527Y88915D01*
X1237657Y88486D01*
X1238759Y87990D01*
X1239830Y87428D01*
X1240864Y86803D01*
X1241859Y86116D01*
X1242810Y85371D01*
X1243715Y84569D01*
X1244569Y83715D01*
X1245371Y82810D01*
X1246116Y81859D01*
X1246803Y80864D01*
X1247428Y79830D01*
X1247990Y78759D01*
X1248486Y77657D01*
X1248915Y76527D01*
X1249274Y75373D01*
X1249563Y74200D01*
X1249781Y73011D01*
X1249927Y71811D01*
X1250000Y70604D01*
X1250000Y69396D01*
X1250000Y1929396D02*
X1249927Y1928189D01*
X1249781Y1926989D01*
X1249563Y1925800D01*
X1249274Y1924627D01*
X1248915Y1923473D01*
X1248486Y1922343D01*
X1247990Y1921241D01*
X1247428Y1920170D01*
X1246803Y1919136D01*
X1246116Y1918141D01*
X1245371Y1917190D01*
X1244569Y1916285D01*
X1243715Y1915431D01*
X1242810Y1914629D01*
X1241859Y1913884D01*
X1240864Y1913197D01*
X1239830Y1912572D01*
X1238759Y1912010D01*
X1237657Y1911514D01*
X1236527Y1911085D01*
X1235373Y1910726D01*
X1234200Y1910437D01*
X1233011Y1910219D01*
X1231811Y1910073D01*
X1230604Y1910000D01*
X1229396Y1910000D01*
X1228189Y1910073D01*
X1226989Y1910219D01*
X1225800Y1910437D01*
X1224627Y1910726D01*
X1223473Y1911085D01*
X1222343Y1911514D01*
X1221241Y1912010D01*
X1220170Y1912572D01*
X1219136Y1913197D01*
X1218141Y1913884D01*
X1217190Y1914629D01*
X1216285Y1915431D01*
X1215431Y1916285D01*
X1214629Y1917190D01*
X1213884Y1918141D01*
X1213197Y1919136D01*
X1212572Y1920170D01*
X1212010Y1921241D01*
X1211514Y1922343D01*
X1211085Y1923473D01*
X1210726Y1924627D01*
X1210437Y1925800D01*
X1210219Y1926989D01*
X1210073Y1928189D01*
X1210000Y1929396D01*
X1210000Y1930604D01*
X1210073Y1931811D01*
X1210219Y1933011D01*
X1210437Y1934200D01*
X1210726Y1935373D01*
X1211085Y1936527D01*
X1211514Y1937657D01*
X1212010Y1938759D01*
X1212572Y1939830D01*
X1213197Y1940864D01*
X1213884Y1941859D01*
X1214629Y1942810D01*
X1215431Y1943715D01*
X1216285Y1944569D01*
X1217190Y1945371D01*
X1218141Y1946116D01*
X1219136Y1946803D01*
X1220170Y1947428D01*
X1221241Y1947990D01*
X1222343Y1948486D01*
X1223473Y1948915D01*
X1224627Y1949274D01*
X1225800Y1949563D01*
X1226989Y1949781D01*
X1228189Y1949927D01*
X1229396Y1950000D01*
X1230604Y1950000D01*
X1231811Y1949927D01*
X1233011Y1949781D01*
X1234200Y1949563D01*
X1235373Y1949274D01*
X1236527Y1948915D01*
X1237657Y1948486D01*
X1238759Y1947990D01*
X1239830Y1947428D01*
X1240864Y1946803D01*
X1241859Y1946116D01*
X1242810Y1945371D01*
X1243715Y1944569D01*
X1244569Y1943715D01*
X1245371Y1942810D01*
X1246116Y1941859D01*
X1246803Y1940864D01*
X1247428Y1939830D01*
X1247990Y1938759D01*
X1248486Y1937657D01*
X1248915Y1936527D01*
X1249274Y1935373D01*
X1249563Y1934200D01*
X1249781Y1933011D01*
X1249927Y1931811D01*
X1250000Y1930604D01*
X1250000Y1929396D01*
X90000Y69396D02*
X89927Y68189D01*
X89781Y66989D01*
X89563Y65800D01*
X89274Y64627D01*
X88915Y63473D01*
X88486Y62343D01*
X87990Y61241D01*
X87428Y60170D01*
X86803Y59136D01*
X86116Y58141D01*
X85371Y57190D01*
X84569Y56285D01*
X83715Y55431D01*
X82810Y54629D01*
X81859Y53884D01*
X80864Y53197D01*
X79830Y52572D01*
X78759Y52010D01*
X77657Y51514D01*
X76527Y51085D01*
X75373Y50726D01*
X74200Y50437D01*
X73011Y50219D01*
X71811Y50073D01*
X70604Y50000D01*
X69396Y50000D01*
X68189Y50073D01*
X66989Y50219D01*
X65800Y50437D01*
X64627Y50726D01*
X63473Y51085D01*
X62343Y51514D01*
X61241Y52010D01*
X60170Y52572D01*
X59136Y53197D01*
X58141Y53884D01*
X57190Y54629D01*
X56285Y55431D01*
X55431Y56285D01*
X54629Y57190D01*
X53884Y58141D01*
X53197Y59136D01*
X52572Y60170D01*
X52010Y61241D01*
X51514Y62343D01*
X51085Y63473D01*
X50726Y64627D01*
X50437Y65800D01*
X50219Y66989D01*
X50073Y68189D01*
X50000Y69396D01*
X50000Y70604D01*
X50073Y71811D01*
X50219Y73011D01*
X50437Y74200D01*
X50726Y75373D01*
X51085Y76527D01*
X51514Y77657D01*
X52010Y78759D01*
X52572Y79830D01*
X53197Y80864D01*
X53884Y81859D01*
X54629Y82810D01*
X55431Y83715D01*
X56285Y84569D01*
X57190Y85371D01*
X58141Y86116D01*
X59136Y86803D01*
X60170Y87428D01*
X61241Y87990D01*
X62343Y88486D01*
X63473Y88915D01*
X64627Y89274D01*
X65800Y89563D01*
X66989Y89781D01*
X68189Y89927D01*
X69396Y90000D01*
X70604Y90000D01*
X71811Y89927D01*
X73011Y89781D01*
X74200Y89563D01*
X75373Y89274D01*
X76527Y88915D01*
X77657Y88486D01*
X78759Y87990D01*
X79830Y87428D01*
X80864Y86803D01*
X81859Y86116D01*
X82810Y85371D01*
X83715Y84569D01*
X84569Y83715D01*
X85371Y82810D01*
X86116Y81859D01*
X86803Y80864D01*
X87428Y79830D01*
X87990Y78759D01*
X88486Y77657D01*
X88915Y76527D01*
X89274Y75373D01*
X89563Y74200D01*
X89781Y73011D01*
X89927Y71811D01*
X90000Y70604D01*
X90000Y69396D01*
X90000Y1549396D02*
X89927Y1548189D01*
X89781Y1546989D01*
X89563Y1545800D01*
X89274Y1544627D01*
X88915Y1543473D01*
X88486Y1542343D01*
X87990Y1541241D01*
X87428Y1540170D01*
X86803Y1539136D01*
X86116Y1538141D01*
X85371Y1537190D01*
X84569Y1536285D01*
X83715Y1535431D01*
X82810Y1534629D01*
X81859Y1533884D01*
X80864Y1533197D01*
X79830Y1532572D01*
X78759Y1532010D01*
X77657Y1531514D01*
X76527Y1531085D01*
X75373Y1530726D01*
X74200Y1530437D01*
X73011Y1530219D01*
X71811Y1530073D01*
X70604Y1530000D01*
X69396Y1530000D01*
X68189Y1530073D01*
X66989Y1530219D01*
X65800Y1530437D01*
X64627Y1530726D01*
X63473Y1531085D01*
X62343Y1531514D01*
X61241Y1532010D01*
X60170Y1532572D01*
X59136Y1533197D01*
X58141Y1533884D01*
X57190Y1534629D01*
X56285Y1535431D01*
X55431Y1536285D01*
X54629Y1537190D01*
X53884Y1538141D01*
X53197Y1539136D01*
X52572Y1540170D01*
X52010Y1541241D01*
X51514Y1542343D01*
X51085Y1543473D01*
X50726Y1544627D01*
X50437Y1545800D01*
X50219Y1546989D01*
X50073Y1548189D01*
X50000Y1549396D01*
X50000Y1550604D01*
X50073Y1551811D01*
X50219Y1553011D01*
X50437Y1554200D01*
X50726Y1555373D01*
X51085Y1556527D01*
X51514Y1557657D01*
X52010Y1558759D01*
X52572Y1559830D01*
X53197Y1560864D01*
X53884Y1561859D01*
X54629Y1562810D01*
X55431Y1563715D01*
X56285Y1564569D01*
X57190Y1565371D01*
X58141Y1566116D01*
X59136Y1566803D01*
X60170Y1567428D01*
X61241Y1567990D01*
X62343Y1568486D01*
X63473Y1568915D01*
X64627Y1569274D01*
X65800Y1569563D01*
X66989Y1569781D01*
X68189Y1569927D01*
X69396Y1570000D01*
X70604Y1570000D01*
X71811Y1569927D01*
X73011Y1569781D01*
X74200Y1569563D01*
X75373Y1569274D01*
X76527Y1568915D01*
X77657Y1568486D01*
X78759Y1567990D01*
X79830Y1567428D01*
X80864Y1566803D01*
X81859Y1566116D01*
X82810Y1565371D01*
X83715Y1564569D01*
X84569Y1563715D01*
X85371Y1562810D01*
X86116Y1561859D01*
X86803Y1560864D01*
X87428Y1559830D01*
X87990Y1558759D01*
X88486Y1557657D01*
X88915Y1556527D01*
X89274Y1555373D01*
X89563Y1554200D01*
X89781Y1553011D01*
X89927Y1551811D01*
X90000Y1550604D01*
X90000Y1549396D01*
X770000Y1929396D02*
X769927Y1928189D01*
X769781Y1926989D01*
X769563Y1925800D01*
X769274Y1924627D01*
X768915Y1923473D01*
X768486Y1922343D01*
X767990Y1921241D01*
X767428Y1920170D01*
X766803Y1919136D01*
X766116Y1918141D01*
X765371Y1917190D01*
X764569Y1916285D01*
X763715Y1915431D01*
X762810Y1914629D01*
X761859Y1913884D01*
X760864Y1913197D01*
X759830Y1912572D01*
X758759Y1912010D01*
X757657Y1911514D01*
X756527Y1911085D01*
X755373Y1910726D01*
X754200Y1910437D01*
X753011Y1910219D01*
X751811Y1910073D01*
X750604Y1910000D01*
X749396Y1910000D01*
X748189Y1910073D01*
X746989Y1910219D01*
X745800Y1910437D01*
X744627Y1910726D01*
X743473Y1911085D01*
X742343Y1911514D01*
X741241Y1912010D01*
X740170Y1912572D01*
X739136Y1913197D01*
X738141Y1913884D01*
X737190Y1914629D01*
X736285Y1915431D01*
X735431Y1916285D01*
X734629Y1917190D01*
X733884Y1918141D01*
X733197Y1919136D01*
X732572Y1920170D01*
X732010Y1921241D01*
X731514Y1922343D01*
X731085Y1923473D01*
X730726Y1924627D01*
X730437Y1925800D01*
X730219Y1926989D01*
X730073Y1928189D01*
X730000Y1929396D01*
X730000Y1930604D01*
X730073Y1931811D01*
X730219Y1933011D01*
X730437Y1934200D01*
X730726Y1935373D01*
X731085Y1936527D01*
X731514Y1937657D01*
X732010Y1938759D01*
X732572Y1939830D01*
X733197Y1940864D01*
X733884Y1941859D01*
X734629Y1942810D01*
X735431Y1943715D01*
X736285Y1944569D01*
X737190Y1945371D01*
X738141Y1946116D01*
X739136Y1946803D01*
X740170Y1947428D01*
X741241Y1947990D01*
X742343Y1948486D01*
X743473Y1948915D01*
X744627Y1949274D01*
X745800Y1949563D01*
X746989Y1949781D01*
X748189Y1949927D01*
X749396Y1950000D01*
X750604Y1950000D01*
X751811Y1949927D01*
X753011Y1949781D01*
X754200Y1949563D01*
X755373Y1949274D01*
X756527Y1948915D01*
X757657Y1948486D01*
X758759Y1947990D01*
X759830Y1947428D01*
X760864Y1946803D01*
X761859Y1946116D01*
X762810Y1945371D01*
X763715Y1944569D01*
X764569Y1943715D01*
X765371Y1942810D01*
X766116Y1941859D01*
X766803Y1940864D01*
X767428Y1939830D01*
X767990Y1938759D01*
X768486Y1937657D01*
X768915Y1936527D01*
X769274Y1935373D01*
X769563Y1934200D01*
X769781Y1933011D01*
X769927Y1931811D01*
X770000Y1930604D01*
X770000Y1929396D01*
X287500Y1964464D02*
X287424Y1963396D01*
X287271Y1962335D01*
X287043Y1961288D01*
X286741Y1960260D01*
X286367Y1959256D01*
X285922Y1958281D01*
X285408Y1957341D01*
X284829Y1956440D01*
X284187Y1955582D01*
X283485Y1954772D01*
X282728Y1954015D01*
X281918Y1953313D01*
X281060Y1952671D01*
X280159Y1952092D01*
X279219Y1951578D01*
X278244Y1951133D01*
X277240Y1950759D01*
X276212Y1950457D01*
X275165Y1950229D01*
X274104Y1950076D01*
X273036Y1950000D01*
X271964Y1950000D01*
X270896Y1950076D01*
X269835Y1950229D01*
X268788Y1950457D01*
X267760Y1950759D01*
X266756Y1951133D01*
X265781Y1951578D01*
X264841Y1952092D01*
X263940Y1952671D01*
X263082Y1953313D01*
X262272Y1954015D01*
X261515Y1954772D01*
X260813Y1955582D01*
X260171Y1956440D01*
X259592Y1957341D01*
X259078Y1958281D01*
X258633Y1959256D01*
X258259Y1960260D01*
X257957Y1961288D01*
X257729Y1962335D01*
X257576Y1963396D01*
X257500Y1964464D01*
X257500Y1965536D01*
X257576Y1966604D01*
X257729Y1967665D01*
X257957Y1968712D01*
X258259Y1969740D01*
X258633Y1970744D01*
X259078Y1971719D01*
X259592Y1972659D01*
X260171Y1973560D01*
X260813Y1974418D01*
X261515Y1975228D01*
X262272Y1975985D01*
X263082Y1976687D01*
X263940Y1977329D01*
X264841Y1977908D01*
X265781Y1978422D01*
X266756Y1978867D01*
X267760Y1979241D01*
X268788Y1979543D01*
X269835Y1979771D01*
X270896Y1979924D01*
X271964Y1980000D01*
X273036Y1980000D01*
X274104Y1979924D01*
X275165Y1979771D01*
X276212Y1979543D01*
X277240Y1979241D01*
X278244Y1978867D01*
X279219Y1978422D01*
X280159Y1977908D01*
X281060Y1977329D01*
X281918Y1976687D01*
X282728Y1975985D01*
X283485Y1975228D01*
X284187Y1974418D01*
X284829Y1973560D01*
X285408Y1972659D01*
X285922Y1971719D01*
X286367Y1970744D01*
X286741Y1969740D01*
X287043Y1968712D01*
X287271Y1967665D01*
X287424Y1966604D01*
X287500Y1965536D01*
X287500Y1964464D01*
X132865Y1921891D02*
X132935Y1922953D01*
X133074Y1924008D01*
X133281Y1925052D01*
X133557Y1926080D01*
X133899Y1927088D01*
X134306Y1928072D01*
X134777Y1929026D01*
X135309Y1929948D01*
X135900Y1930833D01*
X136548Y1931677D01*
X137250Y1932477D01*
X138003Y1933230D01*
X138803Y1933932D01*
X139647Y1934580D01*
X140532Y1935171D01*
X141454Y1935703D01*
X142409Y1936174D01*
X143392Y1936581D01*
X144400Y1936923D01*
X145428Y1937199D01*
X146472Y1937406D01*
X147527Y1937545D01*
X148589Y1937615D01*
X149653Y1937615D01*
X150715Y1937545D01*
X151771Y1937406D01*
X152815Y1937199D01*
X153843Y1936923D01*
X154850Y1936581D01*
X155834Y1936174D01*
X156788Y1935703D01*
X157710Y1935171D01*
X158595Y1934580D01*
X159439Y1933932D01*
X160240Y1933230D01*
X160992Y1932477D01*
X161694Y1931677D01*
X162342Y1930833D01*
X162933Y1929948D01*
X163465Y1929026D01*
X163936Y1928072D01*
X164343Y1927088D01*
X164686Y1926080D01*
X164961Y1925052D01*
X165169Y1924008D01*
X165308Y1922953D01*
X165377Y1921891D01*
X165377Y1920827D01*
X165308Y1919765D01*
X165169Y1918710D01*
X164961Y1917666D01*
X164686Y1916638D01*
X164343Y1915630D01*
X163936Y1914646D01*
X163465Y1913692D01*
X162933Y1912770D01*
X162342Y1911885D01*
X161694Y1911041D01*
X160992Y1910241D01*
X160240Y1909488D01*
X159439Y1908786D01*
X158595Y1908138D01*
X157710Y1907547D01*
X156788Y1907015D01*
X155834Y1906544D01*
X154850Y1906137D01*
X153843Y1905795D01*
X152815Y1905519D01*
X151771Y1905312D01*
X150715Y1905173D01*
X149653Y1905103D01*
X148589Y1905103D01*
X147527Y1905173D01*
X146472Y1905312D01*
X145428Y1905519D01*
X144400Y1905795D01*
X143392Y1906137D01*
X142409Y1906544D01*
X141454Y1907015D01*
X140532Y1907547D01*
X139647Y1908138D01*
X138803Y1908786D01*
X138003Y1909488D01*
X137250Y1910241D01*
X136548Y1911041D01*
X135900Y1911885D01*
X135309Y1912770D01*
X134777Y1913692D01*
X134306Y1914646D01*
X133899Y1915630D01*
X133557Y1916638D01*
X133281Y1917666D01*
X133074Y1918710D01*
X132935Y1919765D01*
X132865Y1920827D01*
X132865Y1921891D01*
X18565Y1921891D02*
X18635Y1922953D01*
X18774Y1924008D01*
X18981Y1925052D01*
X19257Y1926080D01*
X19599Y1927088D01*
X20006Y1928072D01*
X20477Y1929026D01*
X21009Y1929948D01*
X21600Y1930833D01*
X22248Y1931677D01*
X22950Y1932477D01*
X23703Y1933230D01*
X24503Y1933932D01*
X25347Y1934580D01*
X26232Y1935171D01*
X27154Y1935703D01*
X28109Y1936174D01*
X29092Y1936581D01*
X30100Y1936923D01*
X31128Y1937199D01*
X32172Y1937406D01*
X33227Y1937545D01*
X34289Y1937615D01*
X35353Y1937615D01*
X36415Y1937545D01*
X37471Y1937406D01*
X38515Y1937199D01*
X39543Y1936923D01*
X40550Y1936581D01*
X41534Y1936174D01*
X42488Y1935703D01*
X43410Y1935171D01*
X44295Y1934580D01*
X45139Y1933932D01*
X45940Y1933230D01*
X46692Y1932477D01*
X47394Y1931677D01*
X48042Y1930833D01*
X48633Y1929948D01*
X49165Y1929026D01*
X49636Y1928072D01*
X50043Y1927088D01*
X50386Y1926080D01*
X50661Y1925052D01*
X50869Y1924008D01*
X51008Y1922953D01*
X51077Y1921891D01*
X51077Y1920827D01*
X51008Y1919765D01*
X50869Y1918710D01*
X50661Y1917666D01*
X50386Y1916638D01*
X50043Y1915630D01*
X49636Y1914646D01*
X49165Y1913692D01*
X48633Y1912770D01*
X48042Y1911885D01*
X47394Y1911041D01*
X46692Y1910241D01*
X45940Y1909488D01*
X45139Y1908786D01*
X44295Y1908138D01*
X43410Y1907547D01*
X42488Y1907015D01*
X41534Y1906544D01*
X40550Y1906137D01*
X39543Y1905795D01*
X38515Y1905519D01*
X37471Y1905312D01*
X36415Y1905173D01*
X35353Y1905103D01*
X34289Y1905103D01*
X33227Y1905173D01*
X32172Y1905312D01*
X31128Y1905519D01*
X30100Y1905795D01*
X29092Y1906137D01*
X28109Y1906544D01*
X27154Y1907015D01*
X26232Y1907547D01*
X25347Y1908138D01*
X24503Y1908786D01*
X23703Y1909488D01*
X22950Y1910241D01*
X22248Y1911041D01*
X21600Y1911885D01*
X21009Y1912770D01*
X20477Y1913692D01*
X20006Y1914646D01*
X19599Y1915630D01*
X19257Y1916638D01*
X18981Y1917666D01*
X18774Y1918710D01*
X18635Y1919765D01*
X18565Y1920827D01*
X18565Y1921891D01*
X595000Y1933036D02*
X595076Y1934104D01*
X595229Y1935165D01*
X595457Y1936212D01*
X595759Y1937240D01*
X596133Y1938244D01*
X596578Y1939219D01*
X597092Y1940159D01*
X597671Y1941060D01*
X598313Y1941918D01*
X599015Y1942728D01*
X599772Y1943485D01*
X600582Y1944187D01*
X601440Y1944829D01*
X602341Y1945408D01*
X603281Y1945922D01*
X604256Y1946367D01*
X605260Y1946741D01*
X606288Y1947043D01*
X607335Y1947271D01*
X608396Y1947424D01*
X609464Y1947500D01*
X610536Y1947500D01*
X611604Y1947424D01*
X612665Y1947271D01*
X613712Y1947043D01*
X614740Y1946741D01*
X615744Y1946367D01*
X616719Y1945922D01*
X617659Y1945408D01*
X618560Y1944829D01*
X619418Y1944187D01*
X620228Y1943485D01*
X620985Y1942728D01*
X621687Y1941918D01*
X622329Y1941060D01*
X622908Y1940159D01*
X623422Y1939219D01*
X623867Y1938244D01*
X624241Y1937240D01*
X624543Y1936212D01*
X624771Y1935165D01*
X624924Y1934104D01*
X625000Y1933036D01*
X625000Y1931964D01*
X624924Y1930896D01*
X624771Y1929835D01*
X624543Y1928788D01*
X624241Y1927760D01*
X623867Y1926756D01*
X623422Y1925781D01*
X622908Y1924841D01*
X622329Y1923940D01*
X621687Y1923082D01*
X620985Y1922272D01*
X620228Y1921515D01*
X619418Y1920813D01*
X618560Y1920171D01*
X617659Y1919592D01*
X616719Y1919078D01*
X615744Y1918633D01*
X614740Y1918259D01*
X613712Y1917957D01*
X612665Y1917729D01*
X611604Y1917576D01*
X610536Y1917500D01*
X609464Y1917500D01*
X608396Y1917576D01*
X607335Y1917729D01*
X606288Y1917957D01*
X605260Y1918259D01*
X604256Y1918633D01*
X603281Y1919078D01*
X602341Y1919592D01*
X601440Y1920171D01*
X600582Y1920813D01*
X599772Y1921515D01*
X599015Y1922272D01*
X598313Y1923082D01*
X597671Y1923940D01*
X597092Y1924841D01*
X596578Y1925781D01*
X596133Y1926756D01*
X595759Y1927760D01*
X595457Y1928788D01*
X595229Y1929835D01*
X595076Y1930896D01*
X595000Y1931964D01*
X595000Y1933036D01*
X427000Y1933036D02*
X427076Y1934104D01*
X427229Y1935165D01*
X427457Y1936212D01*
X427759Y1937240D01*
X428133Y1938244D01*
X428578Y1939219D01*
X429092Y1940159D01*
X429671Y1941060D01*
X430313Y1941918D01*
X431015Y1942728D01*
X431772Y1943485D01*
X432582Y1944187D01*
X433440Y1944829D01*
X434341Y1945408D01*
X435281Y1945922D01*
X436256Y1946367D01*
X437260Y1946741D01*
X438288Y1947043D01*
X439335Y1947271D01*
X440396Y1947424D01*
X441464Y1947500D01*
X442536Y1947500D01*
X443604Y1947424D01*
X444665Y1947271D01*
X445712Y1947043D01*
X446740Y1946741D01*
X447744Y1946367D01*
X448719Y1945922D01*
X449659Y1945408D01*
X450560Y1944829D01*
X451418Y1944187D01*
X452228Y1943485D01*
X452985Y1942728D01*
X453687Y1941918D01*
X454329Y1941060D01*
X454908Y1940159D01*
X455422Y1939219D01*
X455867Y1938244D01*
X456241Y1937240D01*
X456543Y1936212D01*
X456771Y1935165D01*
X456924Y1934104D01*
X457000Y1933036D01*
X457000Y1931964D01*
X456924Y1930896D01*
X456771Y1929835D01*
X456543Y1928788D01*
X456241Y1927760D01*
X455867Y1926756D01*
X455422Y1925781D01*
X454908Y1924841D01*
X454329Y1923940D01*
X453687Y1923082D01*
X452985Y1922272D01*
X452228Y1921515D01*
X451418Y1920813D01*
X450560Y1920171D01*
X449659Y1919592D01*
X448719Y1919078D01*
X447744Y1918633D01*
X446740Y1918259D01*
X445712Y1917957D01*
X444665Y1917729D01*
X443604Y1917576D01*
X442536Y1917500D01*
X441464Y1917500D01*
X440396Y1917576D01*
X439335Y1917729D01*
X438288Y1917957D01*
X437260Y1918259D01*
X436256Y1918633D01*
X435281Y1919078D01*
X434341Y1919592D01*
X433440Y1920171D01*
X432582Y1920813D01*
X431772Y1921515D01*
X431015Y1922272D01*
X430313Y1923082D01*
X429671Y1923940D01*
X429092Y1924841D01*
X428578Y1925781D01*
X428133Y1926756D01*
X427759Y1927760D01*
X427457Y1928788D01*
X427229Y1929835D01*
X427076Y1930896D01*
X427000Y1931964D01*
X427000Y1933036D01*
X1237036Y1819000D02*
X1238104Y1818924D01*
X1239165Y1818771D01*
X1240212Y1818543D01*
X1241240Y1818241D01*
X1242244Y1817867D01*
X1243219Y1817422D01*
X1244159Y1816908D01*
X1245060Y1816329D01*
X1245918Y1815687D01*
X1246728Y1814985D01*
X1247485Y1814228D01*
X1248187Y1813418D01*
X1248829Y1812560D01*
X1249408Y1811659D01*
X1249922Y1810719D01*
X1250367Y1809744D01*
X1250741Y1808740D01*
X1251043Y1807712D01*
X1251271Y1806665D01*
X1251424Y1805604D01*
X1251500Y1804536D01*
X1251500Y1803464D01*
X1251424Y1802396D01*
X1251271Y1801335D01*
X1251043Y1800288D01*
X1250741Y1799260D01*
X1250367Y1798256D01*
X1249922Y1797281D01*
X1249408Y1796341D01*
X1248829Y1795440D01*
X1248187Y1794582D01*
X1247485Y1793772D01*
X1246728Y1793015D01*
X1245918Y1792313D01*
X1245060Y1791671D01*
X1244159Y1791092D01*
X1243219Y1790578D01*
X1242244Y1790133D01*
X1241240Y1789759D01*
X1240212Y1789457D01*
X1239165Y1789229D01*
X1238104Y1789076D01*
X1237036Y1789000D01*
X1235964Y1789000D01*
X1234896Y1789076D01*
X1233835Y1789229D01*
X1232788Y1789457D01*
X1231760Y1789759D01*
X1230756Y1790133D01*
X1229781Y1790578D01*
X1228841Y1791092D01*
X1227940Y1791671D01*
X1227082Y1792313D01*
X1226272Y1793015D01*
X1225515Y1793772D01*
X1224813Y1794582D01*
X1224171Y1795440D01*
X1223592Y1796341D01*
X1223078Y1797281D01*
X1222633Y1798256D01*
X1222259Y1799260D01*
X1221957Y1800288D01*
X1221729Y1801335D01*
X1221576Y1802396D01*
X1221500Y1803464D01*
X1221500Y1804536D01*
X1221576Y1805604D01*
X1221729Y1806665D01*
X1221957Y1807712D01*
X1222259Y1808740D01*
X1222633Y1809744D01*
X1223078Y1810719D01*
X1223592Y1811659D01*
X1224171Y1812560D01*
X1224813Y1813418D01*
X1225515Y1814228D01*
X1226272Y1814985D01*
X1227082Y1815687D01*
X1227940Y1816329D01*
X1228841Y1816908D01*
X1229781Y1817422D01*
X1230756Y1817867D01*
X1231760Y1818241D01*
X1232788Y1818543D01*
X1233835Y1818771D01*
X1234896Y1818924D01*
X1235964Y1819000D01*
X1237036Y1819000D01*
X952500Y1752019D02*
X952429Y1750758D01*
X952288Y1749503D01*
X952076Y1748259D01*
X951795Y1747028D01*
X951446Y1745815D01*
X951029Y1744623D01*
X950546Y1743456D01*
X949998Y1742319D01*
X949387Y1741214D01*
X948715Y1740145D01*
X947985Y1739115D01*
X947198Y1738128D01*
X946356Y1737187D01*
X945464Y1736294D01*
X944522Y1735452D01*
X943535Y1734665D01*
X942505Y1733935D01*
X941436Y1733263D01*
X940331Y1732652D01*
X939194Y1732104D01*
X938027Y1731621D01*
X936835Y1731204D01*
X935622Y1730855D01*
X934391Y1730574D01*
X933147Y1730362D01*
X931892Y1730221D01*
X930631Y1730150D01*
X929369Y1730150D01*
X928108Y1730221D01*
X926853Y1730362D01*
X925609Y1730574D01*
X924378Y1730855D01*
X923165Y1731204D01*
X921973Y1731621D01*
X920806Y1732104D01*
X919669Y1732652D01*
X918564Y1733263D01*
X917495Y1733935D01*
X916465Y1734665D01*
X915478Y1735452D01*
X914537Y1736294D01*
X913644Y1737187D01*
X912802Y1738128D01*
X912015Y1739115D01*
X911285Y1740145D01*
X910613Y1741214D01*
X910002Y1742319D01*
X909454Y1743456D01*
X908971Y1744623D01*
X908554Y1745815D01*
X908205Y1747028D01*
X907924Y1748259D01*
X907712Y1749503D01*
X907571Y1750758D01*
X907500Y1752019D01*
X907500Y1753281D01*
X907571Y1754542D01*
X907712Y1755797D01*
X907924Y1757041D01*
X908205Y1758272D01*
X908554Y1759485D01*
X908971Y1760677D01*
X909454Y1761844D01*
X910002Y1762981D01*
X910613Y1764086D01*
X911285Y1765155D01*
X912015Y1766185D01*
X912802Y1767172D01*
X913644Y1768114D01*
X914537Y1769006D01*
X915478Y1769848D01*
X916465Y1770635D01*
X917495Y1771365D01*
X918564Y1772037D01*
X919669Y1772648D01*
X920806Y1773196D01*
X921973Y1773679D01*
X923165Y1774096D01*
X924378Y1774445D01*
X925609Y1774726D01*
X926853Y1774938D01*
X928108Y1775079D01*
X929369Y1775150D01*
X930631Y1775150D01*
X931892Y1775079D01*
X933147Y1774938D01*
X934391Y1774726D01*
X935622Y1774445D01*
X936835Y1774096D01*
X938027Y1773679D01*
X939194Y1773196D01*
X940331Y1772648D01*
X941436Y1772037D01*
X942505Y1771365D01*
X943535Y1770635D01*
X944522Y1769848D01*
X945464Y1769006D01*
X946356Y1768114D01*
X947198Y1767172D01*
X947985Y1766185D01*
X948715Y1765155D01*
X949387Y1764086D01*
X949998Y1762981D01*
X950546Y1761844D01*
X951029Y1760677D01*
X951446Y1759485D01*
X951795Y1758272D01*
X952076Y1757041D01*
X952288Y1755797D01*
X952429Y1754542D01*
X952500Y1753281D01*
X952500Y1752019D01*
X952500Y1510719D02*
X952429Y1509458D01*
X952288Y1508203D01*
X952076Y1506959D01*
X951795Y1505728D01*
X951446Y1504515D01*
X951029Y1503323D01*
X950546Y1502156D01*
X949998Y1501019D01*
X949387Y1499914D01*
X948715Y1498845D01*
X947985Y1497815D01*
X947198Y1496828D01*
X946356Y1495887D01*
X945464Y1494994D01*
X944522Y1494152D01*
X943535Y1493365D01*
X942505Y1492635D01*
X941436Y1491963D01*
X940331Y1491352D01*
X939194Y1490804D01*
X938027Y1490321D01*
X936835Y1489904D01*
X935622Y1489555D01*
X934391Y1489274D01*
X933147Y1489062D01*
X931892Y1488921D01*
X930631Y1488850D01*
X929369Y1488850D01*
X928108Y1488921D01*
X926853Y1489062D01*
X925609Y1489274D01*
X924378Y1489555D01*
X923165Y1489904D01*
X921973Y1490321D01*
X920806Y1490804D01*
X919669Y1491352D01*
X918564Y1491963D01*
X917495Y1492635D01*
X916465Y1493365D01*
X915478Y1494152D01*
X914537Y1494994D01*
X913644Y1495887D01*
X912802Y1496828D01*
X912015Y1497815D01*
X911285Y1498845D01*
X910613Y1499914D01*
X910002Y1501019D01*
X909454Y1502156D01*
X908971Y1503323D01*
X908554Y1504515D01*
X908205Y1505728D01*
X907924Y1506959D01*
X907712Y1508203D01*
X907571Y1509458D01*
X907500Y1510719D01*
X907500Y1511981D01*
X907571Y1513242D01*
X907712Y1514497D01*
X907924Y1515741D01*
X908205Y1516972D01*
X908554Y1518185D01*
X908971Y1519377D01*
X909454Y1520544D01*
X910002Y1521681D01*
X910613Y1522786D01*
X911285Y1523855D01*
X912015Y1524885D01*
X912802Y1525872D01*
X913644Y1526814D01*
X914537Y1527706D01*
X915478Y1528548D01*
X916465Y1529335D01*
X917495Y1530065D01*
X918564Y1530737D01*
X919669Y1531348D01*
X920806Y1531896D01*
X921973Y1532379D01*
X923165Y1532796D01*
X924378Y1533145D01*
X925609Y1533426D01*
X926853Y1533638D01*
X928108Y1533779D01*
X929369Y1533850D01*
X930631Y1533850D01*
X931892Y1533779D01*
X933147Y1533638D01*
X934391Y1533426D01*
X935622Y1533145D01*
X936835Y1532796D01*
X938027Y1532379D01*
X939194Y1531896D01*
X940331Y1531348D01*
X941436Y1530737D01*
X942505Y1530065D01*
X943535Y1529335D01*
X944522Y1528548D01*
X945464Y1527706D01*
X946356Y1526814D01*
X947198Y1525872D01*
X947985Y1524885D01*
X948715Y1523855D01*
X949387Y1522786D01*
X949998Y1521681D01*
X950546Y1520544D01*
X951029Y1519377D01*
X951446Y1518185D01*
X951795Y1516972D01*
X952076Y1515741D01*
X952288Y1514497D01*
X952429Y1513242D01*
X952500Y1511981D01*
X952500Y1510719D01*
X1237036Y1359000D02*
X1238104Y1358924D01*
X1239165Y1358771D01*
X1240212Y1358543D01*
X1241240Y1358241D01*
X1242244Y1357867D01*
X1243219Y1357422D01*
X1244159Y1356908D01*
X1245060Y1356329D01*
X1245918Y1355687D01*
X1246728Y1354985D01*
X1247485Y1354228D01*
X1248187Y1353418D01*
X1248829Y1352560D01*
X1249408Y1351659D01*
X1249922Y1350719D01*
X1250367Y1349744D01*
X1250741Y1348740D01*
X1251043Y1347712D01*
X1251271Y1346665D01*
X1251424Y1345604D01*
X1251500Y1344536D01*
X1251500Y1343464D01*
X1251424Y1342396D01*
X1251271Y1341335D01*
X1251043Y1340288D01*
X1250741Y1339260D01*
X1250367Y1338256D01*
X1249922Y1337281D01*
X1249408Y1336341D01*
X1248829Y1335440D01*
X1248187Y1334582D01*
X1247485Y1333772D01*
X1246728Y1333015D01*
X1245918Y1332313D01*
X1245060Y1331671D01*
X1244159Y1331092D01*
X1243219Y1330578D01*
X1242244Y1330133D01*
X1241240Y1329759D01*
X1240212Y1329457D01*
X1239165Y1329229D01*
X1238104Y1329076D01*
X1237036Y1329000D01*
X1235964Y1329000D01*
X1234896Y1329076D01*
X1233835Y1329229D01*
X1232788Y1329457D01*
X1231760Y1329759D01*
X1230756Y1330133D01*
X1229781Y1330578D01*
X1228841Y1331092D01*
X1227940Y1331671D01*
X1227082Y1332313D01*
X1226272Y1333015D01*
X1225515Y1333772D01*
X1224813Y1334582D01*
X1224171Y1335440D01*
X1223592Y1336341D01*
X1223078Y1337281D01*
X1222633Y1338256D01*
X1222259Y1339260D01*
X1221957Y1340288D01*
X1221729Y1341335D01*
X1221576Y1342396D01*
X1221500Y1343464D01*
X1221500Y1344536D01*
X1221576Y1345604D01*
X1221729Y1346665D01*
X1221957Y1347712D01*
X1222259Y1348740D01*
X1222633Y1349744D01*
X1223078Y1350719D01*
X1223592Y1351659D01*
X1224171Y1352560D01*
X1224813Y1353418D01*
X1225515Y1354228D01*
X1226272Y1354985D01*
X1227082Y1355687D01*
X1227940Y1356329D01*
X1228841Y1356908D01*
X1229781Y1357422D01*
X1230756Y1357867D01*
X1231760Y1358241D01*
X1232788Y1358543D01*
X1233835Y1358771D01*
X1234896Y1358924D01*
X1235964Y1359000D01*
X1237036Y1359000D01*
X952500Y1292019D02*
X952429Y1290758D01*
X952288Y1289503D01*
X952076Y1288259D01*
X951795Y1287028D01*
X951446Y1285815D01*
X951029Y1284623D01*
X950546Y1283456D01*
X949998Y1282319D01*
X949387Y1281214D01*
X948715Y1280145D01*
X947985Y1279115D01*
X947198Y1278128D01*
X946356Y1277187D01*
X945464Y1276294D01*
X944522Y1275452D01*
X943535Y1274665D01*
X942505Y1273935D01*
X941436Y1273263D01*
X940331Y1272652D01*
X939194Y1272104D01*
X938027Y1271621D01*
X936835Y1271204D01*
X935622Y1270855D01*
X934391Y1270574D01*
X933147Y1270362D01*
X931892Y1270221D01*
X930631Y1270150D01*
X929369Y1270150D01*
X928108Y1270221D01*
X926853Y1270362D01*
X925609Y1270574D01*
X924378Y1270855D01*
X923165Y1271204D01*
X921973Y1271621D01*
X920806Y1272104D01*
X919669Y1272652D01*
X918564Y1273263D01*
X917495Y1273935D01*
X916465Y1274665D01*
X915478Y1275452D01*
X914537Y1276294D01*
X913644Y1277187D01*
X912802Y1278128D01*
X912015Y1279115D01*
X911285Y1280145D01*
X910613Y1281214D01*
X910002Y1282319D01*
X909454Y1283456D01*
X908971Y1284623D01*
X908554Y1285815D01*
X908205Y1287028D01*
X907924Y1288259D01*
X907712Y1289503D01*
X907571Y1290758D01*
X907500Y1292019D01*
X907500Y1293281D01*
X907571Y1294542D01*
X907712Y1295797D01*
X907924Y1297041D01*
X908205Y1298272D01*
X908554Y1299485D01*
X908971Y1300677D01*
X909454Y1301844D01*
X910002Y1302981D01*
X910613Y1304086D01*
X911285Y1305155D01*
X912015Y1306185D01*
X912802Y1307172D01*
X913644Y1308114D01*
X914537Y1309006D01*
X915478Y1309848D01*
X916465Y1310635D01*
X917495Y1311365D01*
X918564Y1312037D01*
X919669Y1312648D01*
X920806Y1313196D01*
X921973Y1313679D01*
X923165Y1314096D01*
X924378Y1314445D01*
X925609Y1314726D01*
X926853Y1314938D01*
X928108Y1315079D01*
X929369Y1315150D01*
X930631Y1315150D01*
X931892Y1315079D01*
X933147Y1314938D01*
X934391Y1314726D01*
X935622Y1314445D01*
X936835Y1314096D01*
X938027Y1313679D01*
X939194Y1313196D01*
X940331Y1312648D01*
X941436Y1312037D01*
X942505Y1311365D01*
X943535Y1310635D01*
X944522Y1309848D01*
X945464Y1309006D01*
X946356Y1308114D01*
X947198Y1307172D01*
X947985Y1306185D01*
X948715Y1305155D01*
X949387Y1304086D01*
X949998Y1302981D01*
X950546Y1301844D01*
X951029Y1300677D01*
X951446Y1299485D01*
X951795Y1298272D01*
X952076Y1297041D01*
X952288Y1295797D01*
X952429Y1294542D01*
X952500Y1293281D01*
X952500Y1292019D01*
X952500Y1050719D02*
X952429Y1049458D01*
X952288Y1048203D01*
X952076Y1046959D01*
X951795Y1045728D01*
X951446Y1044515D01*
X951029Y1043323D01*
X950546Y1042156D01*
X949998Y1041019D01*
X949387Y1039914D01*
X948715Y1038845D01*
X947985Y1037815D01*
X947198Y1036828D01*
X946356Y1035887D01*
X945464Y1034994D01*
X944522Y1034152D01*
X943535Y1033365D01*
X942505Y1032635D01*
X941436Y1031963D01*
X940331Y1031352D01*
X939194Y1030804D01*
X938027Y1030321D01*
X936835Y1029904D01*
X935622Y1029555D01*
X934391Y1029274D01*
X933147Y1029062D01*
X931892Y1028921D01*
X930631Y1028850D01*
X929369Y1028850D01*
X928108Y1028921D01*
X926853Y1029062D01*
X925609Y1029274D01*
X924378Y1029555D01*
X923165Y1029904D01*
X921973Y1030321D01*
X920806Y1030804D01*
X919669Y1031352D01*
X918564Y1031963D01*
X917495Y1032635D01*
X916465Y1033365D01*
X915478Y1034152D01*
X914537Y1034994D01*
X913644Y1035887D01*
X912802Y1036828D01*
X912015Y1037815D01*
X911285Y1038845D01*
X910613Y1039914D01*
X910002Y1041019D01*
X909454Y1042156D01*
X908971Y1043323D01*
X908554Y1044515D01*
X908205Y1045728D01*
X907924Y1046959D01*
X907712Y1048203D01*
X907571Y1049458D01*
X907500Y1050719D01*
X907500Y1051981D01*
X907571Y1053242D01*
X907712Y1054497D01*
X907924Y1055741D01*
X908205Y1056972D01*
X908554Y1058185D01*
X908971Y1059377D01*
X909454Y1060544D01*
X910002Y1061681D01*
X910613Y1062786D01*
X911285Y1063855D01*
X912015Y1064885D01*
X912802Y1065872D01*
X913644Y1066814D01*
X914537Y1067706D01*
X915478Y1068548D01*
X916465Y1069335D01*
X917495Y1070065D01*
X918564Y1070737D01*
X919669Y1071348D01*
X920806Y1071896D01*
X921973Y1072379D01*
X923165Y1072796D01*
X924378Y1073145D01*
X925609Y1073426D01*
X926853Y1073638D01*
X928108Y1073779D01*
X929369Y1073850D01*
X930631Y1073850D01*
X931892Y1073779D01*
X933147Y1073638D01*
X934391Y1073426D01*
X935622Y1073145D01*
X936835Y1072796D01*
X938027Y1072379D01*
X939194Y1071896D01*
X940331Y1071348D01*
X941436Y1070737D01*
X942505Y1070065D01*
X943535Y1069335D01*
X944522Y1068548D01*
X945464Y1067706D01*
X946356Y1066814D01*
X947198Y1065872D01*
X947985Y1064885D01*
X948715Y1063855D01*
X949387Y1062786D01*
X949998Y1061681D01*
X950546Y1060544D01*
X951029Y1059377D01*
X951446Y1058185D01*
X951795Y1056972D01*
X952076Y1055741D01*
X952288Y1054497D01*
X952429Y1053242D01*
X952500Y1051981D01*
X952500Y1050719D01*
X1237036Y897000D02*
X1238104Y896924D01*
X1239165Y896771D01*
X1240212Y896543D01*
X1241240Y896241D01*
X1242244Y895867D01*
X1243219Y895422D01*
X1244159Y894908D01*
X1245060Y894329D01*
X1245918Y893687D01*
X1246728Y892985D01*
X1247485Y892228D01*
X1248187Y891418D01*
X1248829Y890560D01*
X1249408Y889659D01*
X1249922Y888719D01*
X1250367Y887744D01*
X1250741Y886740D01*
X1251043Y885712D01*
X1251271Y884665D01*
X1251424Y883604D01*
X1251500Y882536D01*
X1251500Y881464D01*
X1251424Y880396D01*
X1251271Y879335D01*
X1251043Y878288D01*
X1250741Y877260D01*
X1250367Y876256D01*
X1249922Y875281D01*
X1249408Y874341D01*
X1248829Y873440D01*
X1248187Y872582D01*
X1247485Y871772D01*
X1246728Y871015D01*
X1245918Y870313D01*
X1245060Y869671D01*
X1244159Y869092D01*
X1243219Y868578D01*
X1242244Y868133D01*
X1241240Y867759D01*
X1240212Y867457D01*
X1239165Y867229D01*
X1238104Y867076D01*
X1237036Y867000D01*
X1235964Y867000D01*
X1234896Y867076D01*
X1233835Y867229D01*
X1232788Y867457D01*
X1231760Y867759D01*
X1230756Y868133D01*
X1229781Y868578D01*
X1228841Y869092D01*
X1227940Y869671D01*
X1227082Y870313D01*
X1226272Y871015D01*
X1225515Y871772D01*
X1224813Y872582D01*
X1224171Y873440D01*
X1223592Y874341D01*
X1223078Y875281D01*
X1222633Y876256D01*
X1222259Y877260D01*
X1221957Y878288D01*
X1221729Y879335D01*
X1221576Y880396D01*
X1221500Y881464D01*
X1221500Y882536D01*
X1221576Y883604D01*
X1221729Y884665D01*
X1221957Y885712D01*
X1222259Y886740D01*
X1222633Y887744D01*
X1223078Y888719D01*
X1223592Y889659D01*
X1224171Y890560D01*
X1224813Y891418D01*
X1225515Y892228D01*
X1226272Y892985D01*
X1227082Y893687D01*
X1227940Y894329D01*
X1228841Y894908D01*
X1229781Y895422D01*
X1230756Y895867D01*
X1231760Y896241D01*
X1232788Y896543D01*
X1233835Y896771D01*
X1234896Y896924D01*
X1235964Y897000D01*
X1237036Y897000D01*
X952500Y830019D02*
X952429Y828758D01*
X952288Y827503D01*
X952076Y826259D01*
X951795Y825028D01*
X951446Y823815D01*
X951029Y822623D01*
X950546Y821456D01*
X949998Y820319D01*
X949387Y819214D01*
X948715Y818145D01*
X947985Y817115D01*
X947198Y816128D01*
X946356Y815187D01*
X945464Y814294D01*
X944522Y813452D01*
X943535Y812665D01*
X942505Y811935D01*
X941436Y811263D01*
X940331Y810652D01*
X939194Y810104D01*
X938027Y809621D01*
X936835Y809204D01*
X935622Y808855D01*
X934391Y808574D01*
X933147Y808362D01*
X931892Y808221D01*
X930631Y808150D01*
X929369Y808150D01*
X928108Y808221D01*
X926853Y808362D01*
X925609Y808574D01*
X924378Y808855D01*
X923165Y809204D01*
X921973Y809621D01*
X920806Y810104D01*
X919669Y810652D01*
X918564Y811263D01*
X917495Y811935D01*
X916465Y812665D01*
X915478Y813452D01*
X914537Y814294D01*
X913644Y815187D01*
X912802Y816128D01*
X912015Y817115D01*
X911285Y818145D01*
X910613Y819214D01*
X910002Y820319D01*
X909454Y821456D01*
X908971Y822623D01*
X908554Y823815D01*
X908205Y825028D01*
X907924Y826259D01*
X907712Y827503D01*
X907571Y828758D01*
X907500Y830019D01*
X907500Y831281D01*
X907571Y832542D01*
X907712Y833797D01*
X907924Y835041D01*
X908205Y836272D01*
X908554Y837485D01*
X908971Y838677D01*
X909454Y839844D01*
X910002Y840981D01*
X910613Y842086D01*
X911285Y843155D01*
X912015Y844185D01*
X912802Y845172D01*
X913644Y846114D01*
X914537Y847006D01*
X915478Y847848D01*
X916465Y848635D01*
X917495Y849365D01*
X918564Y850037D01*
X919669Y850648D01*
X920806Y851196D01*
X921973Y851679D01*
X923165Y852096D01*
X924378Y852445D01*
X925609Y852726D01*
X926853Y852938D01*
X928108Y853079D01*
X929369Y853150D01*
X930631Y853150D01*
X931892Y853079D01*
X933147Y852938D01*
X934391Y852726D01*
X935622Y852445D01*
X936835Y852096D01*
X938027Y851679D01*
X939194Y851196D01*
X940331Y850648D01*
X941436Y850037D01*
X942505Y849365D01*
X943535Y848635D01*
X944522Y847848D01*
X945464Y847006D01*
X946356Y846114D01*
X947198Y845172D01*
X947985Y844185D01*
X948715Y843155D01*
X949387Y842086D01*
X949998Y840981D01*
X950546Y839844D01*
X951029Y838677D01*
X951446Y837485D01*
X951795Y836272D01*
X952076Y835041D01*
X952288Y833797D01*
X952429Y832542D01*
X952500Y831281D01*
X952500Y830019D01*
X952500Y588719D02*
X952429Y587458D01*
X952288Y586203D01*
X952076Y584959D01*
X951795Y583728D01*
X951446Y582515D01*
X951029Y581323D01*
X950546Y580156D01*
X949998Y579019D01*
X949387Y577914D01*
X948715Y576845D01*
X947985Y575815D01*
X947198Y574828D01*
X946356Y573887D01*
X945464Y572994D01*
X944522Y572152D01*
X943535Y571365D01*
X942505Y570635D01*
X941436Y569963D01*
X940331Y569352D01*
X939194Y568804D01*
X938027Y568321D01*
X936835Y567904D01*
X935622Y567555D01*
X934391Y567274D01*
X933147Y567062D01*
X931892Y566921D01*
X930631Y566850D01*
X929369Y566850D01*
X928108Y566921D01*
X926853Y567062D01*
X925609Y567274D01*
X924378Y567555D01*
X923165Y567904D01*
X921973Y568321D01*
X920806Y568804D01*
X919669Y569352D01*
X918564Y569963D01*
X917495Y570635D01*
X916465Y571365D01*
X915478Y572152D01*
X914537Y572994D01*
X913644Y573887D01*
X912802Y574828D01*
X912015Y575815D01*
X911285Y576845D01*
X910613Y577914D01*
X910002Y579019D01*
X909454Y580156D01*
X908971Y581323D01*
X908554Y582515D01*
X908205Y583728D01*
X907924Y584959D01*
X907712Y586203D01*
X907571Y587458D01*
X907500Y588719D01*
X907500Y589981D01*
X907571Y591242D01*
X907712Y592497D01*
X907924Y593741D01*
X908205Y594972D01*
X908554Y596185D01*
X908971Y597377D01*
X909454Y598544D01*
X910002Y599681D01*
X910613Y600786D01*
X911285Y601855D01*
X912015Y602885D01*
X912802Y603872D01*
X913644Y604814D01*
X914537Y605706D01*
X915478Y606548D01*
X916465Y607335D01*
X917495Y608065D01*
X918564Y608737D01*
X919669Y609348D01*
X920806Y609896D01*
X921973Y610379D01*
X923165Y610796D01*
X924378Y611145D01*
X925609Y611426D01*
X926853Y611638D01*
X928108Y611779D01*
X929369Y611850D01*
X930631Y611850D01*
X931892Y611779D01*
X933147Y611638D01*
X934391Y611426D01*
X935622Y611145D01*
X936835Y610796D01*
X938027Y610379D01*
X939194Y609896D01*
X940331Y609348D01*
X941436Y608737D01*
X942505Y608065D01*
X943535Y607335D01*
X944522Y606548D01*
X945464Y605706D01*
X946356Y604814D01*
X947198Y603872D01*
X947985Y602885D01*
X948715Y601855D01*
X949387Y600786D01*
X949998Y599681D01*
X950546Y598544D01*
X951029Y597377D01*
X951446Y596185D01*
X951795Y594972D01*
X952076Y593741D01*
X952288Y592497D01*
X952429Y591242D01*
X952500Y589981D01*
X952500Y588719D01*
X1237036Y435000D02*
X1238104Y434924D01*
X1239165Y434771D01*
X1240212Y434543D01*
X1241240Y434241D01*
X1242244Y433867D01*
X1243219Y433422D01*
X1244159Y432908D01*
X1245060Y432329D01*
X1245918Y431687D01*
X1246728Y430985D01*
X1247485Y430228D01*
X1248187Y429418D01*
X1248829Y428560D01*
X1249408Y427659D01*
X1249922Y426719D01*
X1250367Y425744D01*
X1250741Y424740D01*
X1251043Y423712D01*
X1251271Y422665D01*
X1251424Y421604D01*
X1251500Y420536D01*
X1251500Y419464D01*
X1251424Y418396D01*
X1251271Y417335D01*
X1251043Y416288D01*
X1250741Y415260D01*
X1250367Y414256D01*
X1249922Y413281D01*
X1249408Y412341D01*
X1248829Y411440D01*
X1248187Y410582D01*
X1247485Y409772D01*
X1246728Y409015D01*
X1245918Y408313D01*
X1245060Y407671D01*
X1244159Y407092D01*
X1243219Y406578D01*
X1242244Y406133D01*
X1241240Y405759D01*
X1240212Y405457D01*
X1239165Y405229D01*
X1238104Y405076D01*
X1237036Y405000D01*
X1235964Y405000D01*
X1234896Y405076D01*
X1233835Y405229D01*
X1232788Y405457D01*
X1231760Y405759D01*
X1230756Y406133D01*
X1229781Y406578D01*
X1228841Y407092D01*
X1227940Y407671D01*
X1227082Y408313D01*
X1226272Y409015D01*
X1225515Y409772D01*
X1224813Y410582D01*
X1224171Y411440D01*
X1223592Y412341D01*
X1223078Y413281D01*
X1222633Y414256D01*
X1222259Y415260D01*
X1221957Y416288D01*
X1221729Y417335D01*
X1221576Y418396D01*
X1221500Y419464D01*
X1221500Y420536D01*
X1221576Y421604D01*
X1221729Y422665D01*
X1221957Y423712D01*
X1222259Y424740D01*
X1222633Y425744D01*
X1223078Y426719D01*
X1223592Y427659D01*
X1224171Y428560D01*
X1224813Y429418D01*
X1225515Y430228D01*
X1226272Y430985D01*
X1227082Y431687D01*
X1227940Y432329D01*
X1228841Y432908D01*
X1229781Y433422D01*
X1230756Y433867D01*
X1231760Y434241D01*
X1232788Y434543D01*
X1233835Y434771D01*
X1234896Y434924D01*
X1235964Y435000D01*
X1237036Y435000D01*
X952500Y368019D02*
X952429Y366758D01*
X952288Y365503D01*
X952076Y364259D01*
X951795Y363028D01*
X951446Y361815D01*
X951029Y360623D01*
X950546Y359456D01*
X949998Y358319D01*
X949387Y357214D01*
X948715Y356145D01*
X947985Y355115D01*
X947198Y354128D01*
X946356Y353187D01*
X945464Y352294D01*
X944522Y351452D01*
X943535Y350665D01*
X942505Y349935D01*
X941436Y349263D01*
X940331Y348652D01*
X939194Y348104D01*
X938027Y347621D01*
X936835Y347204D01*
X935622Y346855D01*
X934391Y346574D01*
X933147Y346362D01*
X931892Y346221D01*
X930631Y346150D01*
X929369Y346150D01*
X928108Y346221D01*
X926853Y346362D01*
X925609Y346574D01*
X924378Y346855D01*
X923165Y347204D01*
X921973Y347621D01*
X920806Y348104D01*
X919669Y348652D01*
X918564Y349263D01*
X917495Y349935D01*
X916465Y350665D01*
X915478Y351452D01*
X914537Y352294D01*
X913644Y353187D01*
X912802Y354128D01*
X912015Y355115D01*
X911285Y356145D01*
X910613Y357214D01*
X910002Y358319D01*
X909454Y359456D01*
X908971Y360623D01*
X908554Y361815D01*
X908205Y363028D01*
X907924Y364259D01*
X907712Y365503D01*
X907571Y366758D01*
X907500Y368019D01*
X907500Y369281D01*
X907571Y370542D01*
X907712Y371797D01*
X907924Y373041D01*
X908205Y374272D01*
X908554Y375485D01*
X908971Y376677D01*
X909454Y377844D01*
X910002Y378981D01*
X910613Y380086D01*
X911285Y381155D01*
X912015Y382185D01*
X912802Y383172D01*
X913644Y384114D01*
X914537Y385006D01*
X915478Y385848D01*
X916465Y386635D01*
X917495Y387365D01*
X918564Y388037D01*
X919669Y388648D01*
X920806Y389196D01*
X921973Y389679D01*
X923165Y390096D01*
X924378Y390445D01*
X925609Y390726D01*
X926853Y390938D01*
X928108Y391079D01*
X929369Y391150D01*
X930631Y391150D01*
X931892Y391079D01*
X933147Y390938D01*
X934391Y390726D01*
X935622Y390445D01*
X936835Y390096D01*
X938027Y389679D01*
X939194Y389196D01*
X940331Y388648D01*
X941436Y388037D01*
X942505Y387365D01*
X943535Y386635D01*
X944522Y385848D01*
X945464Y385006D01*
X946356Y384114D01*
X947198Y383172D01*
X947985Y382185D01*
X948715Y381155D01*
X949387Y380086D01*
X949998Y378981D01*
X950546Y377844D01*
X951029Y376677D01*
X951446Y375485D01*
X951795Y374272D01*
X952076Y373041D01*
X952288Y371797D01*
X952429Y370542D01*
X952500Y369281D01*
X952500Y368019D01*
X952500Y126719D02*
X952429Y125458D01*
X952288Y124203D01*
X952076Y122959D01*
X951795Y121728D01*
X951446Y120515D01*
X951029Y119323D01*
X950546Y118156D01*
X949998Y117019D01*
X949387Y115914D01*
X948715Y114845D01*
X947985Y113815D01*
X947198Y112828D01*
X946356Y111887D01*
X945464Y110994D01*
X944522Y110152D01*
X943535Y109365D01*
X942505Y108635D01*
X941436Y107963D01*
X940331Y107352D01*
X939194Y106804D01*
X938027Y106321D01*
X936835Y105904D01*
X935622Y105555D01*
X934391Y105274D01*
X933147Y105062D01*
X931892Y104921D01*
X930631Y104850D01*
X929369Y104850D01*
X928108Y104921D01*
X926853Y105062D01*
X925609Y105274D01*
X924378Y105555D01*
X923165Y105904D01*
X921973Y106321D01*
X920806Y106804D01*
X919669Y107352D01*
X918564Y107963D01*
X917495Y108635D01*
X916465Y109365D01*
X915478Y110152D01*
X914537Y110994D01*
X913644Y111887D01*
X912802Y112828D01*
X912015Y113815D01*
X911285Y114845D01*
X910613Y115914D01*
X910002Y117019D01*
X909454Y118156D01*
X908971Y119323D01*
X908554Y120515D01*
X908205Y121728D01*
X907924Y122959D01*
X907712Y124203D01*
X907571Y125458D01*
X907500Y126719D01*
X907500Y127981D01*
X907571Y129242D01*
X907712Y130497D01*
X907924Y131741D01*
X908205Y132972D01*
X908554Y134185D01*
X908971Y135377D01*
X909454Y136544D01*
X910002Y137681D01*
X910613Y138786D01*
X911285Y139855D01*
X912015Y140885D01*
X912802Y141872D01*
X913644Y142814D01*
X914537Y143706D01*
X915478Y144548D01*
X916465Y145335D01*
X917495Y146065D01*
X918564Y146737D01*
X919669Y147348D01*
X920806Y147896D01*
X921973Y148379D01*
X923165Y148796D01*
X924378Y149145D01*
X925609Y149426D01*
X926853Y149638D01*
X928108Y149779D01*
X929369Y149850D01*
X930631Y149850D01*
X931892Y149779D01*
X933147Y149638D01*
X934391Y149426D01*
X935622Y149145D01*
X936835Y148796D01*
X938027Y148379D01*
X939194Y147896D01*
X940331Y147348D01*
X941436Y146737D01*
X942505Y146065D01*
X943535Y145335D01*
X944522Y144548D01*
X945464Y143706D01*
X946356Y142814D01*
X947198Y141872D01*
X947985Y140885D01*
X948715Y139855D01*
X949387Y138786D01*
X949998Y137681D01*
X950546Y136544D01*
X951029Y135377D01*
X951446Y134185D01*
X951795Y132972D01*
X952076Y131741D01*
X952288Y130497D01*
X952429Y129242D01*
X952500Y127981D01*
X952500Y126719D01*
M02*
