G04 EAGLE Gerber RS-274X export*
G75*
%MOMM*%
%FSLAX34Y34*%
%LPD*%
%INSoldermask Bottom*%
%IPPOS*%
%AMOC8*
5,1,8,0,0,1.08239X$1,22.5*%
G01*
%ADD10C,4.800000*%
%ADD11C,3.600000*%
%ADD12C,1.828800*%
%ADD13C,1.689600*%
%ADD14C,3.901438*%
%ADD15P,1.979475X8X292.500000*%
%ADD16C,2.520000*%
%ADD17C,5.400000*%
%ADD18P,1.979475X8X112.500000*%


D10*
X1230000Y70000D03*
X1230000Y1930000D03*
X70000Y70000D03*
X70000Y1550000D03*
X750000Y1930000D03*
D11*
X272500Y1965000D03*
D12*
X247300Y1784720D02*
X247300Y1769480D01*
X272700Y1769480D02*
X272700Y1784720D01*
X298100Y1784720D02*
X298100Y1769480D01*
X456800Y1427120D02*
X456800Y1411880D01*
X431400Y1411880D02*
X431400Y1427120D01*
X406000Y1427120D02*
X406000Y1411880D01*
D13*
X98321Y1832459D03*
X111021Y1857859D03*
X123721Y1832459D03*
X85621Y1857859D03*
X136421Y1857859D03*
X72921Y1832459D03*
X60221Y1857859D03*
X47521Y1832459D03*
D14*
X149121Y1921359D03*
X34821Y1921359D03*
D15*
X456300Y998100D03*
X456300Y972700D03*
X456300Y947300D03*
X456300Y921900D03*
X481700Y998100D03*
X481700Y972700D03*
X481700Y947300D03*
X481700Y921900D03*
X437300Y1147100D03*
X437300Y1121700D03*
X437300Y1096300D03*
X437300Y1070900D03*
X462700Y1147100D03*
X462700Y1121700D03*
X462700Y1096300D03*
X462700Y1070900D03*
D16*
X484000Y1859500D03*
X442000Y1859500D03*
X442000Y1804500D03*
X484000Y1804500D03*
X526000Y1859500D03*
X526000Y1804500D03*
X568000Y1859500D03*
X568000Y1804500D03*
X610000Y1859500D03*
X610000Y1804500D03*
D11*
X610000Y1932500D03*
X442000Y1932500D03*
D12*
X765180Y1717090D02*
X780420Y1717090D01*
X815980Y1700072D02*
X831220Y1700072D01*
X780420Y1683054D02*
X765180Y1683054D01*
X815980Y1666036D02*
X831220Y1666036D01*
X780420Y1649018D02*
X765180Y1649018D01*
X815980Y1632000D02*
X831220Y1632000D01*
X780420Y1614982D02*
X765180Y1614982D01*
X815980Y1597964D02*
X831220Y1597964D01*
X780420Y1580946D02*
X765180Y1580946D01*
X815980Y1563928D02*
X831220Y1563928D01*
X780420Y1546910D02*
X765180Y1546910D01*
X1079580Y1546910D02*
X1094820Y1546910D01*
X1044020Y1563928D02*
X1028780Y1563928D01*
X1079580Y1580946D02*
X1094820Y1580946D01*
X1044020Y1597964D02*
X1028780Y1597964D01*
X1079580Y1614982D02*
X1094820Y1614982D01*
X1044020Y1632000D02*
X1028780Y1632000D01*
X1079580Y1649018D02*
X1094820Y1649018D01*
X1044020Y1666036D02*
X1028780Y1666036D01*
X1079580Y1683054D02*
X1094820Y1683054D01*
X1044020Y1700072D02*
X1028780Y1700072D01*
X1079580Y1717090D02*
X1094820Y1717090D01*
D16*
X1160000Y1782000D03*
X1160000Y1824000D03*
X1105000Y1824000D03*
X1105000Y1782000D03*
D11*
X1236500Y1804000D03*
D17*
X930000Y1752650D03*
X930000Y1511350D03*
D12*
X780420Y1257090D02*
X765180Y1257090D01*
X815980Y1240072D02*
X831220Y1240072D01*
X780420Y1223054D02*
X765180Y1223054D01*
X815980Y1206036D02*
X831220Y1206036D01*
X780420Y1189018D02*
X765180Y1189018D01*
X815980Y1172000D02*
X831220Y1172000D01*
X780420Y1154982D02*
X765180Y1154982D01*
X815980Y1137964D02*
X831220Y1137964D01*
X780420Y1120946D02*
X765180Y1120946D01*
X815980Y1103928D02*
X831220Y1103928D01*
X780420Y1086910D02*
X765180Y1086910D01*
X1079580Y1086910D02*
X1094820Y1086910D01*
X1044020Y1103928D02*
X1028780Y1103928D01*
X1079580Y1120946D02*
X1094820Y1120946D01*
X1044020Y1137964D02*
X1028780Y1137964D01*
X1079580Y1154982D02*
X1094820Y1154982D01*
X1044020Y1172000D02*
X1028780Y1172000D01*
X1079580Y1189018D02*
X1094820Y1189018D01*
X1044020Y1206036D02*
X1028780Y1206036D01*
X1079580Y1223054D02*
X1094820Y1223054D01*
X1044020Y1240072D02*
X1028780Y1240072D01*
X1079580Y1257090D02*
X1094820Y1257090D01*
D16*
X1160000Y1322000D03*
X1160000Y1364000D03*
X1105000Y1364000D03*
X1105000Y1322000D03*
D11*
X1236500Y1344000D03*
D17*
X930000Y1292650D03*
X930000Y1051350D03*
D12*
X780420Y795090D02*
X765180Y795090D01*
X815980Y778072D02*
X831220Y778072D01*
X780420Y761054D02*
X765180Y761054D01*
X815980Y744036D02*
X831220Y744036D01*
X780420Y727018D02*
X765180Y727018D01*
X815980Y710000D02*
X831220Y710000D01*
X780420Y692982D02*
X765180Y692982D01*
X815980Y675964D02*
X831220Y675964D01*
X780420Y658946D02*
X765180Y658946D01*
X815980Y641928D02*
X831220Y641928D01*
X780420Y624910D02*
X765180Y624910D01*
X1079580Y624910D02*
X1094820Y624910D01*
X1044020Y641928D02*
X1028780Y641928D01*
X1079580Y658946D02*
X1094820Y658946D01*
X1044020Y675964D02*
X1028780Y675964D01*
X1079580Y692982D02*
X1094820Y692982D01*
X1044020Y710000D02*
X1028780Y710000D01*
X1079580Y727018D02*
X1094820Y727018D01*
X1044020Y744036D02*
X1028780Y744036D01*
X1079580Y761054D02*
X1094820Y761054D01*
X1044020Y778072D02*
X1028780Y778072D01*
X1079580Y795090D02*
X1094820Y795090D01*
D16*
X1160000Y860000D03*
X1160000Y902000D03*
X1105000Y902000D03*
X1105000Y860000D03*
D11*
X1236500Y882000D03*
D17*
X930000Y830650D03*
X930000Y589350D03*
D12*
X780420Y333090D02*
X765180Y333090D01*
X815980Y316072D02*
X831220Y316072D01*
X780420Y299054D02*
X765180Y299054D01*
X815980Y282036D02*
X831220Y282036D01*
X780420Y265018D02*
X765180Y265018D01*
X815980Y248000D02*
X831220Y248000D01*
X780420Y230982D02*
X765180Y230982D01*
X815980Y213964D02*
X831220Y213964D01*
X780420Y196946D02*
X765180Y196946D01*
X815980Y179928D02*
X831220Y179928D01*
X780420Y162910D02*
X765180Y162910D01*
X1079580Y162910D02*
X1094820Y162910D01*
X1044020Y179928D02*
X1028780Y179928D01*
X1079580Y196946D02*
X1094820Y196946D01*
X1044020Y213964D02*
X1028780Y213964D01*
X1079580Y230982D02*
X1094820Y230982D01*
X1044020Y248000D02*
X1028780Y248000D01*
X1079580Y265018D02*
X1094820Y265018D01*
X1044020Y282036D02*
X1028780Y282036D01*
X1079580Y299054D02*
X1094820Y299054D01*
X1044020Y316072D02*
X1028780Y316072D01*
X1079580Y333090D02*
X1094820Y333090D01*
D16*
X1160000Y398000D03*
X1160000Y440000D03*
X1105000Y440000D03*
X1105000Y398000D03*
D11*
X1236500Y420000D03*
D17*
X930000Y368650D03*
X930000Y127350D03*
D18*
X431700Y642900D03*
X431700Y668300D03*
X431700Y693700D03*
X431700Y719100D03*
X406300Y642900D03*
X406300Y668300D03*
X406300Y693700D03*
X406300Y719100D03*
M02*
