G04 EAGLE Gerber RS-274X export*
G75*
%MOMM*%
%FSLAX34Y34*%
%LPD*%
%INSoldermask Top*%
%IPPOS*%
%AMOC8*
5,1,8,0,0,1.08239X$1,22.5*%
G01*
%ADD10C,4.800000*%
%ADD11C,3.600000*%
%ADD12R,1.760000X1.560000*%
%ADD13R,1.560000X1.760000*%
%ADD14C,1.828800*%
%ADD15R,1.060000X0.360000*%
%ADD16R,0.360000X1.060000*%
%ADD17R,0.612963X2.023363*%
%ADD18R,2.020819X0.718919*%
%ADD19R,0.360000X1.760000*%
%ADD20R,0.660000X1.310000*%
%ADD21R,1.560000X1.860000*%
%ADD22R,1.920000X2.123000*%
%ADD23C,1.689600*%
%ADD24C,3.901438*%
%ADD25R,3.000000X4.500000*%
%ADD26R,4.500000X3.000000*%
%ADD27R,2.243997X2.373997*%
%ADD28R,2.373997X2.243997*%
%ADD29P,1.979475X8X292.500000*%
%ADD30C,2.520000*%
%ADD31R,0.718919X2.020819*%
%ADD32R,4.134000X1.944000*%
%ADD33R,9.510000X8.870000*%
%ADD34C,5.400000*%
%ADD35P,1.979475X8X112.500000*%

G36*
X1112185Y1774012D02*
X1112185Y1774012D01*
X1112370Y1774014D01*
X1112500Y1774032D01*
X1112631Y1774041D01*
X1112812Y1774076D01*
X1112996Y1774101D01*
X1113122Y1774135D01*
X1113252Y1774160D01*
X1113428Y1774218D01*
X1113606Y1774266D01*
X1113727Y1774316D01*
X1113852Y1774357D01*
X1114020Y1774436D01*
X1114190Y1774506D01*
X1114305Y1774571D01*
X1114423Y1774627D01*
X1114579Y1774727D01*
X1114740Y1774819D01*
X1114845Y1774897D01*
X1114956Y1774968D01*
X1115098Y1775087D01*
X1115246Y1775198D01*
X1115340Y1775289D01*
X1115441Y1775373D01*
X1115567Y1775509D01*
X1115700Y1775638D01*
X1115782Y1775740D01*
X1115871Y1775837D01*
X1115979Y1775987D01*
X1116094Y1776131D01*
X1116163Y1776244D01*
X1116239Y1776350D01*
X1116327Y1776513D01*
X1116424Y1776671D01*
X1116477Y1776791D01*
X1116540Y1776906D01*
X1116606Y1777079D01*
X1116682Y1777248D01*
X1116720Y1777373D01*
X1116768Y1777496D01*
X1116812Y1777676D01*
X1116866Y1777853D01*
X1116888Y1777982D01*
X1116919Y1778110D01*
X1116941Y1778293D01*
X1116972Y1778476D01*
X1116980Y1778629D01*
X1116992Y1778737D01*
X1116991Y1778846D01*
X1116999Y1779000D01*
X1116999Y1834000D01*
X1116988Y1834185D01*
X1116986Y1834370D01*
X1116968Y1834500D01*
X1116959Y1834631D01*
X1116924Y1834812D01*
X1116899Y1834996D01*
X1116865Y1835122D01*
X1116840Y1835252D01*
X1116782Y1835428D01*
X1116734Y1835606D01*
X1116684Y1835727D01*
X1116643Y1835852D01*
X1116564Y1836020D01*
X1116494Y1836190D01*
X1116429Y1836305D01*
X1116373Y1836423D01*
X1116273Y1836579D01*
X1116182Y1836740D01*
X1116103Y1836845D01*
X1116032Y1836956D01*
X1115913Y1837098D01*
X1115802Y1837246D01*
X1115711Y1837340D01*
X1115627Y1837441D01*
X1115491Y1837567D01*
X1115362Y1837700D01*
X1115260Y1837782D01*
X1115163Y1837871D01*
X1115013Y1837979D01*
X1114869Y1838094D01*
X1114756Y1838163D01*
X1114650Y1838239D01*
X1114487Y1838327D01*
X1114329Y1838424D01*
X1114209Y1838477D01*
X1114094Y1838540D01*
X1113921Y1838606D01*
X1113752Y1838682D01*
X1113627Y1838720D01*
X1113504Y1838768D01*
X1113324Y1838812D01*
X1113147Y1838866D01*
X1113018Y1838888D01*
X1112890Y1838919D01*
X1112707Y1838941D01*
X1112524Y1838972D01*
X1112371Y1838980D01*
X1112263Y1838992D01*
X1112154Y1838991D01*
X1112000Y1838999D01*
X1079000Y1838999D01*
X1078815Y1838988D01*
X1078630Y1838986D01*
X1078500Y1838968D01*
X1078369Y1838959D01*
X1078188Y1838924D01*
X1078004Y1838899D01*
X1077878Y1838865D01*
X1077748Y1838840D01*
X1077572Y1838782D01*
X1077394Y1838734D01*
X1077273Y1838684D01*
X1077148Y1838643D01*
X1076980Y1838564D01*
X1076810Y1838494D01*
X1076695Y1838429D01*
X1076577Y1838373D01*
X1076421Y1838273D01*
X1076260Y1838182D01*
X1076155Y1838103D01*
X1076044Y1838032D01*
X1075902Y1837913D01*
X1075754Y1837802D01*
X1075660Y1837711D01*
X1075559Y1837627D01*
X1075433Y1837491D01*
X1075300Y1837362D01*
X1075218Y1837260D01*
X1075129Y1837163D01*
X1075021Y1837013D01*
X1074906Y1836869D01*
X1074837Y1836756D01*
X1074761Y1836650D01*
X1074673Y1836487D01*
X1074576Y1836329D01*
X1074523Y1836209D01*
X1074460Y1836094D01*
X1074394Y1835921D01*
X1074318Y1835752D01*
X1074280Y1835627D01*
X1074232Y1835504D01*
X1074188Y1835324D01*
X1074134Y1835147D01*
X1074112Y1835018D01*
X1074081Y1834890D01*
X1074059Y1834707D01*
X1074028Y1834524D01*
X1074020Y1834371D01*
X1074008Y1834263D01*
X1074008Y1834255D01*
X1074008Y1834254D01*
X1074009Y1834152D01*
X1074001Y1834000D01*
X1074001Y1779000D01*
X1074012Y1778815D01*
X1074014Y1778630D01*
X1074032Y1778500D01*
X1074041Y1778369D01*
X1074076Y1778188D01*
X1074101Y1778004D01*
X1074135Y1777878D01*
X1074160Y1777748D01*
X1074218Y1777572D01*
X1074266Y1777394D01*
X1074316Y1777273D01*
X1074357Y1777148D01*
X1074436Y1776980D01*
X1074506Y1776810D01*
X1074571Y1776695D01*
X1074627Y1776577D01*
X1074727Y1776421D01*
X1074819Y1776260D01*
X1074897Y1776155D01*
X1074968Y1776044D01*
X1075087Y1775902D01*
X1075198Y1775754D01*
X1075289Y1775660D01*
X1075373Y1775559D01*
X1075509Y1775433D01*
X1075638Y1775300D01*
X1075740Y1775218D01*
X1075837Y1775129D01*
X1075987Y1775021D01*
X1076131Y1774906D01*
X1076244Y1774837D01*
X1076350Y1774761D01*
X1076513Y1774673D01*
X1076671Y1774576D01*
X1076791Y1774523D01*
X1076906Y1774460D01*
X1077079Y1774394D01*
X1077248Y1774318D01*
X1077373Y1774280D01*
X1077496Y1774232D01*
X1077676Y1774188D01*
X1077853Y1774134D01*
X1077982Y1774112D01*
X1078110Y1774081D01*
X1078293Y1774059D01*
X1078476Y1774028D01*
X1078629Y1774020D01*
X1078737Y1774008D01*
X1078846Y1774009D01*
X1079000Y1774001D01*
X1112000Y1774001D01*
X1112185Y1774012D01*
G37*
G36*
X1112185Y1314012D02*
X1112185Y1314012D01*
X1112370Y1314014D01*
X1112500Y1314032D01*
X1112631Y1314041D01*
X1112812Y1314076D01*
X1112996Y1314101D01*
X1113122Y1314135D01*
X1113252Y1314160D01*
X1113428Y1314218D01*
X1113606Y1314266D01*
X1113727Y1314316D01*
X1113852Y1314357D01*
X1114020Y1314436D01*
X1114190Y1314506D01*
X1114305Y1314571D01*
X1114423Y1314627D01*
X1114579Y1314727D01*
X1114740Y1314819D01*
X1114845Y1314897D01*
X1114956Y1314968D01*
X1115098Y1315087D01*
X1115246Y1315198D01*
X1115340Y1315289D01*
X1115441Y1315373D01*
X1115567Y1315509D01*
X1115700Y1315638D01*
X1115782Y1315740D01*
X1115871Y1315837D01*
X1115979Y1315987D01*
X1116094Y1316131D01*
X1116163Y1316244D01*
X1116239Y1316350D01*
X1116327Y1316513D01*
X1116424Y1316671D01*
X1116477Y1316791D01*
X1116540Y1316906D01*
X1116606Y1317079D01*
X1116682Y1317248D01*
X1116720Y1317373D01*
X1116768Y1317496D01*
X1116812Y1317676D01*
X1116866Y1317853D01*
X1116888Y1317982D01*
X1116919Y1318110D01*
X1116941Y1318293D01*
X1116972Y1318476D01*
X1116980Y1318629D01*
X1116992Y1318737D01*
X1116991Y1318846D01*
X1116999Y1319000D01*
X1116999Y1374000D01*
X1116988Y1374185D01*
X1116986Y1374370D01*
X1116968Y1374500D01*
X1116959Y1374631D01*
X1116924Y1374812D01*
X1116899Y1374996D01*
X1116865Y1375122D01*
X1116840Y1375252D01*
X1116782Y1375428D01*
X1116734Y1375606D01*
X1116684Y1375727D01*
X1116643Y1375852D01*
X1116564Y1376020D01*
X1116494Y1376190D01*
X1116429Y1376305D01*
X1116373Y1376423D01*
X1116273Y1376579D01*
X1116182Y1376740D01*
X1116103Y1376845D01*
X1116032Y1376956D01*
X1115913Y1377098D01*
X1115802Y1377246D01*
X1115711Y1377340D01*
X1115627Y1377441D01*
X1115491Y1377567D01*
X1115362Y1377700D01*
X1115260Y1377782D01*
X1115163Y1377871D01*
X1115013Y1377979D01*
X1114869Y1378094D01*
X1114756Y1378163D01*
X1114650Y1378239D01*
X1114487Y1378327D01*
X1114329Y1378424D01*
X1114209Y1378477D01*
X1114094Y1378540D01*
X1113921Y1378606D01*
X1113752Y1378682D01*
X1113627Y1378720D01*
X1113504Y1378768D01*
X1113324Y1378812D01*
X1113147Y1378866D01*
X1113018Y1378888D01*
X1112890Y1378919D01*
X1112707Y1378941D01*
X1112524Y1378972D01*
X1112371Y1378980D01*
X1112263Y1378992D01*
X1112154Y1378991D01*
X1112000Y1378999D01*
X1079000Y1378999D01*
X1078815Y1378988D01*
X1078630Y1378986D01*
X1078500Y1378968D01*
X1078369Y1378959D01*
X1078188Y1378924D01*
X1078004Y1378899D01*
X1077878Y1378865D01*
X1077748Y1378840D01*
X1077572Y1378782D01*
X1077394Y1378734D01*
X1077273Y1378684D01*
X1077148Y1378643D01*
X1076980Y1378564D01*
X1076810Y1378494D01*
X1076695Y1378429D01*
X1076577Y1378373D01*
X1076421Y1378273D01*
X1076260Y1378182D01*
X1076155Y1378103D01*
X1076044Y1378032D01*
X1075902Y1377913D01*
X1075754Y1377802D01*
X1075660Y1377711D01*
X1075559Y1377627D01*
X1075433Y1377491D01*
X1075300Y1377362D01*
X1075218Y1377260D01*
X1075129Y1377163D01*
X1075021Y1377013D01*
X1074906Y1376869D01*
X1074837Y1376756D01*
X1074761Y1376650D01*
X1074673Y1376487D01*
X1074576Y1376329D01*
X1074523Y1376209D01*
X1074460Y1376094D01*
X1074394Y1375921D01*
X1074318Y1375752D01*
X1074280Y1375627D01*
X1074232Y1375504D01*
X1074188Y1375324D01*
X1074134Y1375147D01*
X1074112Y1375018D01*
X1074081Y1374890D01*
X1074059Y1374707D01*
X1074028Y1374524D01*
X1074020Y1374371D01*
X1074008Y1374263D01*
X1074008Y1374255D01*
X1074008Y1374254D01*
X1074009Y1374152D01*
X1074001Y1374000D01*
X1074001Y1319000D01*
X1074012Y1318815D01*
X1074014Y1318630D01*
X1074032Y1318500D01*
X1074041Y1318369D01*
X1074076Y1318188D01*
X1074101Y1318004D01*
X1074135Y1317878D01*
X1074160Y1317748D01*
X1074218Y1317572D01*
X1074266Y1317394D01*
X1074316Y1317273D01*
X1074357Y1317148D01*
X1074436Y1316980D01*
X1074506Y1316810D01*
X1074571Y1316695D01*
X1074627Y1316577D01*
X1074727Y1316421D01*
X1074819Y1316260D01*
X1074897Y1316155D01*
X1074968Y1316044D01*
X1075087Y1315902D01*
X1075198Y1315754D01*
X1075289Y1315660D01*
X1075373Y1315559D01*
X1075509Y1315433D01*
X1075638Y1315300D01*
X1075740Y1315218D01*
X1075837Y1315129D01*
X1075987Y1315021D01*
X1076131Y1314906D01*
X1076244Y1314837D01*
X1076350Y1314761D01*
X1076513Y1314673D01*
X1076671Y1314576D01*
X1076791Y1314523D01*
X1076906Y1314460D01*
X1077079Y1314394D01*
X1077248Y1314318D01*
X1077373Y1314280D01*
X1077496Y1314232D01*
X1077676Y1314188D01*
X1077853Y1314134D01*
X1077982Y1314112D01*
X1078110Y1314081D01*
X1078293Y1314059D01*
X1078476Y1314028D01*
X1078629Y1314020D01*
X1078737Y1314008D01*
X1078846Y1314009D01*
X1079000Y1314001D01*
X1112000Y1314001D01*
X1112185Y1314012D01*
G37*
G36*
X1112185Y852012D02*
X1112185Y852012D01*
X1112370Y852014D01*
X1112500Y852032D01*
X1112631Y852041D01*
X1112812Y852076D01*
X1112996Y852101D01*
X1113122Y852135D01*
X1113252Y852160D01*
X1113428Y852218D01*
X1113606Y852266D01*
X1113727Y852316D01*
X1113852Y852357D01*
X1114020Y852436D01*
X1114190Y852506D01*
X1114305Y852571D01*
X1114423Y852627D01*
X1114579Y852727D01*
X1114740Y852819D01*
X1114845Y852897D01*
X1114956Y852968D01*
X1115098Y853087D01*
X1115246Y853198D01*
X1115340Y853289D01*
X1115441Y853373D01*
X1115567Y853509D01*
X1115700Y853638D01*
X1115782Y853740D01*
X1115871Y853837D01*
X1115979Y853987D01*
X1116094Y854131D01*
X1116163Y854244D01*
X1116239Y854350D01*
X1116327Y854513D01*
X1116424Y854671D01*
X1116477Y854791D01*
X1116540Y854906D01*
X1116606Y855079D01*
X1116682Y855248D01*
X1116720Y855373D01*
X1116768Y855496D01*
X1116812Y855676D01*
X1116866Y855853D01*
X1116888Y855982D01*
X1116919Y856110D01*
X1116941Y856293D01*
X1116972Y856476D01*
X1116980Y856629D01*
X1116992Y856737D01*
X1116991Y856846D01*
X1116999Y857000D01*
X1116999Y912000D01*
X1116988Y912185D01*
X1116986Y912370D01*
X1116968Y912500D01*
X1116959Y912631D01*
X1116924Y912812D01*
X1116899Y912996D01*
X1116865Y913122D01*
X1116840Y913252D01*
X1116782Y913428D01*
X1116734Y913606D01*
X1116684Y913727D01*
X1116643Y913852D01*
X1116564Y914020D01*
X1116494Y914190D01*
X1116429Y914305D01*
X1116373Y914423D01*
X1116273Y914579D01*
X1116182Y914740D01*
X1116103Y914845D01*
X1116032Y914956D01*
X1115913Y915098D01*
X1115802Y915246D01*
X1115711Y915340D01*
X1115627Y915441D01*
X1115491Y915567D01*
X1115362Y915700D01*
X1115260Y915782D01*
X1115163Y915871D01*
X1115013Y915979D01*
X1114869Y916094D01*
X1114756Y916163D01*
X1114650Y916239D01*
X1114487Y916327D01*
X1114329Y916424D01*
X1114209Y916477D01*
X1114094Y916540D01*
X1113921Y916606D01*
X1113752Y916682D01*
X1113627Y916720D01*
X1113504Y916768D01*
X1113324Y916812D01*
X1113147Y916866D01*
X1113018Y916888D01*
X1112890Y916919D01*
X1112707Y916941D01*
X1112524Y916972D01*
X1112371Y916980D01*
X1112263Y916992D01*
X1112154Y916991D01*
X1112000Y916999D01*
X1079000Y916999D01*
X1078815Y916988D01*
X1078630Y916986D01*
X1078500Y916968D01*
X1078369Y916959D01*
X1078188Y916924D01*
X1078004Y916899D01*
X1077878Y916865D01*
X1077748Y916840D01*
X1077572Y916782D01*
X1077394Y916734D01*
X1077273Y916684D01*
X1077148Y916643D01*
X1076980Y916564D01*
X1076810Y916494D01*
X1076695Y916429D01*
X1076577Y916373D01*
X1076421Y916273D01*
X1076260Y916182D01*
X1076155Y916103D01*
X1076044Y916032D01*
X1075902Y915913D01*
X1075754Y915802D01*
X1075660Y915711D01*
X1075559Y915627D01*
X1075433Y915491D01*
X1075300Y915362D01*
X1075218Y915260D01*
X1075129Y915163D01*
X1075021Y915013D01*
X1074906Y914869D01*
X1074837Y914756D01*
X1074761Y914650D01*
X1074673Y914487D01*
X1074576Y914329D01*
X1074523Y914209D01*
X1074460Y914094D01*
X1074394Y913921D01*
X1074318Y913752D01*
X1074280Y913627D01*
X1074232Y913504D01*
X1074188Y913324D01*
X1074134Y913147D01*
X1074112Y913018D01*
X1074081Y912890D01*
X1074059Y912707D01*
X1074028Y912524D01*
X1074020Y912371D01*
X1074008Y912263D01*
X1074008Y912255D01*
X1074008Y912254D01*
X1074009Y912152D01*
X1074001Y912000D01*
X1074001Y857000D01*
X1074012Y856815D01*
X1074014Y856630D01*
X1074032Y856500D01*
X1074041Y856369D01*
X1074076Y856188D01*
X1074101Y856004D01*
X1074135Y855878D01*
X1074160Y855748D01*
X1074218Y855572D01*
X1074266Y855394D01*
X1074316Y855273D01*
X1074357Y855148D01*
X1074436Y854980D01*
X1074506Y854810D01*
X1074571Y854695D01*
X1074627Y854577D01*
X1074727Y854421D01*
X1074819Y854260D01*
X1074897Y854155D01*
X1074968Y854044D01*
X1075087Y853902D01*
X1075198Y853754D01*
X1075289Y853660D01*
X1075373Y853559D01*
X1075509Y853433D01*
X1075638Y853300D01*
X1075740Y853218D01*
X1075837Y853129D01*
X1075987Y853021D01*
X1076131Y852906D01*
X1076244Y852837D01*
X1076350Y852761D01*
X1076513Y852673D01*
X1076671Y852576D01*
X1076791Y852523D01*
X1076906Y852460D01*
X1077079Y852394D01*
X1077248Y852318D01*
X1077373Y852280D01*
X1077496Y852232D01*
X1077676Y852188D01*
X1077853Y852134D01*
X1077982Y852112D01*
X1078110Y852081D01*
X1078293Y852059D01*
X1078476Y852028D01*
X1078629Y852020D01*
X1078737Y852008D01*
X1078846Y852009D01*
X1079000Y852001D01*
X1112000Y852001D01*
X1112185Y852012D01*
G37*
G36*
X1112185Y390012D02*
X1112185Y390012D01*
X1112370Y390014D01*
X1112500Y390032D01*
X1112631Y390041D01*
X1112812Y390076D01*
X1112996Y390101D01*
X1113122Y390135D01*
X1113252Y390160D01*
X1113428Y390218D01*
X1113606Y390266D01*
X1113727Y390316D01*
X1113852Y390357D01*
X1114020Y390436D01*
X1114190Y390506D01*
X1114305Y390571D01*
X1114423Y390627D01*
X1114579Y390727D01*
X1114740Y390819D01*
X1114845Y390897D01*
X1114956Y390968D01*
X1115098Y391087D01*
X1115246Y391198D01*
X1115340Y391289D01*
X1115441Y391373D01*
X1115567Y391509D01*
X1115700Y391638D01*
X1115782Y391740D01*
X1115871Y391837D01*
X1115979Y391987D01*
X1116094Y392131D01*
X1116163Y392244D01*
X1116239Y392350D01*
X1116327Y392513D01*
X1116424Y392671D01*
X1116477Y392791D01*
X1116540Y392906D01*
X1116606Y393079D01*
X1116682Y393248D01*
X1116720Y393373D01*
X1116768Y393496D01*
X1116812Y393676D01*
X1116866Y393853D01*
X1116888Y393982D01*
X1116919Y394110D01*
X1116941Y394293D01*
X1116972Y394476D01*
X1116980Y394629D01*
X1116992Y394737D01*
X1116991Y394846D01*
X1116999Y395000D01*
X1116999Y450000D01*
X1116988Y450185D01*
X1116986Y450370D01*
X1116968Y450500D01*
X1116959Y450631D01*
X1116924Y450812D01*
X1116899Y450996D01*
X1116865Y451122D01*
X1116840Y451252D01*
X1116782Y451428D01*
X1116734Y451606D01*
X1116684Y451727D01*
X1116643Y451852D01*
X1116564Y452020D01*
X1116494Y452190D01*
X1116429Y452305D01*
X1116373Y452423D01*
X1116273Y452579D01*
X1116182Y452740D01*
X1116103Y452845D01*
X1116032Y452956D01*
X1115913Y453098D01*
X1115802Y453246D01*
X1115711Y453340D01*
X1115627Y453441D01*
X1115491Y453567D01*
X1115362Y453700D01*
X1115260Y453782D01*
X1115163Y453871D01*
X1115013Y453979D01*
X1114869Y454094D01*
X1114756Y454163D01*
X1114650Y454239D01*
X1114487Y454327D01*
X1114329Y454424D01*
X1114209Y454477D01*
X1114094Y454540D01*
X1113921Y454606D01*
X1113752Y454682D01*
X1113627Y454720D01*
X1113504Y454768D01*
X1113324Y454812D01*
X1113147Y454866D01*
X1113018Y454888D01*
X1112890Y454919D01*
X1112707Y454941D01*
X1112524Y454972D01*
X1112371Y454980D01*
X1112263Y454992D01*
X1112154Y454991D01*
X1112000Y454999D01*
X1079000Y454999D01*
X1078815Y454988D01*
X1078630Y454986D01*
X1078500Y454968D01*
X1078369Y454959D01*
X1078188Y454924D01*
X1078004Y454899D01*
X1077878Y454865D01*
X1077748Y454840D01*
X1077572Y454782D01*
X1077394Y454734D01*
X1077273Y454684D01*
X1077148Y454643D01*
X1076980Y454564D01*
X1076810Y454494D01*
X1076695Y454429D01*
X1076577Y454373D01*
X1076421Y454273D01*
X1076260Y454182D01*
X1076155Y454103D01*
X1076044Y454032D01*
X1075902Y453913D01*
X1075754Y453802D01*
X1075660Y453711D01*
X1075559Y453627D01*
X1075433Y453491D01*
X1075300Y453362D01*
X1075218Y453260D01*
X1075129Y453163D01*
X1075021Y453013D01*
X1074906Y452869D01*
X1074837Y452756D01*
X1074761Y452650D01*
X1074673Y452487D01*
X1074576Y452329D01*
X1074523Y452209D01*
X1074460Y452094D01*
X1074394Y451921D01*
X1074318Y451752D01*
X1074280Y451627D01*
X1074232Y451504D01*
X1074188Y451324D01*
X1074134Y451147D01*
X1074112Y451018D01*
X1074081Y450890D01*
X1074059Y450707D01*
X1074028Y450524D01*
X1074020Y450371D01*
X1074008Y450263D01*
X1074008Y450255D01*
X1074008Y450254D01*
X1074009Y450152D01*
X1074001Y450000D01*
X1074001Y395000D01*
X1074012Y394815D01*
X1074014Y394630D01*
X1074032Y394500D01*
X1074041Y394369D01*
X1074076Y394188D01*
X1074101Y394004D01*
X1074135Y393878D01*
X1074160Y393748D01*
X1074218Y393572D01*
X1074266Y393394D01*
X1074316Y393273D01*
X1074357Y393148D01*
X1074436Y392980D01*
X1074506Y392810D01*
X1074571Y392695D01*
X1074627Y392577D01*
X1074727Y392421D01*
X1074819Y392260D01*
X1074897Y392155D01*
X1074968Y392044D01*
X1075087Y391902D01*
X1075198Y391754D01*
X1075289Y391660D01*
X1075373Y391559D01*
X1075509Y391433D01*
X1075638Y391300D01*
X1075740Y391218D01*
X1075837Y391129D01*
X1075987Y391021D01*
X1076131Y390906D01*
X1076244Y390837D01*
X1076350Y390761D01*
X1076513Y390673D01*
X1076671Y390576D01*
X1076791Y390523D01*
X1076906Y390460D01*
X1077079Y390394D01*
X1077248Y390318D01*
X1077373Y390280D01*
X1077496Y390232D01*
X1077676Y390188D01*
X1077853Y390134D01*
X1077982Y390112D01*
X1078110Y390081D01*
X1078293Y390059D01*
X1078476Y390028D01*
X1078629Y390020D01*
X1078737Y390008D01*
X1078846Y390009D01*
X1079000Y390001D01*
X1112000Y390001D01*
X1112185Y390012D01*
G37*
G36*
X808185Y1790012D02*
X808185Y1790012D01*
X808370Y1790014D01*
X808500Y1790032D01*
X808631Y1790041D01*
X808812Y1790076D01*
X808996Y1790101D01*
X809122Y1790135D01*
X809252Y1790160D01*
X809428Y1790218D01*
X809606Y1790266D01*
X809727Y1790316D01*
X809852Y1790357D01*
X810020Y1790436D01*
X810190Y1790506D01*
X810305Y1790571D01*
X810423Y1790627D01*
X810579Y1790727D01*
X810740Y1790819D01*
X810845Y1790897D01*
X810956Y1790968D01*
X811098Y1791087D01*
X811246Y1791198D01*
X811340Y1791289D01*
X811441Y1791373D01*
X811567Y1791509D01*
X811700Y1791638D01*
X811782Y1791740D01*
X811871Y1791837D01*
X811979Y1791987D01*
X812094Y1792131D01*
X812163Y1792244D01*
X812239Y1792350D01*
X812327Y1792513D01*
X812424Y1792671D01*
X812477Y1792791D01*
X812540Y1792906D01*
X812606Y1793079D01*
X812682Y1793248D01*
X812720Y1793373D01*
X812768Y1793496D01*
X812812Y1793676D01*
X812866Y1793853D01*
X812888Y1793982D01*
X812919Y1794110D01*
X812941Y1794293D01*
X812972Y1794476D01*
X812980Y1794629D01*
X812992Y1794737D01*
X812991Y1794846D01*
X812999Y1795000D01*
X812999Y1817000D01*
X812988Y1817185D01*
X812986Y1817370D01*
X812968Y1817500D01*
X812959Y1817631D01*
X812924Y1817812D01*
X812899Y1817996D01*
X812865Y1818122D01*
X812840Y1818252D01*
X812782Y1818428D01*
X812734Y1818606D01*
X812684Y1818727D01*
X812643Y1818852D01*
X812564Y1819020D01*
X812494Y1819190D01*
X812429Y1819305D01*
X812373Y1819423D01*
X812273Y1819579D01*
X812182Y1819740D01*
X812103Y1819845D01*
X812032Y1819956D01*
X811913Y1820098D01*
X811802Y1820246D01*
X811711Y1820340D01*
X811627Y1820441D01*
X811491Y1820567D01*
X811362Y1820700D01*
X811260Y1820782D01*
X811163Y1820871D01*
X811013Y1820979D01*
X810869Y1821094D01*
X810756Y1821163D01*
X810650Y1821239D01*
X810487Y1821327D01*
X810329Y1821424D01*
X810209Y1821477D01*
X810094Y1821540D01*
X809921Y1821606D01*
X809752Y1821682D01*
X809627Y1821720D01*
X809504Y1821768D01*
X809324Y1821812D01*
X809147Y1821866D01*
X809018Y1821888D01*
X808890Y1821919D01*
X808707Y1821941D01*
X808524Y1821972D01*
X808371Y1821980D01*
X808263Y1821992D01*
X808154Y1821991D01*
X808000Y1821999D01*
X752000Y1821999D01*
X751815Y1821988D01*
X751630Y1821986D01*
X751500Y1821968D01*
X751369Y1821959D01*
X751188Y1821924D01*
X751004Y1821899D01*
X750878Y1821865D01*
X750748Y1821840D01*
X750572Y1821782D01*
X750394Y1821734D01*
X750273Y1821684D01*
X750148Y1821643D01*
X749980Y1821564D01*
X749810Y1821494D01*
X749695Y1821429D01*
X749577Y1821373D01*
X749421Y1821273D01*
X749260Y1821182D01*
X749155Y1821103D01*
X749044Y1821032D01*
X748902Y1820913D01*
X748754Y1820802D01*
X748660Y1820711D01*
X748559Y1820627D01*
X748433Y1820491D01*
X748300Y1820362D01*
X748218Y1820260D01*
X748129Y1820163D01*
X748021Y1820013D01*
X747906Y1819869D01*
X747837Y1819756D01*
X747761Y1819650D01*
X747673Y1819487D01*
X747576Y1819329D01*
X747523Y1819209D01*
X747460Y1819094D01*
X747394Y1818921D01*
X747318Y1818752D01*
X747280Y1818627D01*
X747232Y1818504D01*
X747188Y1818324D01*
X747134Y1818147D01*
X747112Y1818018D01*
X747081Y1817890D01*
X747059Y1817707D01*
X747028Y1817524D01*
X747020Y1817371D01*
X747008Y1817263D01*
X747009Y1817154D01*
X747001Y1817000D01*
X747001Y1798000D01*
X747008Y1797881D01*
X747006Y1797762D01*
X747028Y1797566D01*
X747041Y1797369D01*
X747063Y1797252D01*
X747076Y1797133D01*
X747123Y1796942D01*
X747160Y1796748D01*
X747197Y1796635D01*
X747225Y1796519D01*
X747295Y1796335D01*
X747357Y1796148D01*
X747408Y1796040D01*
X747450Y1795928D01*
X747543Y1795755D01*
X747627Y1795577D01*
X747692Y1795476D01*
X747748Y1795371D01*
X747862Y1795210D01*
X747968Y1795044D01*
X748045Y1794952D01*
X748114Y1794855D01*
X748284Y1794667D01*
X748373Y1794559D01*
X748416Y1794520D01*
X748465Y1794465D01*
X751465Y1791465D01*
X751554Y1791386D01*
X751638Y1791300D01*
X751792Y1791177D01*
X751939Y1791047D01*
X752038Y1790980D01*
X752131Y1790906D01*
X752300Y1790803D01*
X752463Y1790693D01*
X752569Y1790639D01*
X752671Y1790576D01*
X752851Y1790496D01*
X753026Y1790407D01*
X753139Y1790367D01*
X753248Y1790318D01*
X753436Y1790261D01*
X753622Y1790195D01*
X753738Y1790169D01*
X753853Y1790134D01*
X754047Y1790101D01*
X754239Y1790059D01*
X754358Y1790048D01*
X754476Y1790028D01*
X754729Y1790015D01*
X754869Y1790002D01*
X754927Y1790005D01*
X755000Y1790001D01*
X808000Y1790001D01*
X808185Y1790012D01*
G37*
G36*
X808185Y1330012D02*
X808185Y1330012D01*
X808370Y1330014D01*
X808500Y1330032D01*
X808631Y1330041D01*
X808812Y1330076D01*
X808996Y1330101D01*
X809122Y1330135D01*
X809252Y1330160D01*
X809428Y1330218D01*
X809606Y1330266D01*
X809727Y1330316D01*
X809852Y1330357D01*
X810020Y1330436D01*
X810190Y1330506D01*
X810305Y1330571D01*
X810423Y1330627D01*
X810579Y1330727D01*
X810740Y1330819D01*
X810845Y1330897D01*
X810956Y1330968D01*
X811098Y1331087D01*
X811246Y1331198D01*
X811340Y1331289D01*
X811441Y1331373D01*
X811567Y1331509D01*
X811700Y1331638D01*
X811782Y1331740D01*
X811871Y1331837D01*
X811979Y1331987D01*
X812094Y1332131D01*
X812163Y1332244D01*
X812239Y1332350D01*
X812327Y1332513D01*
X812424Y1332671D01*
X812477Y1332791D01*
X812540Y1332906D01*
X812606Y1333079D01*
X812682Y1333248D01*
X812720Y1333373D01*
X812768Y1333496D01*
X812812Y1333676D01*
X812866Y1333853D01*
X812888Y1333982D01*
X812919Y1334110D01*
X812941Y1334293D01*
X812972Y1334476D01*
X812980Y1334629D01*
X812992Y1334737D01*
X812991Y1334846D01*
X812999Y1335000D01*
X812999Y1357000D01*
X812988Y1357185D01*
X812986Y1357370D01*
X812968Y1357500D01*
X812959Y1357631D01*
X812924Y1357812D01*
X812899Y1357996D01*
X812865Y1358122D01*
X812840Y1358252D01*
X812782Y1358428D01*
X812734Y1358606D01*
X812684Y1358727D01*
X812643Y1358852D01*
X812564Y1359020D01*
X812494Y1359190D01*
X812429Y1359305D01*
X812373Y1359423D01*
X812273Y1359579D01*
X812182Y1359740D01*
X812103Y1359845D01*
X812032Y1359956D01*
X811913Y1360098D01*
X811802Y1360246D01*
X811711Y1360340D01*
X811627Y1360441D01*
X811491Y1360567D01*
X811362Y1360700D01*
X811260Y1360782D01*
X811163Y1360871D01*
X811013Y1360979D01*
X810869Y1361094D01*
X810756Y1361163D01*
X810650Y1361239D01*
X810487Y1361327D01*
X810329Y1361424D01*
X810209Y1361477D01*
X810094Y1361540D01*
X809921Y1361606D01*
X809752Y1361682D01*
X809627Y1361720D01*
X809504Y1361768D01*
X809324Y1361812D01*
X809147Y1361866D01*
X809018Y1361888D01*
X808890Y1361919D01*
X808707Y1361941D01*
X808524Y1361972D01*
X808371Y1361980D01*
X808263Y1361992D01*
X808154Y1361991D01*
X808000Y1361999D01*
X752000Y1361999D01*
X751815Y1361988D01*
X751630Y1361986D01*
X751500Y1361968D01*
X751369Y1361959D01*
X751188Y1361924D01*
X751004Y1361899D01*
X750878Y1361865D01*
X750748Y1361840D01*
X750572Y1361782D01*
X750394Y1361734D01*
X750273Y1361684D01*
X750148Y1361643D01*
X749980Y1361564D01*
X749810Y1361494D01*
X749695Y1361429D01*
X749577Y1361373D01*
X749421Y1361273D01*
X749260Y1361182D01*
X749155Y1361103D01*
X749044Y1361032D01*
X748902Y1360913D01*
X748754Y1360802D01*
X748660Y1360711D01*
X748559Y1360627D01*
X748433Y1360491D01*
X748300Y1360362D01*
X748218Y1360260D01*
X748129Y1360163D01*
X748021Y1360013D01*
X747906Y1359869D01*
X747837Y1359756D01*
X747761Y1359650D01*
X747673Y1359487D01*
X747576Y1359329D01*
X747523Y1359209D01*
X747460Y1359094D01*
X747394Y1358921D01*
X747318Y1358752D01*
X747280Y1358627D01*
X747232Y1358504D01*
X747188Y1358324D01*
X747134Y1358147D01*
X747112Y1358018D01*
X747081Y1357890D01*
X747059Y1357707D01*
X747028Y1357524D01*
X747020Y1357371D01*
X747008Y1357263D01*
X747009Y1357154D01*
X747001Y1357000D01*
X747001Y1338000D01*
X747008Y1337881D01*
X747006Y1337762D01*
X747028Y1337566D01*
X747041Y1337369D01*
X747063Y1337252D01*
X747076Y1337133D01*
X747123Y1336942D01*
X747160Y1336748D01*
X747197Y1336635D01*
X747225Y1336519D01*
X747295Y1336335D01*
X747357Y1336148D01*
X747408Y1336040D01*
X747450Y1335928D01*
X747543Y1335755D01*
X747627Y1335577D01*
X747692Y1335476D01*
X747748Y1335371D01*
X747862Y1335210D01*
X747968Y1335044D01*
X748045Y1334952D01*
X748114Y1334855D01*
X748284Y1334667D01*
X748373Y1334559D01*
X748416Y1334520D01*
X748465Y1334465D01*
X751465Y1331465D01*
X751554Y1331386D01*
X751638Y1331300D01*
X751792Y1331177D01*
X751939Y1331047D01*
X752038Y1330980D01*
X752131Y1330906D01*
X752300Y1330803D01*
X752463Y1330693D01*
X752569Y1330639D01*
X752671Y1330576D01*
X752851Y1330496D01*
X753026Y1330407D01*
X753139Y1330367D01*
X753248Y1330318D01*
X753436Y1330261D01*
X753622Y1330195D01*
X753738Y1330169D01*
X753853Y1330134D01*
X754047Y1330101D01*
X754239Y1330059D01*
X754358Y1330048D01*
X754476Y1330028D01*
X754729Y1330015D01*
X754869Y1330002D01*
X754927Y1330005D01*
X755000Y1330001D01*
X808000Y1330001D01*
X808185Y1330012D01*
G37*
G36*
X808185Y868012D02*
X808185Y868012D01*
X808370Y868014D01*
X808500Y868032D01*
X808631Y868041D01*
X808812Y868076D01*
X808996Y868101D01*
X809122Y868135D01*
X809252Y868160D01*
X809428Y868218D01*
X809606Y868266D01*
X809727Y868316D01*
X809852Y868357D01*
X810020Y868436D01*
X810190Y868506D01*
X810305Y868571D01*
X810423Y868627D01*
X810579Y868727D01*
X810740Y868819D01*
X810845Y868897D01*
X810956Y868968D01*
X811098Y869087D01*
X811246Y869198D01*
X811340Y869289D01*
X811441Y869373D01*
X811567Y869509D01*
X811700Y869638D01*
X811782Y869740D01*
X811871Y869837D01*
X811979Y869987D01*
X812094Y870131D01*
X812163Y870244D01*
X812239Y870350D01*
X812327Y870513D01*
X812424Y870671D01*
X812477Y870791D01*
X812540Y870906D01*
X812606Y871079D01*
X812682Y871248D01*
X812720Y871373D01*
X812768Y871496D01*
X812812Y871676D01*
X812866Y871853D01*
X812888Y871982D01*
X812919Y872110D01*
X812941Y872293D01*
X812972Y872476D01*
X812980Y872629D01*
X812992Y872737D01*
X812991Y872846D01*
X812999Y873000D01*
X812999Y895000D01*
X812988Y895185D01*
X812986Y895370D01*
X812968Y895500D01*
X812959Y895631D01*
X812924Y895812D01*
X812899Y895996D01*
X812865Y896122D01*
X812840Y896252D01*
X812782Y896428D01*
X812734Y896606D01*
X812684Y896727D01*
X812643Y896852D01*
X812564Y897020D01*
X812494Y897190D01*
X812429Y897305D01*
X812373Y897423D01*
X812273Y897579D01*
X812182Y897740D01*
X812103Y897845D01*
X812032Y897956D01*
X811913Y898098D01*
X811802Y898246D01*
X811711Y898340D01*
X811627Y898441D01*
X811491Y898567D01*
X811362Y898700D01*
X811260Y898782D01*
X811163Y898871D01*
X811013Y898979D01*
X810869Y899094D01*
X810756Y899163D01*
X810650Y899239D01*
X810487Y899327D01*
X810329Y899424D01*
X810209Y899477D01*
X810094Y899540D01*
X809921Y899606D01*
X809752Y899682D01*
X809627Y899720D01*
X809504Y899768D01*
X809324Y899812D01*
X809147Y899866D01*
X809018Y899888D01*
X808890Y899919D01*
X808707Y899941D01*
X808524Y899972D01*
X808371Y899980D01*
X808263Y899992D01*
X808154Y899991D01*
X808000Y899999D01*
X752000Y899999D01*
X751815Y899988D01*
X751630Y899986D01*
X751500Y899968D01*
X751369Y899959D01*
X751188Y899924D01*
X751004Y899899D01*
X750878Y899865D01*
X750748Y899840D01*
X750572Y899782D01*
X750394Y899734D01*
X750273Y899684D01*
X750148Y899643D01*
X749980Y899564D01*
X749810Y899494D01*
X749695Y899429D01*
X749577Y899373D01*
X749421Y899273D01*
X749260Y899182D01*
X749155Y899103D01*
X749044Y899032D01*
X748902Y898913D01*
X748754Y898802D01*
X748660Y898711D01*
X748559Y898627D01*
X748433Y898491D01*
X748300Y898362D01*
X748218Y898260D01*
X748129Y898163D01*
X748021Y898013D01*
X747906Y897869D01*
X747837Y897756D01*
X747761Y897650D01*
X747673Y897487D01*
X747576Y897329D01*
X747523Y897209D01*
X747460Y897094D01*
X747394Y896921D01*
X747318Y896752D01*
X747280Y896627D01*
X747232Y896504D01*
X747188Y896324D01*
X747134Y896147D01*
X747112Y896018D01*
X747081Y895890D01*
X747059Y895707D01*
X747028Y895524D01*
X747020Y895371D01*
X747008Y895263D01*
X747009Y895154D01*
X747001Y895000D01*
X747001Y876000D01*
X747008Y875881D01*
X747006Y875762D01*
X747028Y875566D01*
X747041Y875369D01*
X747063Y875252D01*
X747076Y875133D01*
X747123Y874942D01*
X747160Y874748D01*
X747197Y874635D01*
X747225Y874519D01*
X747295Y874335D01*
X747357Y874148D01*
X747408Y874040D01*
X747450Y873928D01*
X747543Y873755D01*
X747627Y873577D01*
X747692Y873476D01*
X747748Y873371D01*
X747862Y873210D01*
X747968Y873044D01*
X748045Y872952D01*
X748114Y872855D01*
X748284Y872667D01*
X748373Y872559D01*
X748416Y872520D01*
X748465Y872465D01*
X751465Y869465D01*
X751554Y869386D01*
X751638Y869300D01*
X751792Y869177D01*
X751939Y869047D01*
X752038Y868980D01*
X752131Y868906D01*
X752300Y868803D01*
X752463Y868693D01*
X752569Y868639D01*
X752671Y868576D01*
X752851Y868496D01*
X753026Y868407D01*
X753139Y868367D01*
X753248Y868318D01*
X753436Y868261D01*
X753622Y868195D01*
X753738Y868169D01*
X753853Y868134D01*
X754047Y868101D01*
X754239Y868059D01*
X754358Y868048D01*
X754476Y868028D01*
X754729Y868015D01*
X754869Y868002D01*
X754927Y868005D01*
X755000Y868001D01*
X808000Y868001D01*
X808185Y868012D01*
G37*
G36*
X808185Y406012D02*
X808185Y406012D01*
X808370Y406014D01*
X808500Y406032D01*
X808631Y406041D01*
X808812Y406076D01*
X808996Y406101D01*
X809122Y406135D01*
X809252Y406160D01*
X809428Y406218D01*
X809606Y406266D01*
X809727Y406316D01*
X809852Y406357D01*
X810020Y406436D01*
X810190Y406506D01*
X810305Y406571D01*
X810423Y406627D01*
X810579Y406727D01*
X810740Y406819D01*
X810845Y406897D01*
X810956Y406968D01*
X811098Y407087D01*
X811246Y407198D01*
X811340Y407289D01*
X811441Y407373D01*
X811567Y407509D01*
X811700Y407638D01*
X811782Y407740D01*
X811871Y407837D01*
X811979Y407987D01*
X812094Y408131D01*
X812163Y408244D01*
X812239Y408350D01*
X812327Y408513D01*
X812424Y408671D01*
X812477Y408791D01*
X812540Y408906D01*
X812606Y409079D01*
X812682Y409248D01*
X812720Y409373D01*
X812768Y409496D01*
X812812Y409676D01*
X812866Y409853D01*
X812888Y409982D01*
X812919Y410110D01*
X812941Y410293D01*
X812972Y410476D01*
X812980Y410629D01*
X812992Y410737D01*
X812991Y410846D01*
X812999Y411000D01*
X812999Y433000D01*
X812988Y433185D01*
X812986Y433370D01*
X812968Y433500D01*
X812959Y433631D01*
X812924Y433812D01*
X812899Y433996D01*
X812865Y434122D01*
X812840Y434252D01*
X812782Y434428D01*
X812734Y434606D01*
X812684Y434727D01*
X812643Y434852D01*
X812564Y435020D01*
X812494Y435190D01*
X812429Y435305D01*
X812373Y435423D01*
X812273Y435579D01*
X812182Y435740D01*
X812103Y435845D01*
X812032Y435956D01*
X811913Y436098D01*
X811802Y436246D01*
X811711Y436340D01*
X811627Y436441D01*
X811491Y436567D01*
X811362Y436700D01*
X811260Y436782D01*
X811163Y436871D01*
X811013Y436979D01*
X810869Y437094D01*
X810756Y437163D01*
X810650Y437239D01*
X810487Y437327D01*
X810329Y437424D01*
X810209Y437477D01*
X810094Y437540D01*
X809921Y437606D01*
X809752Y437682D01*
X809627Y437720D01*
X809504Y437768D01*
X809324Y437812D01*
X809147Y437866D01*
X809018Y437888D01*
X808890Y437919D01*
X808707Y437941D01*
X808524Y437972D01*
X808371Y437980D01*
X808263Y437992D01*
X808154Y437991D01*
X808000Y437999D01*
X752000Y437999D01*
X751815Y437988D01*
X751630Y437986D01*
X751500Y437968D01*
X751369Y437959D01*
X751188Y437924D01*
X751004Y437899D01*
X750878Y437865D01*
X750748Y437840D01*
X750572Y437782D01*
X750394Y437734D01*
X750273Y437684D01*
X750148Y437643D01*
X749980Y437564D01*
X749810Y437494D01*
X749695Y437429D01*
X749577Y437373D01*
X749421Y437273D01*
X749260Y437182D01*
X749155Y437103D01*
X749044Y437032D01*
X748902Y436913D01*
X748754Y436802D01*
X748660Y436711D01*
X748559Y436627D01*
X748433Y436491D01*
X748300Y436362D01*
X748218Y436260D01*
X748129Y436163D01*
X748021Y436013D01*
X747906Y435869D01*
X747837Y435756D01*
X747761Y435650D01*
X747673Y435487D01*
X747576Y435329D01*
X747523Y435209D01*
X747460Y435094D01*
X747394Y434921D01*
X747318Y434752D01*
X747280Y434627D01*
X747232Y434504D01*
X747188Y434324D01*
X747134Y434147D01*
X747112Y434018D01*
X747081Y433890D01*
X747059Y433707D01*
X747028Y433524D01*
X747020Y433371D01*
X747008Y433263D01*
X747009Y433154D01*
X747001Y433000D01*
X747001Y414000D01*
X747008Y413881D01*
X747006Y413762D01*
X747028Y413566D01*
X747041Y413369D01*
X747063Y413252D01*
X747076Y413133D01*
X747123Y412942D01*
X747160Y412748D01*
X747197Y412635D01*
X747225Y412519D01*
X747295Y412335D01*
X747357Y412148D01*
X747408Y412040D01*
X747450Y411928D01*
X747543Y411755D01*
X747627Y411577D01*
X747692Y411476D01*
X747748Y411371D01*
X747862Y411210D01*
X747968Y411044D01*
X748045Y410952D01*
X748114Y410855D01*
X748284Y410667D01*
X748373Y410559D01*
X748416Y410520D01*
X748465Y410465D01*
X751465Y407465D01*
X751554Y407386D01*
X751638Y407300D01*
X751792Y407177D01*
X751939Y407047D01*
X752038Y406980D01*
X752131Y406906D01*
X752300Y406803D01*
X752463Y406693D01*
X752569Y406639D01*
X752671Y406576D01*
X752851Y406496D01*
X753026Y406407D01*
X753139Y406367D01*
X753248Y406318D01*
X753436Y406261D01*
X753622Y406195D01*
X753738Y406169D01*
X753853Y406134D01*
X754047Y406101D01*
X754239Y406059D01*
X754358Y406048D01*
X754476Y406028D01*
X754729Y406015D01*
X754869Y406002D01*
X754927Y406005D01*
X755000Y406001D01*
X808000Y406001D01*
X808185Y406012D01*
G37*
G36*
X808185Y1732012D02*
X808185Y1732012D01*
X808370Y1732014D01*
X808500Y1732032D01*
X808631Y1732041D01*
X808812Y1732076D01*
X808996Y1732101D01*
X809122Y1732135D01*
X809252Y1732160D01*
X809428Y1732218D01*
X809606Y1732266D01*
X809727Y1732316D01*
X809852Y1732357D01*
X810020Y1732436D01*
X810190Y1732506D01*
X810305Y1732571D01*
X810423Y1732627D01*
X810579Y1732727D01*
X810740Y1732819D01*
X810845Y1732897D01*
X810956Y1732968D01*
X811098Y1733087D01*
X811246Y1733198D01*
X811340Y1733289D01*
X811441Y1733373D01*
X811567Y1733509D01*
X811700Y1733638D01*
X811782Y1733740D01*
X811871Y1733837D01*
X811979Y1733987D01*
X812094Y1734131D01*
X812163Y1734244D01*
X812239Y1734350D01*
X812327Y1734513D01*
X812424Y1734671D01*
X812477Y1734791D01*
X812540Y1734906D01*
X812606Y1735079D01*
X812682Y1735248D01*
X812720Y1735373D01*
X812768Y1735496D01*
X812812Y1735676D01*
X812866Y1735853D01*
X812888Y1735982D01*
X812919Y1736110D01*
X812941Y1736293D01*
X812972Y1736476D01*
X812980Y1736629D01*
X812992Y1736737D01*
X812991Y1736846D01*
X812999Y1737000D01*
X812999Y1755667D01*
X812988Y1755851D01*
X812986Y1756036D01*
X812968Y1756166D01*
X812959Y1756297D01*
X812924Y1756479D01*
X812899Y1756662D01*
X812865Y1756789D01*
X812840Y1756918D01*
X812782Y1757094D01*
X812734Y1757273D01*
X812684Y1757394D01*
X812643Y1757519D01*
X812564Y1757686D01*
X812494Y1757857D01*
X812429Y1757971D01*
X812373Y1758090D01*
X812273Y1758246D01*
X812182Y1758407D01*
X812103Y1758512D01*
X812032Y1758622D01*
X811913Y1758765D01*
X811802Y1758912D01*
X811711Y1759007D01*
X811627Y1759108D01*
X811491Y1759233D01*
X811362Y1759366D01*
X811260Y1759448D01*
X811163Y1759538D01*
X811013Y1759645D01*
X810869Y1759761D01*
X810756Y1759830D01*
X810650Y1759906D01*
X810487Y1759994D01*
X810329Y1760090D01*
X810209Y1760144D01*
X810094Y1760206D01*
X809921Y1760273D01*
X809752Y1760349D01*
X809627Y1760387D01*
X809504Y1760434D01*
X809324Y1760479D01*
X809147Y1760532D01*
X809018Y1760554D01*
X808890Y1760586D01*
X808707Y1760607D01*
X808524Y1760638D01*
X808371Y1760646D01*
X808263Y1760659D01*
X808154Y1760658D01*
X808000Y1760666D01*
X753000Y1760666D01*
X752815Y1760654D01*
X752630Y1760652D01*
X752500Y1760634D01*
X752369Y1760626D01*
X752188Y1760591D01*
X752004Y1760566D01*
X751878Y1760532D01*
X751748Y1760507D01*
X751572Y1760449D01*
X751394Y1760401D01*
X751273Y1760351D01*
X751148Y1760310D01*
X750980Y1760231D01*
X750810Y1760160D01*
X750695Y1760096D01*
X750577Y1760039D01*
X750421Y1759939D01*
X750260Y1759848D01*
X750155Y1759769D01*
X750044Y1759699D01*
X749902Y1759580D01*
X749754Y1759469D01*
X749660Y1759378D01*
X749559Y1759293D01*
X749433Y1759158D01*
X749300Y1759029D01*
X749218Y1758926D01*
X749129Y1758830D01*
X749021Y1758680D01*
X748906Y1758535D01*
X748837Y1758423D01*
X748761Y1758316D01*
X748673Y1758154D01*
X748576Y1757996D01*
X748523Y1757876D01*
X748460Y1757760D01*
X748394Y1757588D01*
X748318Y1757419D01*
X748280Y1757293D01*
X748232Y1757171D01*
X748188Y1756991D01*
X748134Y1756814D01*
X748112Y1756684D01*
X748081Y1756557D01*
X748059Y1756374D01*
X748028Y1756191D01*
X748020Y1756037D01*
X748008Y1755929D01*
X748009Y1755820D01*
X748001Y1755667D01*
X748001Y1737000D01*
X748012Y1736815D01*
X748014Y1736630D01*
X748032Y1736500D01*
X748041Y1736369D01*
X748076Y1736188D01*
X748101Y1736004D01*
X748135Y1735878D01*
X748160Y1735748D01*
X748218Y1735572D01*
X748266Y1735394D01*
X748316Y1735273D01*
X748357Y1735148D01*
X748436Y1734980D01*
X748506Y1734810D01*
X748571Y1734695D01*
X748627Y1734577D01*
X748727Y1734421D01*
X748819Y1734260D01*
X748897Y1734155D01*
X748968Y1734044D01*
X749087Y1733902D01*
X749198Y1733754D01*
X749289Y1733660D01*
X749373Y1733559D01*
X749509Y1733433D01*
X749638Y1733300D01*
X749740Y1733218D01*
X749837Y1733129D01*
X749987Y1733021D01*
X750131Y1732906D01*
X750244Y1732837D01*
X750350Y1732761D01*
X750513Y1732673D01*
X750671Y1732576D01*
X750791Y1732523D01*
X750906Y1732460D01*
X751079Y1732394D01*
X751248Y1732318D01*
X751373Y1732280D01*
X751496Y1732232D01*
X751676Y1732188D01*
X751853Y1732134D01*
X751982Y1732112D01*
X752110Y1732081D01*
X752293Y1732059D01*
X752476Y1732028D01*
X752629Y1732020D01*
X752737Y1732008D01*
X752846Y1732009D01*
X753000Y1732001D01*
X808000Y1732001D01*
X808185Y1732012D01*
G37*
G36*
X808185Y1272012D02*
X808185Y1272012D01*
X808370Y1272014D01*
X808500Y1272032D01*
X808631Y1272041D01*
X808812Y1272076D01*
X808996Y1272101D01*
X809122Y1272135D01*
X809252Y1272160D01*
X809428Y1272218D01*
X809606Y1272266D01*
X809727Y1272316D01*
X809852Y1272357D01*
X810020Y1272436D01*
X810190Y1272506D01*
X810305Y1272571D01*
X810423Y1272627D01*
X810579Y1272727D01*
X810740Y1272819D01*
X810845Y1272897D01*
X810956Y1272968D01*
X811098Y1273087D01*
X811246Y1273198D01*
X811340Y1273289D01*
X811441Y1273373D01*
X811567Y1273509D01*
X811700Y1273638D01*
X811782Y1273740D01*
X811871Y1273837D01*
X811979Y1273987D01*
X812094Y1274131D01*
X812163Y1274244D01*
X812239Y1274350D01*
X812327Y1274513D01*
X812424Y1274671D01*
X812477Y1274791D01*
X812540Y1274906D01*
X812606Y1275079D01*
X812682Y1275248D01*
X812720Y1275373D01*
X812768Y1275496D01*
X812812Y1275676D01*
X812866Y1275853D01*
X812888Y1275982D01*
X812919Y1276110D01*
X812941Y1276293D01*
X812972Y1276476D01*
X812980Y1276629D01*
X812992Y1276737D01*
X812991Y1276846D01*
X812999Y1277000D01*
X812999Y1295667D01*
X812988Y1295851D01*
X812986Y1296036D01*
X812968Y1296166D01*
X812959Y1296297D01*
X812924Y1296479D01*
X812899Y1296662D01*
X812865Y1296789D01*
X812840Y1296918D01*
X812782Y1297094D01*
X812734Y1297273D01*
X812684Y1297394D01*
X812643Y1297519D01*
X812564Y1297686D01*
X812494Y1297857D01*
X812429Y1297971D01*
X812373Y1298090D01*
X812273Y1298246D01*
X812182Y1298407D01*
X812103Y1298512D01*
X812032Y1298622D01*
X811913Y1298765D01*
X811802Y1298912D01*
X811711Y1299007D01*
X811627Y1299108D01*
X811491Y1299233D01*
X811362Y1299366D01*
X811260Y1299448D01*
X811163Y1299538D01*
X811013Y1299645D01*
X810869Y1299761D01*
X810756Y1299830D01*
X810650Y1299906D01*
X810487Y1299994D01*
X810329Y1300090D01*
X810209Y1300144D01*
X810094Y1300206D01*
X809921Y1300273D01*
X809752Y1300349D01*
X809627Y1300387D01*
X809504Y1300434D01*
X809324Y1300479D01*
X809147Y1300532D01*
X809018Y1300554D01*
X808890Y1300586D01*
X808707Y1300607D01*
X808524Y1300638D01*
X808371Y1300646D01*
X808263Y1300659D01*
X808154Y1300658D01*
X808000Y1300666D01*
X753000Y1300666D01*
X752815Y1300654D01*
X752630Y1300652D01*
X752500Y1300634D01*
X752369Y1300626D01*
X752188Y1300591D01*
X752004Y1300566D01*
X751878Y1300532D01*
X751748Y1300507D01*
X751572Y1300449D01*
X751394Y1300401D01*
X751273Y1300351D01*
X751148Y1300310D01*
X750980Y1300231D01*
X750810Y1300160D01*
X750695Y1300096D01*
X750577Y1300039D01*
X750421Y1299939D01*
X750260Y1299848D01*
X750155Y1299769D01*
X750044Y1299699D01*
X749902Y1299580D01*
X749754Y1299469D01*
X749660Y1299378D01*
X749559Y1299293D01*
X749433Y1299158D01*
X749300Y1299029D01*
X749218Y1298926D01*
X749129Y1298830D01*
X749021Y1298680D01*
X748906Y1298535D01*
X748837Y1298423D01*
X748761Y1298316D01*
X748673Y1298154D01*
X748576Y1297996D01*
X748523Y1297876D01*
X748460Y1297760D01*
X748394Y1297588D01*
X748318Y1297419D01*
X748280Y1297293D01*
X748232Y1297171D01*
X748188Y1296991D01*
X748134Y1296814D01*
X748112Y1296684D01*
X748081Y1296557D01*
X748059Y1296374D01*
X748028Y1296191D01*
X748020Y1296037D01*
X748008Y1295929D01*
X748009Y1295820D01*
X748001Y1295667D01*
X748001Y1277000D01*
X748012Y1276815D01*
X748014Y1276630D01*
X748032Y1276500D01*
X748041Y1276369D01*
X748076Y1276188D01*
X748101Y1276004D01*
X748135Y1275878D01*
X748160Y1275748D01*
X748218Y1275572D01*
X748266Y1275394D01*
X748316Y1275273D01*
X748357Y1275148D01*
X748436Y1274980D01*
X748506Y1274810D01*
X748571Y1274695D01*
X748627Y1274577D01*
X748727Y1274421D01*
X748819Y1274260D01*
X748897Y1274155D01*
X748968Y1274044D01*
X749087Y1273902D01*
X749198Y1273754D01*
X749289Y1273660D01*
X749373Y1273559D01*
X749509Y1273433D01*
X749638Y1273300D01*
X749740Y1273218D01*
X749837Y1273129D01*
X749987Y1273021D01*
X750131Y1272906D01*
X750244Y1272837D01*
X750350Y1272761D01*
X750513Y1272673D01*
X750671Y1272576D01*
X750791Y1272523D01*
X750906Y1272460D01*
X751079Y1272394D01*
X751248Y1272318D01*
X751373Y1272280D01*
X751496Y1272232D01*
X751676Y1272188D01*
X751853Y1272134D01*
X751982Y1272112D01*
X752110Y1272081D01*
X752293Y1272059D01*
X752476Y1272028D01*
X752629Y1272020D01*
X752737Y1272008D01*
X752846Y1272009D01*
X753000Y1272001D01*
X808000Y1272001D01*
X808185Y1272012D01*
G37*
G36*
X808185Y810012D02*
X808185Y810012D01*
X808370Y810014D01*
X808500Y810032D01*
X808631Y810041D01*
X808812Y810076D01*
X808996Y810101D01*
X809122Y810135D01*
X809252Y810160D01*
X809428Y810218D01*
X809606Y810266D01*
X809727Y810316D01*
X809852Y810357D01*
X810020Y810436D01*
X810190Y810506D01*
X810305Y810571D01*
X810423Y810627D01*
X810579Y810727D01*
X810740Y810819D01*
X810845Y810897D01*
X810956Y810968D01*
X811098Y811087D01*
X811246Y811198D01*
X811340Y811289D01*
X811441Y811373D01*
X811567Y811509D01*
X811700Y811638D01*
X811782Y811740D01*
X811871Y811837D01*
X811979Y811987D01*
X812094Y812131D01*
X812163Y812244D01*
X812239Y812350D01*
X812327Y812513D01*
X812424Y812671D01*
X812477Y812791D01*
X812540Y812906D01*
X812606Y813079D01*
X812682Y813248D01*
X812720Y813373D01*
X812768Y813496D01*
X812812Y813676D01*
X812866Y813853D01*
X812888Y813982D01*
X812919Y814110D01*
X812941Y814293D01*
X812972Y814476D01*
X812980Y814629D01*
X812992Y814737D01*
X812991Y814846D01*
X812999Y815000D01*
X812999Y833667D01*
X812988Y833851D01*
X812986Y834036D01*
X812968Y834166D01*
X812959Y834297D01*
X812924Y834479D01*
X812899Y834662D01*
X812865Y834789D01*
X812840Y834918D01*
X812782Y835094D01*
X812734Y835273D01*
X812684Y835394D01*
X812643Y835519D01*
X812564Y835686D01*
X812494Y835857D01*
X812429Y835971D01*
X812373Y836090D01*
X812273Y836246D01*
X812182Y836407D01*
X812103Y836512D01*
X812032Y836622D01*
X811913Y836765D01*
X811802Y836912D01*
X811711Y837007D01*
X811627Y837108D01*
X811491Y837233D01*
X811362Y837366D01*
X811260Y837448D01*
X811163Y837538D01*
X811013Y837645D01*
X810869Y837761D01*
X810756Y837830D01*
X810650Y837906D01*
X810487Y837994D01*
X810329Y838090D01*
X810209Y838144D01*
X810094Y838206D01*
X809921Y838273D01*
X809752Y838349D01*
X809627Y838387D01*
X809504Y838434D01*
X809324Y838479D01*
X809147Y838532D01*
X809018Y838554D01*
X808890Y838586D01*
X808707Y838607D01*
X808524Y838638D01*
X808371Y838646D01*
X808263Y838659D01*
X808154Y838658D01*
X808000Y838666D01*
X753000Y838666D01*
X752815Y838654D01*
X752630Y838652D01*
X752500Y838634D01*
X752369Y838626D01*
X752188Y838591D01*
X752004Y838566D01*
X751878Y838532D01*
X751748Y838507D01*
X751572Y838449D01*
X751394Y838401D01*
X751273Y838351D01*
X751148Y838310D01*
X750980Y838231D01*
X750810Y838160D01*
X750695Y838096D01*
X750577Y838039D01*
X750421Y837939D01*
X750260Y837848D01*
X750155Y837769D01*
X750044Y837699D01*
X749902Y837580D01*
X749754Y837469D01*
X749660Y837378D01*
X749559Y837293D01*
X749433Y837158D01*
X749300Y837029D01*
X749218Y836926D01*
X749129Y836830D01*
X749021Y836680D01*
X748906Y836535D01*
X748837Y836423D01*
X748761Y836316D01*
X748673Y836154D01*
X748576Y835996D01*
X748523Y835876D01*
X748460Y835760D01*
X748394Y835588D01*
X748318Y835419D01*
X748280Y835293D01*
X748232Y835171D01*
X748188Y834991D01*
X748134Y834814D01*
X748112Y834684D01*
X748081Y834557D01*
X748059Y834374D01*
X748028Y834191D01*
X748020Y834037D01*
X748008Y833929D01*
X748009Y833820D01*
X748001Y833667D01*
X748001Y815000D01*
X748012Y814815D01*
X748014Y814630D01*
X748032Y814500D01*
X748041Y814369D01*
X748076Y814188D01*
X748101Y814004D01*
X748135Y813878D01*
X748160Y813748D01*
X748218Y813572D01*
X748266Y813394D01*
X748316Y813273D01*
X748357Y813148D01*
X748436Y812980D01*
X748506Y812810D01*
X748571Y812695D01*
X748627Y812577D01*
X748727Y812421D01*
X748819Y812260D01*
X748897Y812155D01*
X748968Y812044D01*
X749087Y811902D01*
X749198Y811754D01*
X749289Y811660D01*
X749373Y811559D01*
X749509Y811433D01*
X749638Y811300D01*
X749740Y811218D01*
X749837Y811129D01*
X749987Y811021D01*
X750131Y810906D01*
X750244Y810837D01*
X750350Y810761D01*
X750513Y810673D01*
X750671Y810576D01*
X750791Y810523D01*
X750906Y810460D01*
X751079Y810394D01*
X751248Y810318D01*
X751373Y810280D01*
X751496Y810232D01*
X751676Y810188D01*
X751853Y810134D01*
X751982Y810112D01*
X752110Y810081D01*
X752293Y810059D01*
X752476Y810028D01*
X752629Y810020D01*
X752737Y810008D01*
X752846Y810009D01*
X753000Y810001D01*
X808000Y810001D01*
X808185Y810012D01*
G37*
G36*
X808185Y348012D02*
X808185Y348012D01*
X808370Y348014D01*
X808500Y348032D01*
X808631Y348041D01*
X808812Y348076D01*
X808996Y348101D01*
X809122Y348135D01*
X809252Y348160D01*
X809428Y348218D01*
X809606Y348266D01*
X809727Y348316D01*
X809852Y348357D01*
X810020Y348436D01*
X810190Y348506D01*
X810305Y348571D01*
X810423Y348627D01*
X810579Y348727D01*
X810740Y348819D01*
X810845Y348897D01*
X810956Y348968D01*
X811098Y349087D01*
X811246Y349198D01*
X811340Y349289D01*
X811441Y349373D01*
X811567Y349509D01*
X811700Y349638D01*
X811782Y349740D01*
X811871Y349837D01*
X811979Y349987D01*
X812094Y350131D01*
X812163Y350244D01*
X812239Y350350D01*
X812327Y350513D01*
X812424Y350671D01*
X812477Y350791D01*
X812540Y350906D01*
X812606Y351079D01*
X812682Y351248D01*
X812720Y351373D01*
X812768Y351496D01*
X812812Y351676D01*
X812866Y351853D01*
X812888Y351982D01*
X812919Y352110D01*
X812941Y352293D01*
X812972Y352476D01*
X812980Y352629D01*
X812992Y352737D01*
X812991Y352846D01*
X812999Y353000D01*
X812999Y371667D01*
X812988Y371851D01*
X812986Y372036D01*
X812968Y372166D01*
X812959Y372297D01*
X812924Y372479D01*
X812899Y372662D01*
X812865Y372789D01*
X812840Y372918D01*
X812782Y373094D01*
X812734Y373273D01*
X812684Y373394D01*
X812643Y373519D01*
X812564Y373686D01*
X812494Y373857D01*
X812429Y373971D01*
X812373Y374090D01*
X812273Y374246D01*
X812182Y374407D01*
X812103Y374512D01*
X812032Y374622D01*
X811913Y374765D01*
X811802Y374912D01*
X811711Y375007D01*
X811627Y375108D01*
X811491Y375233D01*
X811362Y375366D01*
X811260Y375448D01*
X811163Y375538D01*
X811013Y375645D01*
X810869Y375761D01*
X810756Y375830D01*
X810650Y375906D01*
X810487Y375994D01*
X810329Y376090D01*
X810209Y376144D01*
X810094Y376206D01*
X809921Y376273D01*
X809752Y376349D01*
X809627Y376387D01*
X809504Y376434D01*
X809324Y376479D01*
X809147Y376532D01*
X809018Y376554D01*
X808890Y376586D01*
X808707Y376607D01*
X808524Y376638D01*
X808371Y376646D01*
X808263Y376659D01*
X808154Y376658D01*
X808000Y376666D01*
X753000Y376666D01*
X752815Y376654D01*
X752630Y376652D01*
X752500Y376634D01*
X752369Y376626D01*
X752188Y376591D01*
X752004Y376566D01*
X751878Y376532D01*
X751748Y376507D01*
X751572Y376449D01*
X751394Y376401D01*
X751273Y376351D01*
X751148Y376310D01*
X750980Y376231D01*
X750810Y376160D01*
X750695Y376096D01*
X750577Y376039D01*
X750421Y375939D01*
X750260Y375848D01*
X750155Y375769D01*
X750044Y375699D01*
X749902Y375580D01*
X749754Y375469D01*
X749660Y375378D01*
X749559Y375293D01*
X749433Y375158D01*
X749300Y375029D01*
X749218Y374926D01*
X749129Y374830D01*
X749021Y374680D01*
X748906Y374535D01*
X748837Y374423D01*
X748761Y374316D01*
X748673Y374154D01*
X748576Y373996D01*
X748523Y373876D01*
X748460Y373760D01*
X748394Y373588D01*
X748318Y373419D01*
X748280Y373293D01*
X748232Y373171D01*
X748188Y372991D01*
X748134Y372814D01*
X748112Y372684D01*
X748081Y372557D01*
X748059Y372374D01*
X748028Y372191D01*
X748020Y372037D01*
X748008Y371929D01*
X748009Y371820D01*
X748001Y371667D01*
X748001Y353000D01*
X748012Y352815D01*
X748014Y352630D01*
X748032Y352500D01*
X748041Y352369D01*
X748076Y352188D01*
X748101Y352004D01*
X748135Y351878D01*
X748160Y351748D01*
X748218Y351572D01*
X748266Y351394D01*
X748316Y351273D01*
X748357Y351148D01*
X748436Y350980D01*
X748506Y350810D01*
X748571Y350695D01*
X748627Y350577D01*
X748727Y350421D01*
X748819Y350260D01*
X748897Y350155D01*
X748968Y350044D01*
X749087Y349902D01*
X749198Y349754D01*
X749289Y349660D01*
X749373Y349559D01*
X749509Y349433D01*
X749638Y349300D01*
X749740Y349218D01*
X749837Y349129D01*
X749987Y349021D01*
X750131Y348906D01*
X750244Y348837D01*
X750350Y348761D01*
X750513Y348673D01*
X750671Y348576D01*
X750791Y348523D01*
X750906Y348460D01*
X751079Y348394D01*
X751248Y348318D01*
X751373Y348280D01*
X751496Y348232D01*
X751676Y348188D01*
X751853Y348134D01*
X751982Y348112D01*
X752110Y348081D01*
X752293Y348059D01*
X752476Y348028D01*
X752629Y348020D01*
X752737Y348008D01*
X752846Y348009D01*
X753000Y348001D01*
X808000Y348001D01*
X808185Y348012D01*
G37*
D10*
X1230000Y70000D03*
X1230000Y1930000D03*
X70000Y70000D03*
X70000Y1550000D03*
X750000Y1930000D03*
D11*
X272500Y1965000D03*
D12*
X315600Y1141900D03*
X315600Y1160900D03*
D13*
X558500Y1782600D03*
X539500Y1782600D03*
D12*
X180500Y1747600D03*
X180500Y1728600D03*
X181600Y1675300D03*
X181600Y1694300D03*
D14*
X247300Y1769480D02*
X247300Y1784720D01*
X272700Y1784720D02*
X272700Y1769480D01*
X298100Y1769480D02*
X298100Y1784720D01*
D15*
X356865Y1092627D03*
X356865Y1097627D03*
X356865Y1102627D03*
X356865Y1107627D03*
D16*
X347865Y1116627D03*
X342865Y1116627D03*
X337865Y1116627D03*
X332865Y1116627D03*
D15*
X323865Y1107627D03*
X323865Y1102627D03*
X323865Y1097627D03*
X323865Y1092627D03*
D16*
X332865Y1083627D03*
X337865Y1083627D03*
X342865Y1083627D03*
X347865Y1083627D03*
D17*
X144458Y1763953D03*
X131758Y1763953D03*
X119058Y1763953D03*
X106358Y1763953D03*
X93658Y1763953D03*
X80958Y1763953D03*
X68258Y1763953D03*
X55558Y1763953D03*
X42858Y1763953D03*
X30158Y1763953D03*
X30158Y1670953D03*
X42858Y1670953D03*
X55558Y1670953D03*
X68258Y1670953D03*
X80958Y1670953D03*
X93658Y1670953D03*
X106358Y1670953D03*
X119058Y1670953D03*
X131758Y1670953D03*
X144458Y1670953D03*
D18*
X448154Y1300550D03*
X448154Y1313250D03*
X448154Y1325950D03*
X448154Y1338650D03*
X399046Y1338650D03*
X399046Y1325950D03*
X399046Y1313250D03*
X399046Y1300550D03*
D12*
X482800Y1317800D03*
X482800Y1336800D03*
D13*
X418100Y1361900D03*
X437100Y1361900D03*
X226500Y1131600D03*
X207500Y1131600D03*
X226500Y1171800D03*
X207500Y1171800D03*
D12*
X262600Y891200D03*
X262600Y872200D03*
D19*
X282800Y927300D03*
X287800Y927300D03*
X292800Y927300D03*
X297800Y927300D03*
X302800Y927300D03*
X307800Y927300D03*
X312800Y927300D03*
X317800Y927300D03*
X322800Y927300D03*
X327800Y927300D03*
X332800Y927300D03*
X337800Y927300D03*
X342800Y927300D03*
X347800Y927300D03*
X352800Y927300D03*
X357800Y927300D03*
X362800Y927300D03*
X367800Y927300D03*
X372800Y927300D03*
X372800Y990300D03*
X367800Y990300D03*
X362800Y990300D03*
X357800Y990300D03*
X352800Y990300D03*
X347800Y990300D03*
X342800Y990300D03*
X337800Y990300D03*
X332800Y990300D03*
X327800Y990300D03*
X322800Y990300D03*
X317800Y990300D03*
X312800Y990300D03*
X307800Y990300D03*
X302800Y990300D03*
X297800Y990300D03*
X292800Y990300D03*
X287800Y990300D03*
X282800Y990300D03*
D20*
X266500Y1065100D03*
X257000Y1065100D03*
X247500Y1065100D03*
X247500Y1039100D03*
X266500Y1039100D03*
D12*
X217200Y1038900D03*
X217200Y1057900D03*
D13*
X415100Y1579000D03*
X396100Y1579000D03*
X291700Y1739900D03*
X272700Y1739900D03*
X397000Y1486500D03*
X416000Y1486500D03*
D21*
X449800Y878800D03*
X468800Y878800D03*
D13*
X426600Y893400D03*
X407600Y893400D03*
D14*
X456800Y1411880D02*
X456800Y1427120D01*
X431400Y1427120D02*
X431400Y1411880D01*
X406000Y1411880D02*
X406000Y1427120D01*
D18*
X381846Y1546650D03*
X381846Y1533950D03*
X381846Y1521250D03*
X381846Y1508550D03*
X430954Y1508550D03*
X430954Y1521250D03*
X430954Y1533950D03*
X430954Y1546650D03*
D22*
X274520Y1643200D03*
X246080Y1643200D03*
D13*
X268800Y1675700D03*
X249800Y1675700D03*
D23*
X98321Y1832459D03*
X111021Y1857859D03*
X123721Y1832459D03*
X85621Y1857859D03*
X136421Y1857859D03*
X72921Y1832459D03*
X60221Y1857859D03*
X47521Y1832459D03*
D24*
X149121Y1921359D03*
X34821Y1921359D03*
D25*
X403000Y1700000D03*
X403000Y1780000D03*
D26*
X447000Y1632000D03*
X367000Y1632000D03*
D27*
X528350Y1742000D03*
X485650Y1742000D03*
D28*
X207000Y1823350D03*
X207000Y1780650D03*
X230000Y886350D03*
X230000Y843650D03*
X306000Y885350D03*
X306000Y842650D03*
D25*
X497000Y1485000D03*
X497000Y1565000D03*
D29*
X456300Y998100D03*
X456300Y972700D03*
X456300Y947300D03*
X456300Y921900D03*
X481700Y998100D03*
X481700Y972700D03*
X481700Y947300D03*
X481700Y921900D03*
D13*
X412500Y924000D03*
X393500Y924000D03*
X416500Y1006000D03*
X397500Y1006000D03*
X390500Y1037000D03*
X371500Y1037000D03*
D21*
X410500Y947000D03*
X429500Y947000D03*
X413500Y982000D03*
X432500Y982000D03*
X413500Y1037000D03*
X432500Y1037000D03*
D29*
X437300Y1147100D03*
X437300Y1121700D03*
X437300Y1096300D03*
X437300Y1070900D03*
X462700Y1147100D03*
X462700Y1121700D03*
X462700Y1096300D03*
X462700Y1070900D03*
D30*
X484000Y1859500D03*
X442000Y1859500D03*
X442000Y1804500D03*
X484000Y1804500D03*
X526000Y1859500D03*
X526000Y1804500D03*
X568000Y1859500D03*
X568000Y1804500D03*
X610000Y1859500D03*
X610000Y1804500D03*
D11*
X610000Y1932500D03*
X442000Y1932500D03*
D12*
X715200Y1658400D03*
X715200Y1639400D03*
X713800Y1543000D03*
X713800Y1562000D03*
X672600Y1542400D03*
X672600Y1561400D03*
X626600Y1540900D03*
X626600Y1559900D03*
X1128700Y1708500D03*
X1128700Y1689500D03*
X1167400Y1708600D03*
X1167400Y1689600D03*
X1204200Y1708400D03*
X1204200Y1689400D03*
D13*
X673700Y1714400D03*
X692700Y1714400D03*
D12*
X580100Y1665900D03*
X580100Y1646900D03*
D13*
X599600Y1612400D03*
X580600Y1612400D03*
X1065800Y1502100D03*
X1046800Y1502100D03*
D12*
X1010900Y1511600D03*
X1010900Y1492600D03*
D13*
X1137900Y1571000D03*
X1118900Y1571000D03*
D12*
X1132500Y1615600D03*
X1132500Y1596600D03*
X730500Y1695700D03*
X730500Y1714700D03*
D13*
X688000Y1687600D03*
X669000Y1687600D03*
D12*
X684200Y1647700D03*
X684200Y1628700D03*
D13*
X712400Y1607500D03*
X693400Y1607500D03*
D12*
X633000Y1642800D03*
X633000Y1661800D03*
D21*
X601400Y1700200D03*
X582400Y1700200D03*
D12*
X544600Y1699300D03*
X544600Y1680300D03*
X544900Y1615600D03*
X544900Y1634600D03*
D14*
X765180Y1717090D02*
X780420Y1717090D01*
X815980Y1700072D02*
X831220Y1700072D01*
X780420Y1683054D02*
X765180Y1683054D01*
X815980Y1666036D02*
X831220Y1666036D01*
X780420Y1649018D02*
X765180Y1649018D01*
X815980Y1632000D02*
X831220Y1632000D01*
X780420Y1614982D02*
X765180Y1614982D01*
X815980Y1597964D02*
X831220Y1597964D01*
X780420Y1580946D02*
X765180Y1580946D01*
X815980Y1563928D02*
X831220Y1563928D01*
X780420Y1546910D02*
X765180Y1546910D01*
X1079580Y1546910D02*
X1094820Y1546910D01*
X1044020Y1563928D02*
X1028780Y1563928D01*
X1079580Y1580946D02*
X1094820Y1580946D01*
X1044020Y1597964D02*
X1028780Y1597964D01*
X1079580Y1614982D02*
X1094820Y1614982D01*
X1044020Y1632000D02*
X1028780Y1632000D01*
X1079580Y1649018D02*
X1094820Y1649018D01*
X1044020Y1666036D02*
X1028780Y1666036D01*
X1079580Y1683054D02*
X1094820Y1683054D01*
X1044020Y1700072D02*
X1028780Y1700072D01*
X1079580Y1717090D02*
X1094820Y1717090D01*
D31*
X789950Y1482454D03*
X777250Y1482454D03*
X764550Y1482454D03*
X751850Y1482454D03*
X751850Y1433346D03*
X764550Y1433346D03*
X777250Y1433346D03*
X789950Y1433346D03*
D12*
X728000Y1449100D03*
X728000Y1468100D03*
D30*
X1160000Y1782000D03*
X1160000Y1824000D03*
X1105000Y1824000D03*
X1105000Y1782000D03*
D11*
X1236500Y1804000D03*
D32*
X773950Y1749400D03*
X773950Y1800200D03*
D33*
X694550Y1774800D03*
D34*
X930000Y1752650D03*
X930000Y1511350D03*
D12*
X715200Y1198400D03*
X715200Y1179400D03*
X713800Y1083000D03*
X713800Y1102000D03*
X672600Y1082400D03*
X672600Y1101400D03*
X626600Y1080900D03*
X626600Y1099900D03*
X1128700Y1248500D03*
X1128700Y1229500D03*
X1167400Y1248600D03*
X1167400Y1229600D03*
X1204200Y1248400D03*
X1204200Y1229400D03*
D13*
X673700Y1254400D03*
X692700Y1254400D03*
D12*
X580100Y1205900D03*
X580100Y1186900D03*
D13*
X599600Y1152400D03*
X580600Y1152400D03*
X1065800Y1042100D03*
X1046800Y1042100D03*
D12*
X1010900Y1051600D03*
X1010900Y1032600D03*
D13*
X1137900Y1111000D03*
X1118900Y1111000D03*
D12*
X1132500Y1155600D03*
X1132500Y1136600D03*
X730500Y1235700D03*
X730500Y1254700D03*
D13*
X688000Y1227600D03*
X669000Y1227600D03*
D12*
X684200Y1187700D03*
X684200Y1168700D03*
D13*
X712400Y1147500D03*
X693400Y1147500D03*
D12*
X633000Y1182800D03*
X633000Y1201800D03*
D21*
X601400Y1240200D03*
X582400Y1240200D03*
D12*
X544600Y1239300D03*
X544600Y1220300D03*
X544900Y1155600D03*
X544900Y1174600D03*
D14*
X765180Y1257090D02*
X780420Y1257090D01*
X815980Y1240072D02*
X831220Y1240072D01*
X780420Y1223054D02*
X765180Y1223054D01*
X815980Y1206036D02*
X831220Y1206036D01*
X780420Y1189018D02*
X765180Y1189018D01*
X815980Y1172000D02*
X831220Y1172000D01*
X780420Y1154982D02*
X765180Y1154982D01*
X815980Y1137964D02*
X831220Y1137964D01*
X780420Y1120946D02*
X765180Y1120946D01*
X815980Y1103928D02*
X831220Y1103928D01*
X780420Y1086910D02*
X765180Y1086910D01*
X1079580Y1086910D02*
X1094820Y1086910D01*
X1044020Y1103928D02*
X1028780Y1103928D01*
X1079580Y1120946D02*
X1094820Y1120946D01*
X1044020Y1137964D02*
X1028780Y1137964D01*
X1079580Y1154982D02*
X1094820Y1154982D01*
X1044020Y1172000D02*
X1028780Y1172000D01*
X1079580Y1189018D02*
X1094820Y1189018D01*
X1044020Y1206036D02*
X1028780Y1206036D01*
X1079580Y1223054D02*
X1094820Y1223054D01*
X1044020Y1240072D02*
X1028780Y1240072D01*
X1079580Y1257090D02*
X1094820Y1257090D01*
D31*
X789950Y1022454D03*
X777250Y1022454D03*
X764550Y1022454D03*
X751850Y1022454D03*
X751850Y973346D03*
X764550Y973346D03*
X777250Y973346D03*
X789950Y973346D03*
D12*
X728000Y989100D03*
X728000Y1008100D03*
D30*
X1160000Y1322000D03*
X1160000Y1364000D03*
X1105000Y1364000D03*
X1105000Y1322000D03*
D11*
X1236500Y1344000D03*
D32*
X773950Y1289400D03*
X773950Y1340200D03*
D33*
X694550Y1314800D03*
D34*
X930000Y1292650D03*
X930000Y1051350D03*
D12*
X715200Y736400D03*
X715200Y717400D03*
X713800Y621000D03*
X713800Y640000D03*
X672600Y620400D03*
X672600Y639400D03*
X626600Y618900D03*
X626600Y637900D03*
X1128700Y786500D03*
X1128700Y767500D03*
X1167400Y786600D03*
X1167400Y767600D03*
X1204200Y786400D03*
X1204200Y767400D03*
D13*
X673700Y792400D03*
X692700Y792400D03*
D12*
X580100Y743900D03*
X580100Y724900D03*
D13*
X599600Y690400D03*
X580600Y690400D03*
X1065800Y580100D03*
X1046800Y580100D03*
D12*
X1010900Y589600D03*
X1010900Y570600D03*
D13*
X1137900Y649000D03*
X1118900Y649000D03*
D12*
X1132500Y693600D03*
X1132500Y674600D03*
X730500Y773700D03*
X730500Y792700D03*
D13*
X688000Y765600D03*
X669000Y765600D03*
D12*
X684200Y725700D03*
X684200Y706700D03*
D13*
X712400Y685500D03*
X693400Y685500D03*
D12*
X633000Y720800D03*
X633000Y739800D03*
D21*
X601400Y778200D03*
X582400Y778200D03*
D12*
X544600Y777300D03*
X544600Y758300D03*
X544900Y693600D03*
X544900Y712600D03*
D14*
X765180Y795090D02*
X780420Y795090D01*
X815980Y778072D02*
X831220Y778072D01*
X780420Y761054D02*
X765180Y761054D01*
X815980Y744036D02*
X831220Y744036D01*
X780420Y727018D02*
X765180Y727018D01*
X815980Y710000D02*
X831220Y710000D01*
X780420Y692982D02*
X765180Y692982D01*
X815980Y675964D02*
X831220Y675964D01*
X780420Y658946D02*
X765180Y658946D01*
X815980Y641928D02*
X831220Y641928D01*
X780420Y624910D02*
X765180Y624910D01*
X1079580Y624910D02*
X1094820Y624910D01*
X1044020Y641928D02*
X1028780Y641928D01*
X1079580Y658946D02*
X1094820Y658946D01*
X1044020Y675964D02*
X1028780Y675964D01*
X1079580Y692982D02*
X1094820Y692982D01*
X1044020Y710000D02*
X1028780Y710000D01*
X1079580Y727018D02*
X1094820Y727018D01*
X1044020Y744036D02*
X1028780Y744036D01*
X1079580Y761054D02*
X1094820Y761054D01*
X1044020Y778072D02*
X1028780Y778072D01*
X1079580Y795090D02*
X1094820Y795090D01*
D31*
X789950Y560454D03*
X777250Y560454D03*
X764550Y560454D03*
X751850Y560454D03*
X751850Y511346D03*
X764550Y511346D03*
X777250Y511346D03*
X789950Y511346D03*
D12*
X728000Y527100D03*
X728000Y546100D03*
D30*
X1160000Y860000D03*
X1160000Y902000D03*
X1105000Y902000D03*
X1105000Y860000D03*
D11*
X1236500Y882000D03*
D32*
X773950Y827400D03*
X773950Y878200D03*
D33*
X694550Y852800D03*
D34*
X930000Y830650D03*
X930000Y589350D03*
D12*
X715200Y274400D03*
X715200Y255400D03*
X713800Y159000D03*
X713800Y178000D03*
X672600Y158400D03*
X672600Y177400D03*
X626600Y156900D03*
X626600Y175900D03*
X1128700Y324500D03*
X1128700Y305500D03*
X1167400Y324600D03*
X1167400Y305600D03*
X1204200Y324400D03*
X1204200Y305400D03*
D13*
X673700Y330400D03*
X692700Y330400D03*
D12*
X580100Y281900D03*
X580100Y262900D03*
D13*
X599600Y228400D03*
X580600Y228400D03*
X1065800Y118100D03*
X1046800Y118100D03*
D12*
X1010900Y127600D03*
X1010900Y108600D03*
D13*
X1137900Y187000D03*
X1118900Y187000D03*
D12*
X1132500Y231600D03*
X1132500Y212600D03*
X730500Y311700D03*
X730500Y330700D03*
D13*
X688000Y303600D03*
X669000Y303600D03*
D12*
X684200Y263700D03*
X684200Y244700D03*
D13*
X712400Y223500D03*
X693400Y223500D03*
D12*
X633000Y258800D03*
X633000Y277800D03*
D21*
X601400Y316200D03*
X582400Y316200D03*
D12*
X544600Y315300D03*
X544600Y296300D03*
X544900Y231600D03*
X544900Y250600D03*
D14*
X765180Y333090D02*
X780420Y333090D01*
X815980Y316072D02*
X831220Y316072D01*
X780420Y299054D02*
X765180Y299054D01*
X815980Y282036D02*
X831220Y282036D01*
X780420Y265018D02*
X765180Y265018D01*
X815980Y248000D02*
X831220Y248000D01*
X780420Y230982D02*
X765180Y230982D01*
X815980Y213964D02*
X831220Y213964D01*
X780420Y196946D02*
X765180Y196946D01*
X815980Y179928D02*
X831220Y179928D01*
X780420Y162910D02*
X765180Y162910D01*
X1079580Y162910D02*
X1094820Y162910D01*
X1044020Y179928D02*
X1028780Y179928D01*
X1079580Y196946D02*
X1094820Y196946D01*
X1044020Y213964D02*
X1028780Y213964D01*
X1079580Y230982D02*
X1094820Y230982D01*
X1044020Y248000D02*
X1028780Y248000D01*
X1079580Y265018D02*
X1094820Y265018D01*
X1044020Y282036D02*
X1028780Y282036D01*
X1079580Y299054D02*
X1094820Y299054D01*
X1044020Y316072D02*
X1028780Y316072D01*
X1079580Y333090D02*
X1094820Y333090D01*
D31*
X789950Y98454D03*
X777250Y98454D03*
X764550Y98454D03*
X751850Y98454D03*
X751850Y49346D03*
X764550Y49346D03*
X777250Y49346D03*
X789950Y49346D03*
D12*
X728000Y65100D03*
X728000Y84100D03*
D30*
X1160000Y398000D03*
X1160000Y440000D03*
X1105000Y440000D03*
X1105000Y398000D03*
D11*
X1236500Y420000D03*
D32*
X773950Y365400D03*
X773950Y416200D03*
D33*
X694550Y390800D03*
D34*
X930000Y368650D03*
X930000Y127350D03*
D13*
X227500Y1213000D03*
X208500Y1213000D03*
X228500Y1251000D03*
X209500Y1251000D03*
X335500Y886000D03*
X354500Y886000D03*
X318500Y1024000D03*
X337500Y1024000D03*
D12*
X258000Y973500D03*
X258000Y954500D03*
D35*
X431700Y642900D03*
X431700Y668300D03*
X431700Y693700D03*
X431700Y719100D03*
X406300Y642900D03*
X406300Y668300D03*
X406300Y693700D03*
X406300Y719100D03*
M02*
