G04 EAGLE Gerber RS-274X export*
G75*
%MOMM*%
%FSLAX34Y34*%
%LPD*%
%INEAGLE Copper Layer 15*%
%IPPOS*%
%AMOC8*
5,1,8,0,0,1.08239X$1,22.5*%
G01*
%ADD10C,1.524000*%
%ADD11C,1.408000*%
%ADD12C,2.100000*%
%ADD13C,0.756400*%
%ADD14C,0.300000*%
%ADD15C,0.700000*%
%ADD16C,1.000000*%

G36*
X1149010Y1521004D02*
X1149010Y1521004D01*
X1149085Y1521001D01*
X1208085Y1522001D01*
X1208227Y1522013D01*
X1208370Y1522014D01*
X1208542Y1522038D01*
X1208715Y1522052D01*
X1208854Y1522081D01*
X1208996Y1522101D01*
X1209163Y1522146D01*
X1209333Y1522182D01*
X1209468Y1522229D01*
X1209606Y1522266D01*
X1209766Y1522332D01*
X1209931Y1522389D01*
X1210059Y1522452D01*
X1210190Y1522506D01*
X1210342Y1522592D01*
X1210497Y1522669D01*
X1210616Y1522748D01*
X1210740Y1522819D01*
X1210879Y1522923D01*
X1211024Y1523019D01*
X1211132Y1523112D01*
X1211246Y1523198D01*
X1211370Y1523318D01*
X1211502Y1523432D01*
X1211597Y1523538D01*
X1211700Y1523638D01*
X1211808Y1523773D01*
X1211924Y1523903D01*
X1212005Y1524020D01*
X1212094Y1524131D01*
X1212185Y1524280D01*
X1212284Y1524423D01*
X1212349Y1524549D01*
X1212424Y1524671D01*
X1212495Y1524829D01*
X1212575Y1524984D01*
X1212624Y1525118D01*
X1212682Y1525248D01*
X1212733Y1525414D01*
X1212792Y1525577D01*
X1212824Y1525716D01*
X1212866Y1525853D01*
X1212895Y1526024D01*
X1212934Y1526193D01*
X1212948Y1526335D01*
X1212972Y1526476D01*
X1212983Y1526689D01*
X1212996Y1526822D01*
X1212994Y1526899D01*
X1212999Y1527000D01*
X1212999Y1793834D01*
X1212994Y1793910D01*
X1212997Y1793985D01*
X1212975Y1794225D01*
X1212959Y1794465D01*
X1212945Y1794539D01*
X1212938Y1794615D01*
X1212861Y1794979D01*
X1212840Y1795086D01*
X1212834Y1795105D01*
X1212829Y1795128D01*
X1211339Y1800688D01*
X1211339Y1807312D01*
X1212829Y1812872D01*
X1212844Y1812946D01*
X1212866Y1813018D01*
X1212906Y1813256D01*
X1212954Y1813492D01*
X1212959Y1813567D01*
X1212972Y1813641D01*
X1212991Y1814014D01*
X1212999Y1814122D01*
X1212998Y1814142D01*
X1212999Y1814166D01*
X1212999Y1857000D01*
X1212988Y1857185D01*
X1212986Y1857370D01*
X1212968Y1857500D01*
X1212959Y1857631D01*
X1212924Y1857812D01*
X1212899Y1857996D01*
X1212865Y1858122D01*
X1212840Y1858252D01*
X1212782Y1858428D01*
X1212734Y1858606D01*
X1212684Y1858727D01*
X1212643Y1858852D01*
X1212564Y1859020D01*
X1212494Y1859190D01*
X1212429Y1859305D01*
X1212373Y1859423D01*
X1212273Y1859579D01*
X1212182Y1859740D01*
X1212103Y1859845D01*
X1212032Y1859956D01*
X1211913Y1860098D01*
X1211802Y1860246D01*
X1211711Y1860340D01*
X1211627Y1860441D01*
X1211491Y1860567D01*
X1211362Y1860700D01*
X1211260Y1860782D01*
X1211163Y1860871D01*
X1211013Y1860979D01*
X1210869Y1861094D01*
X1210756Y1861163D01*
X1210650Y1861239D01*
X1210487Y1861327D01*
X1210329Y1861424D01*
X1210209Y1861477D01*
X1210094Y1861540D01*
X1209921Y1861606D01*
X1209752Y1861682D01*
X1209627Y1861720D01*
X1209504Y1861768D01*
X1209324Y1861812D01*
X1209147Y1861866D01*
X1209018Y1861888D01*
X1208890Y1861919D01*
X1208707Y1861941D01*
X1208524Y1861972D01*
X1208371Y1861980D01*
X1208263Y1861992D01*
X1208154Y1861991D01*
X1208000Y1861999D01*
X1133000Y1861999D01*
X1132815Y1861988D01*
X1132630Y1861986D01*
X1132500Y1861968D01*
X1132369Y1861959D01*
X1132188Y1861924D01*
X1132004Y1861899D01*
X1131878Y1861865D01*
X1131748Y1861840D01*
X1131572Y1861782D01*
X1131394Y1861734D01*
X1131273Y1861684D01*
X1131148Y1861643D01*
X1130980Y1861564D01*
X1130810Y1861494D01*
X1130695Y1861429D01*
X1130577Y1861373D01*
X1130421Y1861273D01*
X1130260Y1861182D01*
X1130155Y1861103D01*
X1130044Y1861032D01*
X1129902Y1860913D01*
X1129754Y1860802D01*
X1129660Y1860711D01*
X1129559Y1860627D01*
X1129433Y1860491D01*
X1129300Y1860362D01*
X1129218Y1860260D01*
X1129129Y1860163D01*
X1129021Y1860013D01*
X1128906Y1859869D01*
X1128837Y1859756D01*
X1128761Y1859650D01*
X1128673Y1859487D01*
X1128576Y1859329D01*
X1128523Y1859209D01*
X1128460Y1859094D01*
X1128394Y1858921D01*
X1128318Y1858752D01*
X1128280Y1858627D01*
X1128232Y1858504D01*
X1128188Y1858324D01*
X1128134Y1858147D01*
X1128112Y1858018D01*
X1128081Y1857890D01*
X1128059Y1857707D01*
X1128028Y1857524D01*
X1128020Y1857371D01*
X1128008Y1857263D01*
X1128009Y1857154D01*
X1128001Y1857000D01*
X1128001Y1580999D01*
X1118000Y1580999D01*
X1117881Y1580992D01*
X1117762Y1580994D01*
X1117566Y1580972D01*
X1117369Y1580959D01*
X1117252Y1580937D01*
X1117133Y1580924D01*
X1116942Y1580877D01*
X1116748Y1580840D01*
X1116635Y1580803D01*
X1116519Y1580775D01*
X1116335Y1580705D01*
X1116148Y1580643D01*
X1116040Y1580592D01*
X1115928Y1580550D01*
X1115755Y1580457D01*
X1115577Y1580373D01*
X1115476Y1580308D01*
X1115371Y1580252D01*
X1115210Y1580138D01*
X1115044Y1580032D01*
X1114952Y1579955D01*
X1114855Y1579886D01*
X1114667Y1579716D01*
X1114559Y1579627D01*
X1114554Y1579621D01*
X1114552Y1579619D01*
X1114516Y1579581D01*
X1114465Y1579535D01*
X1105465Y1570535D01*
X1105386Y1570446D01*
X1105300Y1570362D01*
X1105177Y1570208D01*
X1105047Y1570061D01*
X1104980Y1569962D01*
X1104906Y1569869D01*
X1104803Y1569701D01*
X1104693Y1569537D01*
X1104639Y1569431D01*
X1104576Y1569329D01*
X1104496Y1569149D01*
X1104407Y1568974D01*
X1104367Y1568861D01*
X1104318Y1568752D01*
X1104261Y1568564D01*
X1104195Y1568378D01*
X1104169Y1568262D01*
X1104159Y1568229D01*
X1102929Y1566999D01*
X1066071Y1566999D01*
X1064535Y1568535D01*
X1064446Y1568614D01*
X1064362Y1568700D01*
X1064208Y1568823D01*
X1064061Y1568953D01*
X1063962Y1569020D01*
X1063869Y1569094D01*
X1063701Y1569197D01*
X1063537Y1569307D01*
X1063431Y1569361D01*
X1063329Y1569424D01*
X1063149Y1569504D01*
X1062974Y1569593D01*
X1062861Y1569633D01*
X1062752Y1569682D01*
X1062564Y1569739D01*
X1062378Y1569806D01*
X1062262Y1569831D01*
X1062147Y1569866D01*
X1061953Y1569899D01*
X1061761Y1569941D01*
X1061642Y1569952D01*
X1061524Y1569972D01*
X1061271Y1569985D01*
X1061131Y1569998D01*
X1061073Y1569995D01*
X1061000Y1569999D01*
X1057071Y1569999D01*
X1047535Y1579535D01*
X1047447Y1579612D01*
X1047370Y1579692D01*
X1047369Y1579693D01*
X1047362Y1579700D01*
X1047208Y1579823D01*
X1047061Y1579953D01*
X1046962Y1580020D01*
X1046869Y1580094D01*
X1046701Y1580197D01*
X1046537Y1580307D01*
X1046431Y1580361D01*
X1046329Y1580424D01*
X1046149Y1580504D01*
X1045974Y1580593D01*
X1045861Y1580633D01*
X1045752Y1580682D01*
X1045564Y1580739D01*
X1045378Y1580806D01*
X1045262Y1580831D01*
X1045147Y1580866D01*
X1044953Y1580899D01*
X1044761Y1580941D01*
X1044642Y1580952D01*
X1044524Y1580972D01*
X1044271Y1580985D01*
X1044131Y1580998D01*
X1044073Y1580995D01*
X1044000Y1580999D01*
X1011000Y1580999D01*
X1010881Y1580992D01*
X1010762Y1580994D01*
X1010566Y1580972D01*
X1010369Y1580959D01*
X1010252Y1580937D01*
X1010133Y1580924D01*
X1009942Y1580877D01*
X1009748Y1580840D01*
X1009635Y1580803D01*
X1009519Y1580775D01*
X1009335Y1580705D01*
X1009148Y1580643D01*
X1009040Y1580592D01*
X1008928Y1580550D01*
X1008755Y1580457D01*
X1008577Y1580373D01*
X1008476Y1580308D01*
X1008371Y1580252D01*
X1008210Y1580138D01*
X1008044Y1580032D01*
X1007952Y1579955D01*
X1007855Y1579886D01*
X1007667Y1579716D01*
X1007559Y1579627D01*
X1007554Y1579621D01*
X1007552Y1579619D01*
X1007516Y1579581D01*
X1007465Y1579535D01*
X1006465Y1578535D01*
X1006386Y1578446D01*
X1006300Y1578362D01*
X1006177Y1578208D01*
X1006047Y1578061D01*
X1005980Y1577962D01*
X1005906Y1577869D01*
X1005803Y1577701D01*
X1005693Y1577537D01*
X1005639Y1577431D01*
X1005576Y1577329D01*
X1005496Y1577149D01*
X1005407Y1576974D01*
X1005367Y1576861D01*
X1005318Y1576752D01*
X1005261Y1576564D01*
X1005195Y1576378D01*
X1005169Y1576262D01*
X1005134Y1576147D01*
X1005101Y1575953D01*
X1005059Y1575761D01*
X1005048Y1575642D01*
X1005028Y1575524D01*
X1005015Y1575271D01*
X1005002Y1575131D01*
X1005005Y1575073D01*
X1005001Y1575000D01*
X1005001Y1546000D01*
X1005012Y1545815D01*
X1005014Y1545630D01*
X1005032Y1545500D01*
X1005041Y1545369D01*
X1005076Y1545188D01*
X1005101Y1545004D01*
X1005135Y1544878D01*
X1005160Y1544748D01*
X1005218Y1544572D01*
X1005266Y1544394D01*
X1005316Y1544273D01*
X1005357Y1544148D01*
X1005436Y1543980D01*
X1005506Y1543810D01*
X1005571Y1543695D01*
X1005627Y1543577D01*
X1005727Y1543421D01*
X1005819Y1543260D01*
X1005897Y1543155D01*
X1005968Y1543044D01*
X1006087Y1542902D01*
X1006198Y1542754D01*
X1006289Y1542660D01*
X1006373Y1542559D01*
X1006509Y1542433D01*
X1006638Y1542300D01*
X1006740Y1542218D01*
X1006837Y1542129D01*
X1006987Y1542021D01*
X1007131Y1541906D01*
X1007244Y1541837D01*
X1007350Y1541761D01*
X1007513Y1541673D01*
X1007671Y1541576D01*
X1007791Y1541523D01*
X1007906Y1541460D01*
X1008079Y1541394D01*
X1008248Y1541318D01*
X1008373Y1541280D01*
X1008496Y1541232D01*
X1008676Y1541188D01*
X1008853Y1541134D01*
X1008982Y1541112D01*
X1009110Y1541081D01*
X1009293Y1541059D01*
X1009476Y1541028D01*
X1009629Y1541020D01*
X1009737Y1541008D01*
X1009846Y1541009D01*
X1010000Y1541001D01*
X1012929Y1541001D01*
X1028465Y1525465D01*
X1028554Y1525386D01*
X1028638Y1525300D01*
X1028792Y1525177D01*
X1028939Y1525047D01*
X1029038Y1524980D01*
X1029131Y1524906D01*
X1029300Y1524803D01*
X1029463Y1524693D01*
X1029569Y1524639D01*
X1029671Y1524576D01*
X1029851Y1524496D01*
X1030026Y1524407D01*
X1030139Y1524367D01*
X1030248Y1524318D01*
X1030436Y1524261D01*
X1030622Y1524195D01*
X1030738Y1524169D01*
X1030853Y1524134D01*
X1031047Y1524101D01*
X1031239Y1524059D01*
X1031358Y1524048D01*
X1031476Y1524028D01*
X1031729Y1524015D01*
X1031869Y1524002D01*
X1031927Y1524005D01*
X1032000Y1524001D01*
X1040929Y1524001D01*
X1041465Y1523465D01*
X1041537Y1523402D01*
X1041602Y1523333D01*
X1041773Y1523193D01*
X1041939Y1523047D01*
X1042018Y1522994D01*
X1042092Y1522933D01*
X1042279Y1522817D01*
X1042463Y1522693D01*
X1042548Y1522649D01*
X1042629Y1522599D01*
X1042829Y1522507D01*
X1043026Y1522407D01*
X1043116Y1522375D01*
X1043203Y1522335D01*
X1043414Y1522269D01*
X1043622Y1522195D01*
X1043715Y1522174D01*
X1043806Y1522145D01*
X1044024Y1522106D01*
X1044239Y1522059D01*
X1044334Y1522050D01*
X1044428Y1522034D01*
X1044735Y1522014D01*
X1044869Y1522002D01*
X1044906Y1522004D01*
X1044952Y1522001D01*
X1148952Y1521001D01*
X1149010Y1521004D01*
G37*
G36*
X1149010Y599004D02*
X1149010Y599004D01*
X1149085Y599001D01*
X1208085Y600001D01*
X1208227Y600013D01*
X1208370Y600014D01*
X1208542Y600038D01*
X1208715Y600052D01*
X1208854Y600081D01*
X1208996Y600101D01*
X1209163Y600146D01*
X1209333Y600182D01*
X1209468Y600229D01*
X1209606Y600266D01*
X1209766Y600332D01*
X1209931Y600389D01*
X1210059Y600452D01*
X1210190Y600506D01*
X1210342Y600592D01*
X1210497Y600669D01*
X1210616Y600748D01*
X1210740Y600819D01*
X1210879Y600923D01*
X1211024Y601019D01*
X1211132Y601112D01*
X1211246Y601198D01*
X1211370Y601318D01*
X1211502Y601432D01*
X1211597Y601538D01*
X1211700Y601638D01*
X1211808Y601773D01*
X1211924Y601903D01*
X1212005Y602020D01*
X1212094Y602131D01*
X1212185Y602280D01*
X1212284Y602423D01*
X1212349Y602549D01*
X1212424Y602671D01*
X1212495Y602829D01*
X1212575Y602984D01*
X1212624Y603118D01*
X1212682Y603248D01*
X1212733Y603414D01*
X1212792Y603577D01*
X1212824Y603716D01*
X1212866Y603853D01*
X1212895Y604024D01*
X1212934Y604193D01*
X1212948Y604335D01*
X1212972Y604476D01*
X1212983Y604689D01*
X1212996Y604822D01*
X1212994Y604899D01*
X1212999Y605000D01*
X1212999Y871834D01*
X1212994Y871910D01*
X1212997Y871985D01*
X1212975Y872225D01*
X1212959Y872465D01*
X1212945Y872539D01*
X1212938Y872615D01*
X1212861Y872979D01*
X1212840Y873086D01*
X1212834Y873105D01*
X1212829Y873128D01*
X1211339Y878688D01*
X1211339Y885312D01*
X1212829Y890872D01*
X1212844Y890946D01*
X1212866Y891018D01*
X1212906Y891256D01*
X1212954Y891492D01*
X1212959Y891567D01*
X1212972Y891641D01*
X1212991Y892014D01*
X1212999Y892122D01*
X1212998Y892142D01*
X1212999Y892166D01*
X1212999Y935000D01*
X1212988Y935185D01*
X1212986Y935370D01*
X1212968Y935500D01*
X1212959Y935631D01*
X1212924Y935812D01*
X1212899Y935996D01*
X1212865Y936122D01*
X1212840Y936252D01*
X1212782Y936428D01*
X1212734Y936606D01*
X1212684Y936727D01*
X1212643Y936852D01*
X1212564Y937020D01*
X1212494Y937190D01*
X1212429Y937305D01*
X1212373Y937423D01*
X1212273Y937579D01*
X1212182Y937740D01*
X1212103Y937845D01*
X1212032Y937956D01*
X1211913Y938098D01*
X1211802Y938246D01*
X1211711Y938340D01*
X1211627Y938441D01*
X1211491Y938567D01*
X1211362Y938700D01*
X1211260Y938782D01*
X1211163Y938871D01*
X1211013Y938979D01*
X1210869Y939094D01*
X1210756Y939163D01*
X1210650Y939239D01*
X1210487Y939327D01*
X1210329Y939424D01*
X1210209Y939477D01*
X1210094Y939540D01*
X1209921Y939606D01*
X1209752Y939682D01*
X1209627Y939720D01*
X1209504Y939768D01*
X1209324Y939812D01*
X1209147Y939866D01*
X1209018Y939888D01*
X1208890Y939919D01*
X1208707Y939941D01*
X1208524Y939972D01*
X1208371Y939980D01*
X1208263Y939992D01*
X1208154Y939991D01*
X1208000Y939999D01*
X1133000Y939999D01*
X1132815Y939988D01*
X1132630Y939986D01*
X1132500Y939968D01*
X1132369Y939959D01*
X1132188Y939924D01*
X1132004Y939899D01*
X1131878Y939865D01*
X1131748Y939840D01*
X1131572Y939782D01*
X1131394Y939734D01*
X1131273Y939684D01*
X1131148Y939643D01*
X1130980Y939564D01*
X1130810Y939494D01*
X1130695Y939429D01*
X1130577Y939373D01*
X1130421Y939273D01*
X1130260Y939182D01*
X1130155Y939103D01*
X1130044Y939032D01*
X1129902Y938913D01*
X1129754Y938802D01*
X1129660Y938711D01*
X1129559Y938627D01*
X1129433Y938491D01*
X1129300Y938362D01*
X1129218Y938260D01*
X1129129Y938163D01*
X1129021Y938013D01*
X1128906Y937869D01*
X1128837Y937756D01*
X1128761Y937650D01*
X1128673Y937487D01*
X1128576Y937329D01*
X1128523Y937209D01*
X1128460Y937094D01*
X1128394Y936921D01*
X1128318Y936752D01*
X1128280Y936627D01*
X1128232Y936504D01*
X1128188Y936324D01*
X1128134Y936147D01*
X1128112Y936018D01*
X1128081Y935890D01*
X1128059Y935707D01*
X1128028Y935524D01*
X1128020Y935371D01*
X1128008Y935263D01*
X1128009Y935154D01*
X1128001Y935000D01*
X1128001Y658999D01*
X1118000Y658999D01*
X1117881Y658992D01*
X1117762Y658994D01*
X1117566Y658972D01*
X1117369Y658959D01*
X1117252Y658937D01*
X1117133Y658924D01*
X1116942Y658877D01*
X1116748Y658840D01*
X1116635Y658803D01*
X1116519Y658775D01*
X1116335Y658705D01*
X1116148Y658643D01*
X1116040Y658592D01*
X1115928Y658550D01*
X1115755Y658457D01*
X1115577Y658373D01*
X1115476Y658308D01*
X1115371Y658252D01*
X1115210Y658138D01*
X1115044Y658032D01*
X1114952Y657955D01*
X1114855Y657886D01*
X1114667Y657716D01*
X1114559Y657627D01*
X1114554Y657621D01*
X1114552Y657619D01*
X1114516Y657581D01*
X1114465Y657535D01*
X1105465Y648535D01*
X1105386Y648446D01*
X1105300Y648362D01*
X1105177Y648208D01*
X1105047Y648061D01*
X1104980Y647962D01*
X1104906Y647869D01*
X1104803Y647701D01*
X1104693Y647537D01*
X1104639Y647431D01*
X1104576Y647329D01*
X1104496Y647149D01*
X1104407Y646974D01*
X1104367Y646861D01*
X1104318Y646752D01*
X1104261Y646564D01*
X1104195Y646378D01*
X1104169Y646262D01*
X1104159Y646229D01*
X1102929Y644999D01*
X1066071Y644999D01*
X1064535Y646535D01*
X1064446Y646614D01*
X1064362Y646700D01*
X1064208Y646823D01*
X1064061Y646953D01*
X1063962Y647020D01*
X1063869Y647094D01*
X1063701Y647197D01*
X1063537Y647307D01*
X1063431Y647361D01*
X1063329Y647424D01*
X1063149Y647504D01*
X1062974Y647593D01*
X1062861Y647633D01*
X1062752Y647682D01*
X1062564Y647739D01*
X1062378Y647806D01*
X1062262Y647831D01*
X1062147Y647866D01*
X1061953Y647899D01*
X1061761Y647941D01*
X1061642Y647952D01*
X1061524Y647972D01*
X1061271Y647985D01*
X1061131Y647998D01*
X1061073Y647995D01*
X1061000Y647999D01*
X1057071Y647999D01*
X1047535Y657535D01*
X1047447Y657612D01*
X1047370Y657692D01*
X1047369Y657693D01*
X1047362Y657700D01*
X1047208Y657823D01*
X1047061Y657953D01*
X1046962Y658020D01*
X1046869Y658094D01*
X1046701Y658197D01*
X1046537Y658307D01*
X1046431Y658361D01*
X1046329Y658424D01*
X1046149Y658504D01*
X1045974Y658593D01*
X1045861Y658633D01*
X1045752Y658682D01*
X1045564Y658739D01*
X1045378Y658806D01*
X1045262Y658831D01*
X1045147Y658866D01*
X1044953Y658899D01*
X1044761Y658941D01*
X1044642Y658952D01*
X1044524Y658972D01*
X1044271Y658985D01*
X1044131Y658998D01*
X1044073Y658995D01*
X1044000Y658999D01*
X1011000Y658999D01*
X1010881Y658992D01*
X1010762Y658994D01*
X1010566Y658972D01*
X1010369Y658959D01*
X1010252Y658937D01*
X1010133Y658924D01*
X1009942Y658877D01*
X1009748Y658840D01*
X1009635Y658803D01*
X1009519Y658775D01*
X1009335Y658705D01*
X1009148Y658643D01*
X1009040Y658592D01*
X1008928Y658550D01*
X1008755Y658457D01*
X1008577Y658373D01*
X1008476Y658308D01*
X1008371Y658252D01*
X1008210Y658138D01*
X1008044Y658032D01*
X1007952Y657955D01*
X1007855Y657886D01*
X1007667Y657716D01*
X1007559Y657627D01*
X1007554Y657621D01*
X1007552Y657619D01*
X1007516Y657581D01*
X1007465Y657535D01*
X1006465Y656535D01*
X1006386Y656446D01*
X1006300Y656362D01*
X1006177Y656208D01*
X1006047Y656061D01*
X1005980Y655962D01*
X1005906Y655869D01*
X1005803Y655701D01*
X1005693Y655537D01*
X1005639Y655431D01*
X1005576Y655329D01*
X1005496Y655149D01*
X1005407Y654974D01*
X1005367Y654861D01*
X1005318Y654752D01*
X1005261Y654564D01*
X1005195Y654378D01*
X1005169Y654262D01*
X1005134Y654147D01*
X1005101Y653953D01*
X1005059Y653761D01*
X1005048Y653642D01*
X1005028Y653524D01*
X1005015Y653271D01*
X1005002Y653131D01*
X1005005Y653073D01*
X1005001Y653000D01*
X1005001Y624000D01*
X1005012Y623815D01*
X1005014Y623630D01*
X1005032Y623500D01*
X1005041Y623369D01*
X1005076Y623188D01*
X1005101Y623004D01*
X1005135Y622878D01*
X1005160Y622748D01*
X1005218Y622572D01*
X1005266Y622394D01*
X1005316Y622273D01*
X1005357Y622148D01*
X1005436Y621980D01*
X1005506Y621810D01*
X1005571Y621695D01*
X1005627Y621577D01*
X1005727Y621421D01*
X1005819Y621260D01*
X1005897Y621155D01*
X1005968Y621044D01*
X1006087Y620902D01*
X1006198Y620754D01*
X1006289Y620660D01*
X1006373Y620559D01*
X1006509Y620433D01*
X1006638Y620300D01*
X1006740Y620218D01*
X1006837Y620129D01*
X1006987Y620021D01*
X1007131Y619906D01*
X1007244Y619837D01*
X1007350Y619761D01*
X1007513Y619673D01*
X1007671Y619576D01*
X1007791Y619523D01*
X1007906Y619460D01*
X1008079Y619394D01*
X1008248Y619318D01*
X1008373Y619280D01*
X1008496Y619232D01*
X1008676Y619188D01*
X1008853Y619134D01*
X1008982Y619112D01*
X1009110Y619081D01*
X1009293Y619059D01*
X1009476Y619028D01*
X1009629Y619020D01*
X1009737Y619008D01*
X1009846Y619009D01*
X1010000Y619001D01*
X1012929Y619001D01*
X1028465Y603465D01*
X1028554Y603386D01*
X1028638Y603300D01*
X1028792Y603177D01*
X1028939Y603047D01*
X1029038Y602980D01*
X1029131Y602906D01*
X1029300Y602803D01*
X1029463Y602693D01*
X1029569Y602639D01*
X1029671Y602576D01*
X1029851Y602496D01*
X1030026Y602407D01*
X1030139Y602367D01*
X1030248Y602318D01*
X1030436Y602261D01*
X1030622Y602195D01*
X1030738Y602169D01*
X1030853Y602134D01*
X1031047Y602101D01*
X1031239Y602059D01*
X1031358Y602048D01*
X1031476Y602028D01*
X1031729Y602015D01*
X1031869Y602002D01*
X1031927Y602005D01*
X1032000Y602001D01*
X1040929Y602001D01*
X1041465Y601465D01*
X1041537Y601402D01*
X1041602Y601333D01*
X1041773Y601193D01*
X1041939Y601047D01*
X1042018Y600994D01*
X1042092Y600933D01*
X1042279Y600817D01*
X1042463Y600693D01*
X1042548Y600649D01*
X1042629Y600599D01*
X1042829Y600507D01*
X1043026Y600407D01*
X1043116Y600375D01*
X1043203Y600335D01*
X1043414Y600269D01*
X1043622Y600195D01*
X1043715Y600174D01*
X1043806Y600145D01*
X1044024Y600106D01*
X1044239Y600059D01*
X1044334Y600050D01*
X1044428Y600034D01*
X1044735Y600014D01*
X1044869Y600002D01*
X1044906Y600004D01*
X1044952Y600001D01*
X1148952Y599001D01*
X1149010Y599004D01*
G37*
G36*
X1149010Y137004D02*
X1149010Y137004D01*
X1149085Y137001D01*
X1208085Y138001D01*
X1208227Y138013D01*
X1208370Y138014D01*
X1208542Y138038D01*
X1208715Y138052D01*
X1208854Y138081D01*
X1208996Y138101D01*
X1209163Y138146D01*
X1209333Y138182D01*
X1209468Y138229D01*
X1209606Y138266D01*
X1209766Y138332D01*
X1209931Y138389D01*
X1210059Y138452D01*
X1210190Y138506D01*
X1210342Y138592D01*
X1210497Y138669D01*
X1210616Y138748D01*
X1210740Y138819D01*
X1210879Y138923D01*
X1211024Y139019D01*
X1211132Y139112D01*
X1211246Y139198D01*
X1211370Y139318D01*
X1211502Y139432D01*
X1211597Y139538D01*
X1211700Y139638D01*
X1211808Y139773D01*
X1211924Y139903D01*
X1212005Y140020D01*
X1212094Y140131D01*
X1212185Y140280D01*
X1212284Y140423D01*
X1212349Y140549D01*
X1212424Y140671D01*
X1212495Y140829D01*
X1212575Y140984D01*
X1212624Y141118D01*
X1212682Y141248D01*
X1212733Y141414D01*
X1212792Y141577D01*
X1212824Y141716D01*
X1212866Y141853D01*
X1212895Y142024D01*
X1212934Y142193D01*
X1212948Y142335D01*
X1212972Y142476D01*
X1212983Y142689D01*
X1212996Y142822D01*
X1212994Y142899D01*
X1212999Y143000D01*
X1212999Y409834D01*
X1212994Y409910D01*
X1212997Y409985D01*
X1212975Y410225D01*
X1212959Y410465D01*
X1212945Y410539D01*
X1212938Y410615D01*
X1212861Y410979D01*
X1212840Y411086D01*
X1212834Y411105D01*
X1212829Y411128D01*
X1211339Y416688D01*
X1211339Y423312D01*
X1212829Y428872D01*
X1212844Y428946D01*
X1212866Y429018D01*
X1212906Y429256D01*
X1212954Y429492D01*
X1212959Y429567D01*
X1212972Y429641D01*
X1212991Y430014D01*
X1212999Y430122D01*
X1212998Y430142D01*
X1212999Y430166D01*
X1212999Y473000D01*
X1212988Y473185D01*
X1212986Y473370D01*
X1212968Y473500D01*
X1212959Y473631D01*
X1212924Y473812D01*
X1212899Y473996D01*
X1212865Y474122D01*
X1212840Y474252D01*
X1212782Y474428D01*
X1212734Y474606D01*
X1212684Y474727D01*
X1212643Y474852D01*
X1212564Y475020D01*
X1212494Y475190D01*
X1212429Y475305D01*
X1212373Y475423D01*
X1212273Y475579D01*
X1212182Y475740D01*
X1212103Y475845D01*
X1212032Y475956D01*
X1211913Y476098D01*
X1211802Y476246D01*
X1211711Y476340D01*
X1211627Y476441D01*
X1211491Y476567D01*
X1211362Y476700D01*
X1211260Y476782D01*
X1211163Y476871D01*
X1211013Y476979D01*
X1210869Y477094D01*
X1210756Y477163D01*
X1210650Y477239D01*
X1210487Y477327D01*
X1210329Y477424D01*
X1210209Y477477D01*
X1210094Y477540D01*
X1209921Y477606D01*
X1209752Y477682D01*
X1209627Y477720D01*
X1209504Y477768D01*
X1209324Y477812D01*
X1209147Y477866D01*
X1209018Y477888D01*
X1208890Y477919D01*
X1208707Y477941D01*
X1208524Y477972D01*
X1208371Y477980D01*
X1208263Y477992D01*
X1208154Y477991D01*
X1208000Y477999D01*
X1133000Y477999D01*
X1132815Y477988D01*
X1132630Y477986D01*
X1132500Y477968D01*
X1132369Y477959D01*
X1132188Y477924D01*
X1132004Y477899D01*
X1131878Y477865D01*
X1131748Y477840D01*
X1131572Y477782D01*
X1131394Y477734D01*
X1131273Y477684D01*
X1131148Y477643D01*
X1130980Y477564D01*
X1130810Y477494D01*
X1130695Y477429D01*
X1130577Y477373D01*
X1130421Y477273D01*
X1130260Y477182D01*
X1130155Y477103D01*
X1130044Y477032D01*
X1129902Y476913D01*
X1129754Y476802D01*
X1129660Y476711D01*
X1129559Y476627D01*
X1129433Y476491D01*
X1129300Y476362D01*
X1129218Y476260D01*
X1129129Y476163D01*
X1129021Y476013D01*
X1128906Y475869D01*
X1128837Y475756D01*
X1128761Y475650D01*
X1128673Y475487D01*
X1128576Y475329D01*
X1128523Y475209D01*
X1128460Y475094D01*
X1128394Y474921D01*
X1128318Y474752D01*
X1128280Y474627D01*
X1128232Y474504D01*
X1128188Y474324D01*
X1128134Y474147D01*
X1128112Y474018D01*
X1128081Y473890D01*
X1128059Y473707D01*
X1128028Y473524D01*
X1128020Y473371D01*
X1128008Y473263D01*
X1128009Y473154D01*
X1128001Y473000D01*
X1128001Y196999D01*
X1118000Y196999D01*
X1117881Y196992D01*
X1117762Y196994D01*
X1117566Y196972D01*
X1117369Y196959D01*
X1117252Y196937D01*
X1117133Y196924D01*
X1116942Y196877D01*
X1116748Y196840D01*
X1116635Y196803D01*
X1116519Y196775D01*
X1116335Y196705D01*
X1116148Y196643D01*
X1116040Y196592D01*
X1115928Y196550D01*
X1115755Y196457D01*
X1115577Y196373D01*
X1115476Y196308D01*
X1115371Y196252D01*
X1115210Y196138D01*
X1115044Y196032D01*
X1114952Y195955D01*
X1114855Y195886D01*
X1114667Y195716D01*
X1114559Y195627D01*
X1114554Y195621D01*
X1114552Y195619D01*
X1114516Y195581D01*
X1114465Y195535D01*
X1105465Y186535D01*
X1105386Y186446D01*
X1105300Y186362D01*
X1105177Y186208D01*
X1105047Y186061D01*
X1104980Y185962D01*
X1104906Y185869D01*
X1104803Y185701D01*
X1104693Y185537D01*
X1104639Y185431D01*
X1104576Y185329D01*
X1104496Y185149D01*
X1104407Y184974D01*
X1104367Y184861D01*
X1104318Y184752D01*
X1104261Y184564D01*
X1104195Y184378D01*
X1104169Y184262D01*
X1104159Y184229D01*
X1102929Y182999D01*
X1066071Y182999D01*
X1064535Y184535D01*
X1064446Y184614D01*
X1064362Y184700D01*
X1064208Y184823D01*
X1064061Y184953D01*
X1063962Y185020D01*
X1063869Y185094D01*
X1063701Y185197D01*
X1063537Y185307D01*
X1063431Y185361D01*
X1063329Y185424D01*
X1063149Y185504D01*
X1062974Y185593D01*
X1062861Y185633D01*
X1062752Y185682D01*
X1062564Y185739D01*
X1062378Y185806D01*
X1062262Y185831D01*
X1062147Y185866D01*
X1061953Y185899D01*
X1061761Y185941D01*
X1061642Y185952D01*
X1061524Y185972D01*
X1061271Y185985D01*
X1061131Y185998D01*
X1061073Y185995D01*
X1061000Y185999D01*
X1057071Y185999D01*
X1047535Y195535D01*
X1047447Y195612D01*
X1047370Y195692D01*
X1047369Y195693D01*
X1047362Y195700D01*
X1047208Y195823D01*
X1047061Y195953D01*
X1046962Y196020D01*
X1046869Y196094D01*
X1046701Y196197D01*
X1046537Y196307D01*
X1046431Y196361D01*
X1046329Y196424D01*
X1046149Y196504D01*
X1045974Y196593D01*
X1045861Y196633D01*
X1045752Y196682D01*
X1045564Y196739D01*
X1045378Y196806D01*
X1045262Y196831D01*
X1045147Y196866D01*
X1044953Y196899D01*
X1044761Y196941D01*
X1044642Y196952D01*
X1044524Y196972D01*
X1044271Y196985D01*
X1044131Y196998D01*
X1044073Y196995D01*
X1044000Y196999D01*
X1011000Y196999D01*
X1010881Y196992D01*
X1010762Y196994D01*
X1010566Y196972D01*
X1010369Y196959D01*
X1010252Y196937D01*
X1010133Y196924D01*
X1009942Y196877D01*
X1009748Y196840D01*
X1009635Y196803D01*
X1009519Y196775D01*
X1009335Y196705D01*
X1009148Y196643D01*
X1009040Y196592D01*
X1008928Y196550D01*
X1008755Y196457D01*
X1008577Y196373D01*
X1008476Y196308D01*
X1008371Y196252D01*
X1008210Y196138D01*
X1008044Y196032D01*
X1007952Y195955D01*
X1007855Y195886D01*
X1007667Y195716D01*
X1007559Y195627D01*
X1007554Y195621D01*
X1007552Y195619D01*
X1007516Y195581D01*
X1007465Y195535D01*
X1006465Y194535D01*
X1006386Y194446D01*
X1006300Y194362D01*
X1006177Y194208D01*
X1006047Y194061D01*
X1005980Y193962D01*
X1005906Y193869D01*
X1005803Y193701D01*
X1005693Y193537D01*
X1005639Y193431D01*
X1005576Y193329D01*
X1005496Y193149D01*
X1005407Y192974D01*
X1005367Y192861D01*
X1005318Y192752D01*
X1005261Y192564D01*
X1005195Y192378D01*
X1005169Y192262D01*
X1005134Y192147D01*
X1005101Y191953D01*
X1005059Y191761D01*
X1005048Y191642D01*
X1005028Y191524D01*
X1005015Y191271D01*
X1005002Y191131D01*
X1005005Y191073D01*
X1005001Y191000D01*
X1005001Y162000D01*
X1005012Y161815D01*
X1005014Y161630D01*
X1005032Y161500D01*
X1005041Y161369D01*
X1005076Y161188D01*
X1005101Y161004D01*
X1005135Y160878D01*
X1005160Y160748D01*
X1005218Y160572D01*
X1005266Y160394D01*
X1005316Y160273D01*
X1005357Y160148D01*
X1005436Y159980D01*
X1005506Y159810D01*
X1005571Y159695D01*
X1005627Y159577D01*
X1005727Y159421D01*
X1005819Y159260D01*
X1005897Y159155D01*
X1005968Y159044D01*
X1006087Y158902D01*
X1006198Y158754D01*
X1006289Y158660D01*
X1006373Y158559D01*
X1006509Y158433D01*
X1006638Y158300D01*
X1006740Y158218D01*
X1006837Y158129D01*
X1006987Y158021D01*
X1007131Y157906D01*
X1007244Y157837D01*
X1007350Y157761D01*
X1007513Y157673D01*
X1007671Y157576D01*
X1007791Y157523D01*
X1007906Y157460D01*
X1008079Y157394D01*
X1008248Y157318D01*
X1008373Y157280D01*
X1008496Y157232D01*
X1008676Y157188D01*
X1008853Y157134D01*
X1008982Y157112D01*
X1009110Y157081D01*
X1009293Y157059D01*
X1009476Y157028D01*
X1009629Y157020D01*
X1009737Y157008D01*
X1009846Y157009D01*
X1010000Y157001D01*
X1012929Y157001D01*
X1028465Y141465D01*
X1028554Y141386D01*
X1028638Y141300D01*
X1028792Y141177D01*
X1028939Y141047D01*
X1029038Y140980D01*
X1029131Y140906D01*
X1029300Y140803D01*
X1029463Y140693D01*
X1029569Y140639D01*
X1029671Y140576D01*
X1029851Y140496D01*
X1030026Y140407D01*
X1030139Y140367D01*
X1030248Y140318D01*
X1030436Y140261D01*
X1030622Y140195D01*
X1030738Y140169D01*
X1030853Y140134D01*
X1031047Y140101D01*
X1031239Y140059D01*
X1031358Y140048D01*
X1031476Y140028D01*
X1031729Y140015D01*
X1031869Y140002D01*
X1031927Y140005D01*
X1032000Y140001D01*
X1040929Y140001D01*
X1041465Y139465D01*
X1041537Y139402D01*
X1041602Y139333D01*
X1041773Y139193D01*
X1041939Y139047D01*
X1042018Y138994D01*
X1042092Y138933D01*
X1042279Y138817D01*
X1042463Y138693D01*
X1042548Y138649D01*
X1042629Y138599D01*
X1042829Y138507D01*
X1043026Y138407D01*
X1043116Y138375D01*
X1043203Y138335D01*
X1043414Y138269D01*
X1043622Y138195D01*
X1043715Y138174D01*
X1043806Y138145D01*
X1044024Y138106D01*
X1044239Y138059D01*
X1044334Y138050D01*
X1044428Y138034D01*
X1044735Y138014D01*
X1044869Y138002D01*
X1044906Y138004D01*
X1044952Y138001D01*
X1148952Y137001D01*
X1149010Y137004D01*
G37*
G36*
X1149010Y1061004D02*
X1149010Y1061004D01*
X1149085Y1061001D01*
X1208085Y1062001D01*
X1208227Y1062013D01*
X1208370Y1062014D01*
X1208542Y1062038D01*
X1208715Y1062052D01*
X1208854Y1062081D01*
X1208996Y1062101D01*
X1209163Y1062146D01*
X1209333Y1062182D01*
X1209468Y1062229D01*
X1209606Y1062266D01*
X1209766Y1062332D01*
X1209931Y1062389D01*
X1210059Y1062452D01*
X1210190Y1062506D01*
X1210342Y1062592D01*
X1210497Y1062669D01*
X1210616Y1062748D01*
X1210740Y1062819D01*
X1210879Y1062923D01*
X1211024Y1063019D01*
X1211132Y1063112D01*
X1211246Y1063198D01*
X1211370Y1063318D01*
X1211502Y1063432D01*
X1211597Y1063538D01*
X1211700Y1063638D01*
X1211808Y1063773D01*
X1211924Y1063903D01*
X1212005Y1064020D01*
X1212094Y1064131D01*
X1212185Y1064280D01*
X1212284Y1064423D01*
X1212349Y1064549D01*
X1212424Y1064671D01*
X1212495Y1064829D01*
X1212575Y1064984D01*
X1212624Y1065118D01*
X1212682Y1065248D01*
X1212733Y1065414D01*
X1212792Y1065577D01*
X1212824Y1065716D01*
X1212866Y1065853D01*
X1212895Y1066024D01*
X1212934Y1066193D01*
X1212948Y1066335D01*
X1212972Y1066476D01*
X1212983Y1066689D01*
X1212996Y1066822D01*
X1212994Y1066899D01*
X1212999Y1067000D01*
X1212999Y1333834D01*
X1212994Y1333910D01*
X1212997Y1333985D01*
X1212975Y1334225D01*
X1212959Y1334465D01*
X1212945Y1334539D01*
X1212938Y1334615D01*
X1212861Y1334979D01*
X1212840Y1335086D01*
X1212834Y1335105D01*
X1212829Y1335128D01*
X1211339Y1340688D01*
X1211339Y1347312D01*
X1212829Y1352872D01*
X1212844Y1352946D01*
X1212866Y1353018D01*
X1212906Y1353256D01*
X1212954Y1353492D01*
X1212959Y1353567D01*
X1212972Y1353641D01*
X1212991Y1354014D01*
X1212999Y1354122D01*
X1212998Y1354142D01*
X1212999Y1354166D01*
X1212999Y1397000D01*
X1212988Y1397185D01*
X1212986Y1397370D01*
X1212968Y1397500D01*
X1212959Y1397631D01*
X1212924Y1397812D01*
X1212899Y1397996D01*
X1212865Y1398122D01*
X1212840Y1398252D01*
X1212782Y1398428D01*
X1212734Y1398606D01*
X1212684Y1398727D01*
X1212643Y1398852D01*
X1212564Y1399020D01*
X1212494Y1399190D01*
X1212429Y1399305D01*
X1212373Y1399423D01*
X1212273Y1399579D01*
X1212182Y1399740D01*
X1212103Y1399845D01*
X1212032Y1399956D01*
X1211913Y1400098D01*
X1211802Y1400246D01*
X1211711Y1400340D01*
X1211627Y1400441D01*
X1211491Y1400567D01*
X1211362Y1400700D01*
X1211260Y1400782D01*
X1211163Y1400871D01*
X1211013Y1400979D01*
X1210869Y1401094D01*
X1210756Y1401163D01*
X1210650Y1401239D01*
X1210487Y1401327D01*
X1210329Y1401424D01*
X1210209Y1401477D01*
X1210094Y1401540D01*
X1209921Y1401606D01*
X1209752Y1401682D01*
X1209627Y1401720D01*
X1209504Y1401768D01*
X1209324Y1401812D01*
X1209147Y1401866D01*
X1209018Y1401888D01*
X1208890Y1401919D01*
X1208707Y1401941D01*
X1208524Y1401972D01*
X1208371Y1401980D01*
X1208263Y1401992D01*
X1208154Y1401991D01*
X1208000Y1401999D01*
X1133000Y1401999D01*
X1132815Y1401988D01*
X1132630Y1401986D01*
X1132500Y1401968D01*
X1132369Y1401959D01*
X1132188Y1401924D01*
X1132004Y1401899D01*
X1131878Y1401865D01*
X1131748Y1401840D01*
X1131572Y1401782D01*
X1131394Y1401734D01*
X1131273Y1401684D01*
X1131148Y1401643D01*
X1130980Y1401564D01*
X1130810Y1401494D01*
X1130695Y1401429D01*
X1130577Y1401373D01*
X1130421Y1401273D01*
X1130260Y1401182D01*
X1130155Y1401103D01*
X1130044Y1401032D01*
X1129902Y1400913D01*
X1129754Y1400802D01*
X1129660Y1400711D01*
X1129559Y1400627D01*
X1129433Y1400491D01*
X1129300Y1400362D01*
X1129218Y1400260D01*
X1129129Y1400163D01*
X1129021Y1400013D01*
X1128906Y1399869D01*
X1128837Y1399756D01*
X1128761Y1399650D01*
X1128673Y1399487D01*
X1128576Y1399329D01*
X1128523Y1399209D01*
X1128460Y1399094D01*
X1128394Y1398921D01*
X1128318Y1398752D01*
X1128280Y1398627D01*
X1128232Y1398504D01*
X1128188Y1398324D01*
X1128134Y1398147D01*
X1128112Y1398018D01*
X1128081Y1397890D01*
X1128059Y1397707D01*
X1128028Y1397524D01*
X1128020Y1397371D01*
X1128008Y1397263D01*
X1128009Y1397154D01*
X1128001Y1397000D01*
X1128001Y1120999D01*
X1118000Y1120999D01*
X1117881Y1120992D01*
X1117762Y1120994D01*
X1117566Y1120972D01*
X1117369Y1120959D01*
X1117252Y1120937D01*
X1117133Y1120924D01*
X1116942Y1120877D01*
X1116748Y1120840D01*
X1116635Y1120803D01*
X1116519Y1120775D01*
X1116335Y1120705D01*
X1116148Y1120643D01*
X1116040Y1120592D01*
X1115928Y1120550D01*
X1115755Y1120457D01*
X1115577Y1120373D01*
X1115476Y1120308D01*
X1115371Y1120252D01*
X1115210Y1120138D01*
X1115044Y1120032D01*
X1114952Y1119955D01*
X1114855Y1119886D01*
X1114667Y1119716D01*
X1114559Y1119627D01*
X1114554Y1119621D01*
X1114552Y1119619D01*
X1114516Y1119581D01*
X1114465Y1119535D01*
X1105465Y1110535D01*
X1105386Y1110446D01*
X1105300Y1110362D01*
X1105177Y1110208D01*
X1105047Y1110061D01*
X1104980Y1109962D01*
X1104906Y1109869D01*
X1104803Y1109701D01*
X1104693Y1109537D01*
X1104639Y1109431D01*
X1104576Y1109329D01*
X1104496Y1109149D01*
X1104407Y1108974D01*
X1104367Y1108861D01*
X1104318Y1108752D01*
X1104261Y1108564D01*
X1104195Y1108378D01*
X1104169Y1108262D01*
X1104159Y1108229D01*
X1102929Y1106999D01*
X1066071Y1106999D01*
X1064535Y1108535D01*
X1064446Y1108614D01*
X1064362Y1108700D01*
X1064208Y1108823D01*
X1064061Y1108953D01*
X1063962Y1109020D01*
X1063869Y1109094D01*
X1063701Y1109197D01*
X1063537Y1109307D01*
X1063431Y1109361D01*
X1063329Y1109424D01*
X1063149Y1109504D01*
X1062974Y1109593D01*
X1062861Y1109633D01*
X1062752Y1109682D01*
X1062564Y1109739D01*
X1062378Y1109806D01*
X1062262Y1109831D01*
X1062147Y1109866D01*
X1061953Y1109899D01*
X1061761Y1109941D01*
X1061642Y1109952D01*
X1061524Y1109972D01*
X1061271Y1109985D01*
X1061131Y1109998D01*
X1061073Y1109995D01*
X1061000Y1109999D01*
X1057071Y1109999D01*
X1047535Y1119535D01*
X1047447Y1119612D01*
X1047370Y1119692D01*
X1047369Y1119693D01*
X1047362Y1119700D01*
X1047208Y1119823D01*
X1047061Y1119953D01*
X1046962Y1120020D01*
X1046869Y1120094D01*
X1046701Y1120197D01*
X1046537Y1120307D01*
X1046431Y1120361D01*
X1046329Y1120424D01*
X1046149Y1120504D01*
X1045974Y1120593D01*
X1045861Y1120633D01*
X1045752Y1120682D01*
X1045564Y1120739D01*
X1045378Y1120806D01*
X1045262Y1120831D01*
X1045147Y1120866D01*
X1044953Y1120899D01*
X1044761Y1120941D01*
X1044642Y1120952D01*
X1044524Y1120972D01*
X1044271Y1120985D01*
X1044131Y1120998D01*
X1044073Y1120995D01*
X1044000Y1120999D01*
X1011000Y1120999D01*
X1010881Y1120992D01*
X1010762Y1120994D01*
X1010566Y1120972D01*
X1010369Y1120959D01*
X1010252Y1120937D01*
X1010133Y1120924D01*
X1009942Y1120877D01*
X1009748Y1120840D01*
X1009635Y1120803D01*
X1009519Y1120775D01*
X1009335Y1120705D01*
X1009148Y1120643D01*
X1009040Y1120592D01*
X1008928Y1120550D01*
X1008755Y1120457D01*
X1008577Y1120373D01*
X1008476Y1120308D01*
X1008371Y1120252D01*
X1008210Y1120138D01*
X1008044Y1120032D01*
X1007952Y1119955D01*
X1007855Y1119886D01*
X1007667Y1119716D01*
X1007559Y1119627D01*
X1007554Y1119621D01*
X1007552Y1119619D01*
X1007516Y1119581D01*
X1007465Y1119535D01*
X1006465Y1118535D01*
X1006386Y1118446D01*
X1006300Y1118362D01*
X1006177Y1118208D01*
X1006047Y1118061D01*
X1005980Y1117962D01*
X1005906Y1117869D01*
X1005803Y1117701D01*
X1005693Y1117537D01*
X1005639Y1117431D01*
X1005576Y1117329D01*
X1005496Y1117149D01*
X1005407Y1116974D01*
X1005367Y1116861D01*
X1005318Y1116752D01*
X1005261Y1116564D01*
X1005195Y1116378D01*
X1005169Y1116262D01*
X1005134Y1116147D01*
X1005101Y1115953D01*
X1005059Y1115761D01*
X1005048Y1115642D01*
X1005028Y1115524D01*
X1005015Y1115271D01*
X1005002Y1115131D01*
X1005005Y1115073D01*
X1005001Y1115000D01*
X1005001Y1086000D01*
X1005012Y1085815D01*
X1005014Y1085630D01*
X1005032Y1085500D01*
X1005041Y1085369D01*
X1005076Y1085188D01*
X1005101Y1085004D01*
X1005135Y1084878D01*
X1005160Y1084748D01*
X1005218Y1084572D01*
X1005266Y1084394D01*
X1005316Y1084273D01*
X1005357Y1084148D01*
X1005436Y1083980D01*
X1005506Y1083810D01*
X1005571Y1083695D01*
X1005627Y1083577D01*
X1005727Y1083421D01*
X1005819Y1083260D01*
X1005897Y1083155D01*
X1005968Y1083044D01*
X1006087Y1082902D01*
X1006198Y1082754D01*
X1006289Y1082660D01*
X1006373Y1082559D01*
X1006509Y1082433D01*
X1006638Y1082300D01*
X1006740Y1082218D01*
X1006837Y1082129D01*
X1006987Y1082021D01*
X1007131Y1081906D01*
X1007244Y1081837D01*
X1007350Y1081761D01*
X1007513Y1081673D01*
X1007671Y1081576D01*
X1007791Y1081523D01*
X1007906Y1081460D01*
X1008079Y1081394D01*
X1008248Y1081318D01*
X1008373Y1081280D01*
X1008496Y1081232D01*
X1008676Y1081188D01*
X1008853Y1081134D01*
X1008982Y1081112D01*
X1009110Y1081081D01*
X1009293Y1081059D01*
X1009476Y1081028D01*
X1009629Y1081020D01*
X1009737Y1081008D01*
X1009846Y1081009D01*
X1010000Y1081001D01*
X1012929Y1081001D01*
X1028465Y1065465D01*
X1028554Y1065386D01*
X1028638Y1065300D01*
X1028792Y1065177D01*
X1028939Y1065047D01*
X1029038Y1064980D01*
X1029131Y1064906D01*
X1029300Y1064803D01*
X1029463Y1064693D01*
X1029569Y1064639D01*
X1029671Y1064576D01*
X1029851Y1064496D01*
X1030026Y1064407D01*
X1030139Y1064367D01*
X1030248Y1064318D01*
X1030436Y1064261D01*
X1030622Y1064195D01*
X1030738Y1064169D01*
X1030853Y1064134D01*
X1031047Y1064101D01*
X1031239Y1064059D01*
X1031358Y1064048D01*
X1031476Y1064028D01*
X1031729Y1064015D01*
X1031869Y1064002D01*
X1031927Y1064005D01*
X1032000Y1064001D01*
X1040929Y1064001D01*
X1041465Y1063465D01*
X1041537Y1063402D01*
X1041602Y1063333D01*
X1041773Y1063193D01*
X1041939Y1063047D01*
X1042018Y1062994D01*
X1042092Y1062933D01*
X1042279Y1062817D01*
X1042463Y1062693D01*
X1042548Y1062649D01*
X1042629Y1062599D01*
X1042829Y1062507D01*
X1043026Y1062407D01*
X1043116Y1062375D01*
X1043203Y1062335D01*
X1043414Y1062269D01*
X1043622Y1062195D01*
X1043715Y1062174D01*
X1043806Y1062145D01*
X1044024Y1062106D01*
X1044239Y1062059D01*
X1044334Y1062050D01*
X1044428Y1062034D01*
X1044735Y1062014D01*
X1044869Y1062002D01*
X1044906Y1062004D01*
X1044952Y1062001D01*
X1148952Y1061001D01*
X1149010Y1061004D01*
G37*
G36*
X410162Y1085513D02*
X410162Y1085513D01*
X410324Y1085516D01*
X410425Y1085533D01*
X410527Y1085541D01*
X410685Y1085577D01*
X410846Y1085604D01*
X410943Y1085637D01*
X411042Y1085660D01*
X411193Y1085719D01*
X411348Y1085771D01*
X411439Y1085817D01*
X411534Y1085855D01*
X411674Y1085937D01*
X411819Y1086011D01*
X411902Y1086070D01*
X411990Y1086122D01*
X412117Y1086224D01*
X412248Y1086319D01*
X412321Y1086390D01*
X412401Y1086454D01*
X412511Y1086575D01*
X412627Y1086688D01*
X412688Y1086770D01*
X412757Y1086845D01*
X412847Y1086980D01*
X412945Y1087110D01*
X412994Y1087200D01*
X413050Y1087285D01*
X413119Y1087432D01*
X413196Y1087575D01*
X413231Y1087672D01*
X413274Y1087764D01*
X413320Y1087920D01*
X413374Y1088073D01*
X413394Y1088174D01*
X413423Y1088272D01*
X413444Y1088432D01*
X413475Y1088592D01*
X413483Y1088718D01*
X413493Y1088796D01*
X413492Y1088875D01*
X413499Y1089000D01*
X413499Y1143551D01*
X511474Y1241526D01*
X511547Y1241610D01*
X511627Y1241688D01*
X511719Y1241810D01*
X511819Y1241927D01*
X511878Y1242021D01*
X511945Y1242110D01*
X512018Y1242245D01*
X512099Y1242375D01*
X512143Y1242477D01*
X512196Y1242575D01*
X512248Y1242720D01*
X512309Y1242861D01*
X512337Y1242968D01*
X512374Y1243073D01*
X512404Y1243224D01*
X512442Y1243372D01*
X512454Y1243483D01*
X512475Y1243592D01*
X512488Y1243802D01*
X512498Y1243898D01*
X512496Y1243940D01*
X512499Y1244000D01*
X512499Y1432000D01*
X512487Y1432162D01*
X512484Y1432324D01*
X512467Y1432425D01*
X512459Y1432527D01*
X512423Y1432685D01*
X512396Y1432846D01*
X512363Y1432943D01*
X512340Y1433042D01*
X512281Y1433193D01*
X512229Y1433348D01*
X512183Y1433439D01*
X512145Y1433534D01*
X512063Y1433674D01*
X511990Y1433819D01*
X511930Y1433902D01*
X511878Y1433990D01*
X511776Y1434117D01*
X511681Y1434248D01*
X511610Y1434321D01*
X511546Y1434401D01*
X511425Y1434511D01*
X511312Y1434627D01*
X511230Y1434688D01*
X511155Y1434757D01*
X511020Y1434847D01*
X510890Y1434945D01*
X510800Y1434994D01*
X510715Y1435050D01*
X510568Y1435119D01*
X510425Y1435196D01*
X510328Y1435231D01*
X510236Y1435274D01*
X510080Y1435320D01*
X509927Y1435374D01*
X509826Y1435394D01*
X509728Y1435423D01*
X509568Y1435444D01*
X509408Y1435475D01*
X509282Y1435483D01*
X509204Y1435493D01*
X509125Y1435492D01*
X509000Y1435499D01*
X451000Y1435499D01*
X450889Y1435491D01*
X450778Y1435492D01*
X450626Y1435471D01*
X450473Y1435459D01*
X450364Y1435434D01*
X450254Y1435419D01*
X450107Y1435375D01*
X449958Y1435340D01*
X449854Y1435299D01*
X449747Y1435267D01*
X449609Y1435202D01*
X449466Y1435145D01*
X449370Y1435089D01*
X449269Y1435041D01*
X449142Y1434956D01*
X449010Y1434878D01*
X448923Y1434808D01*
X448831Y1434746D01*
X448674Y1434606D01*
X448599Y1434546D01*
X448570Y1434514D01*
X448526Y1434474D01*
X447526Y1433474D01*
X447453Y1433390D01*
X447373Y1433312D01*
X447281Y1433190D01*
X447181Y1433073D01*
X447122Y1432979D01*
X447055Y1432890D01*
X446982Y1432755D01*
X446901Y1432625D01*
X446857Y1432523D01*
X446804Y1432425D01*
X446752Y1432280D01*
X446691Y1432139D01*
X446663Y1432032D01*
X446626Y1431927D01*
X446596Y1431776D01*
X446558Y1431628D01*
X446546Y1431517D01*
X446525Y1431408D01*
X446512Y1431198D01*
X446502Y1431102D01*
X446504Y1431060D01*
X446501Y1431000D01*
X446501Y1267449D01*
X359526Y1180474D01*
X359453Y1180390D01*
X359373Y1180312D01*
X359281Y1180190D01*
X359181Y1180073D01*
X359122Y1179979D01*
X359055Y1179890D01*
X358982Y1179755D01*
X358901Y1179625D01*
X358857Y1179523D01*
X358804Y1179425D01*
X358752Y1179280D01*
X358691Y1179139D01*
X358663Y1179032D01*
X358626Y1178927D01*
X358596Y1178776D01*
X358558Y1178628D01*
X358546Y1178517D01*
X358525Y1178408D01*
X358512Y1178198D01*
X358502Y1178102D01*
X358504Y1178060D01*
X358501Y1178000D01*
X358501Y1089000D01*
X358513Y1088838D01*
X358516Y1088676D01*
X358533Y1088575D01*
X358541Y1088473D01*
X358577Y1088315D01*
X358604Y1088154D01*
X358637Y1088057D01*
X358660Y1087958D01*
X358719Y1087807D01*
X358771Y1087653D01*
X358817Y1087561D01*
X358855Y1087466D01*
X358937Y1087326D01*
X359011Y1087181D01*
X359070Y1087098D01*
X359122Y1087010D01*
X359224Y1086883D01*
X359319Y1086752D01*
X359390Y1086679D01*
X359454Y1086599D01*
X359575Y1086489D01*
X359688Y1086373D01*
X359770Y1086312D01*
X359845Y1086243D01*
X359980Y1086153D01*
X360110Y1086055D01*
X360200Y1086006D01*
X360285Y1085950D01*
X360432Y1085881D01*
X360575Y1085804D01*
X360672Y1085769D01*
X360764Y1085726D01*
X360920Y1085680D01*
X361073Y1085626D01*
X361174Y1085606D01*
X361272Y1085577D01*
X361432Y1085556D01*
X361592Y1085525D01*
X361718Y1085517D01*
X361796Y1085507D01*
X361875Y1085508D01*
X362000Y1085501D01*
X410000Y1085501D01*
X410162Y1085513D01*
G37*
G36*
X591111Y1388509D02*
X591111Y1388509D01*
X591222Y1388508D01*
X591374Y1388529D01*
X591527Y1388541D01*
X591636Y1388566D01*
X591746Y1388581D01*
X591893Y1388625D01*
X592042Y1388660D01*
X592146Y1388701D01*
X592253Y1388733D01*
X592391Y1388798D01*
X592534Y1388855D01*
X592630Y1388911D01*
X592731Y1388959D01*
X592858Y1389044D01*
X592990Y1389122D01*
X593077Y1389192D01*
X593169Y1389254D01*
X593326Y1389394D01*
X593401Y1389454D01*
X593430Y1389486D01*
X593474Y1389526D01*
X594474Y1390526D01*
X594547Y1390610D01*
X594627Y1390688D01*
X594719Y1390810D01*
X594819Y1390927D01*
X594878Y1391021D01*
X594945Y1391110D01*
X595018Y1391245D01*
X595099Y1391375D01*
X595143Y1391477D01*
X595196Y1391575D01*
X595248Y1391720D01*
X595309Y1391861D01*
X595337Y1391968D01*
X595374Y1392073D01*
X595404Y1392224D01*
X595442Y1392372D01*
X595454Y1392483D01*
X595475Y1392592D01*
X595488Y1392802D01*
X595498Y1392898D01*
X595496Y1392940D01*
X595499Y1393000D01*
X595499Y1650000D01*
X595491Y1650111D01*
X595492Y1650222D01*
X595471Y1650374D01*
X595459Y1650527D01*
X595434Y1650636D01*
X595419Y1650746D01*
X595375Y1650893D01*
X595340Y1651042D01*
X595299Y1651146D01*
X595267Y1651253D01*
X595202Y1651391D01*
X595145Y1651534D01*
X595089Y1651630D01*
X595041Y1651731D01*
X594956Y1651858D01*
X594878Y1651990D01*
X594808Y1652077D01*
X594746Y1652169D01*
X594606Y1652326D01*
X594546Y1652401D01*
X594514Y1652430D01*
X594474Y1652474D01*
X593474Y1653474D01*
X593398Y1653540D01*
X593368Y1653571D01*
X593363Y1653575D01*
X593312Y1653627D01*
X593190Y1653719D01*
X593073Y1653819D01*
X592979Y1653878D01*
X592890Y1653945D01*
X592755Y1654018D01*
X592625Y1654099D01*
X592523Y1654143D01*
X592425Y1654196D01*
X592280Y1654248D01*
X592139Y1654309D01*
X592032Y1654337D01*
X591927Y1654374D01*
X591776Y1654404D01*
X591628Y1654442D01*
X591517Y1654454D01*
X591408Y1654475D01*
X591198Y1654488D01*
X591102Y1654498D01*
X591060Y1654496D01*
X591000Y1654499D01*
X537000Y1654499D01*
X536787Y1654483D01*
X536574Y1654473D01*
X536524Y1654463D01*
X536473Y1654459D01*
X536265Y1654411D01*
X536056Y1654369D01*
X536007Y1654352D01*
X535958Y1654340D01*
X535759Y1654262D01*
X535559Y1654189D01*
X535514Y1654164D01*
X535466Y1654145D01*
X535282Y1654037D01*
X535095Y1653935D01*
X535054Y1653904D01*
X535010Y1653878D01*
X534844Y1653744D01*
X534674Y1653615D01*
X534639Y1653578D01*
X534599Y1653546D01*
X534455Y1653388D01*
X534307Y1653234D01*
X534277Y1653193D01*
X534243Y1653155D01*
X534125Y1652977D01*
X534001Y1652803D01*
X533978Y1652757D01*
X533950Y1652715D01*
X533859Y1652521D01*
X533764Y1652331D01*
X533748Y1652282D01*
X533726Y1652236D01*
X533666Y1652031D01*
X533600Y1651828D01*
X533592Y1651777D01*
X533577Y1651728D01*
X533549Y1651517D01*
X533514Y1651306D01*
X533514Y1651255D01*
X533507Y1651204D01*
X533510Y1650991D01*
X533508Y1650778D01*
X533515Y1650727D01*
X533516Y1650676D01*
X533552Y1650465D01*
X533581Y1650254D01*
X533596Y1650205D01*
X533604Y1650154D01*
X533672Y1649952D01*
X533733Y1649747D01*
X533755Y1649701D01*
X533771Y1649653D01*
X533867Y1649462D01*
X533959Y1649269D01*
X533987Y1649227D01*
X534011Y1649181D01*
X534134Y1649009D01*
X534254Y1648831D01*
X534294Y1648786D01*
X534319Y1648752D01*
X534386Y1648683D01*
X534501Y1648554D01*
X534501Y1397000D01*
X534509Y1396889D01*
X534508Y1396778D01*
X534529Y1396626D01*
X534541Y1396473D01*
X534566Y1396364D01*
X534581Y1396254D01*
X534625Y1396107D01*
X534660Y1395958D01*
X534701Y1395854D01*
X534733Y1395747D01*
X534798Y1395609D01*
X534855Y1395466D01*
X534911Y1395370D01*
X534959Y1395269D01*
X535044Y1395142D01*
X535122Y1395010D01*
X535192Y1394923D01*
X535254Y1394831D01*
X535394Y1394674D01*
X535454Y1394599D01*
X535486Y1394570D01*
X535526Y1394526D01*
X540526Y1389526D01*
X540610Y1389453D01*
X540688Y1389373D01*
X540810Y1389281D01*
X540927Y1389181D01*
X541021Y1389122D01*
X541110Y1389055D01*
X541245Y1388982D01*
X541375Y1388901D01*
X541477Y1388857D01*
X541575Y1388804D01*
X541720Y1388752D01*
X541861Y1388691D01*
X541968Y1388663D01*
X542073Y1388626D01*
X542224Y1388596D01*
X542372Y1388558D01*
X542483Y1388546D01*
X542592Y1388525D01*
X542802Y1388512D01*
X542898Y1388502D01*
X542940Y1388504D01*
X543000Y1388501D01*
X591000Y1388501D01*
X591111Y1388509D01*
G37*
%LPC*%
G36*
X1185949Y1673717D02*
X1185949Y1673717D01*
X1184008Y1674521D01*
X1182521Y1676008D01*
X1181717Y1677949D01*
X1181717Y1680051D01*
X1182521Y1681992D01*
X1184008Y1683479D01*
X1185949Y1684283D01*
X1188051Y1684283D01*
X1189992Y1683479D01*
X1191479Y1681992D01*
X1192283Y1680051D01*
X1192283Y1677949D01*
X1191479Y1676008D01*
X1189992Y1674521D01*
X1188051Y1673717D01*
X1185949Y1673717D01*
G37*
%LPD*%
%LPC*%
G36*
X1146949Y1672717D02*
X1146949Y1672717D01*
X1145008Y1673521D01*
X1143521Y1675008D01*
X1142717Y1676949D01*
X1142717Y1679051D01*
X1143521Y1680992D01*
X1145008Y1682479D01*
X1146949Y1683283D01*
X1149051Y1683283D01*
X1150992Y1682479D01*
X1152479Y1680992D01*
X1153283Y1679051D01*
X1153283Y1676949D01*
X1152479Y1675008D01*
X1150992Y1673521D01*
X1149051Y1672717D01*
X1146949Y1672717D01*
G37*
%LPD*%
%LPC*%
G36*
X481949Y1345717D02*
X481949Y1345717D01*
X480008Y1346521D01*
X478521Y1348008D01*
X477717Y1349949D01*
X477717Y1352051D01*
X478521Y1353992D01*
X480008Y1355479D01*
X481949Y1356283D01*
X484051Y1356283D01*
X485992Y1355479D01*
X487479Y1353992D01*
X488283Y1352051D01*
X488283Y1349949D01*
X487479Y1348008D01*
X485992Y1346521D01*
X484051Y1345717D01*
X481949Y1345717D01*
G37*
%LPD*%
%LPC*%
G36*
X1185949Y1213717D02*
X1185949Y1213717D01*
X1184008Y1214521D01*
X1182521Y1216008D01*
X1181717Y1217949D01*
X1181717Y1220051D01*
X1182521Y1221992D01*
X1184008Y1223479D01*
X1185949Y1224283D01*
X1188051Y1224283D01*
X1189992Y1223479D01*
X1191479Y1221992D01*
X1192283Y1220051D01*
X1192283Y1217949D01*
X1191479Y1216008D01*
X1189992Y1214521D01*
X1188051Y1213717D01*
X1185949Y1213717D01*
G37*
%LPD*%
%LPC*%
G36*
X1146949Y1212717D02*
X1146949Y1212717D01*
X1145008Y1213521D01*
X1143521Y1215008D01*
X1142717Y1216949D01*
X1142717Y1219051D01*
X1143521Y1220992D01*
X1145008Y1222479D01*
X1146949Y1223283D01*
X1149051Y1223283D01*
X1150992Y1222479D01*
X1152479Y1220992D01*
X1153283Y1219051D01*
X1153283Y1216949D01*
X1152479Y1215008D01*
X1150992Y1213521D01*
X1149051Y1212717D01*
X1146949Y1212717D01*
G37*
%LPD*%
%LPC*%
G36*
X1185949Y751717D02*
X1185949Y751717D01*
X1184008Y752521D01*
X1182521Y754008D01*
X1181717Y755949D01*
X1181717Y758051D01*
X1182521Y759992D01*
X1184008Y761479D01*
X1185949Y762283D01*
X1188051Y762283D01*
X1189992Y761479D01*
X1191479Y759992D01*
X1192283Y758051D01*
X1192283Y755949D01*
X1191479Y754008D01*
X1189992Y752521D01*
X1188051Y751717D01*
X1185949Y751717D01*
G37*
%LPD*%
%LPC*%
G36*
X1146949Y750717D02*
X1146949Y750717D01*
X1145008Y751521D01*
X1143521Y753008D01*
X1142717Y754949D01*
X1142717Y757051D01*
X1143521Y758992D01*
X1145008Y760479D01*
X1146949Y761283D01*
X1149051Y761283D01*
X1150992Y760479D01*
X1152479Y758992D01*
X1153283Y757051D01*
X1153283Y754949D01*
X1152479Y753008D01*
X1150992Y751521D01*
X1149051Y750717D01*
X1146949Y750717D01*
G37*
%LPD*%
%LPC*%
G36*
X1185949Y289717D02*
X1185949Y289717D01*
X1184008Y290521D01*
X1182521Y292008D01*
X1181717Y293949D01*
X1181717Y296051D01*
X1182521Y297992D01*
X1184008Y299479D01*
X1185949Y300283D01*
X1188051Y300283D01*
X1189992Y299479D01*
X1191479Y297992D01*
X1192283Y296051D01*
X1192283Y293949D01*
X1191479Y292008D01*
X1189992Y290521D01*
X1188051Y289717D01*
X1185949Y289717D01*
G37*
%LPD*%
%LPC*%
G36*
X1146949Y288717D02*
X1146949Y288717D01*
X1145008Y289521D01*
X1143521Y291008D01*
X1142717Y292949D01*
X1142717Y295051D01*
X1143521Y296992D01*
X1145008Y298479D01*
X1146949Y299283D01*
X1149051Y299283D01*
X1150992Y298479D01*
X1152479Y296992D01*
X1153283Y295051D01*
X1153283Y292949D01*
X1152479Y291008D01*
X1150992Y289521D01*
X1149051Y288717D01*
X1146949Y288717D01*
G37*
%LPD*%
D10*
X247300Y1777100D03*
X272700Y1777100D03*
X298100Y1777100D03*
X456800Y1419500D03*
X431400Y1419500D03*
X406000Y1419500D03*
D11*
X98321Y1832459D03*
X111021Y1857859D03*
X123721Y1832459D03*
X85621Y1857859D03*
X136421Y1857859D03*
X72921Y1832459D03*
X60221Y1857859D03*
X47521Y1832459D03*
D10*
X456300Y998100D03*
X456300Y972700D03*
X456300Y947300D03*
X456300Y921900D03*
X481700Y998100D03*
X481700Y972700D03*
X481700Y947300D03*
X481700Y921900D03*
X437300Y1147100D03*
X437300Y1121700D03*
X437300Y1096300D03*
X437300Y1070900D03*
X462700Y1147100D03*
X462700Y1121700D03*
X462700Y1096300D03*
X462700Y1070900D03*
D12*
X484000Y1859500D03*
X442000Y1859500D03*
X442000Y1804500D03*
X484000Y1804500D03*
X526000Y1859500D03*
X526000Y1804500D03*
X568000Y1859500D03*
X568000Y1804500D03*
X610000Y1859500D03*
X610000Y1804500D03*
D10*
X772800Y1717090D03*
X823600Y1700072D03*
X772800Y1683054D03*
X823600Y1666036D03*
X772800Y1649018D03*
X823600Y1632000D03*
X772800Y1614982D03*
X823600Y1597964D03*
X772800Y1580946D03*
X823600Y1563928D03*
X772800Y1546910D03*
X1087200Y1546910D03*
X1036400Y1563928D03*
X1087200Y1580946D03*
X1036400Y1597964D03*
X1087200Y1614982D03*
X1036400Y1632000D03*
X1087200Y1649018D03*
X1036400Y1666036D03*
X1087200Y1683054D03*
X1036400Y1700072D03*
X1087200Y1717090D03*
D12*
X1160000Y1782000D03*
X1160000Y1824000D03*
X1105000Y1824000D03*
X1105000Y1782000D03*
D10*
X772800Y1257090D03*
X823600Y1240072D03*
X772800Y1223054D03*
X823600Y1206036D03*
X772800Y1189018D03*
X823600Y1172000D03*
X772800Y1154982D03*
X823600Y1137964D03*
X772800Y1120946D03*
X823600Y1103928D03*
X772800Y1086910D03*
X1087200Y1086910D03*
X1036400Y1103928D03*
X1087200Y1120946D03*
X1036400Y1137964D03*
X1087200Y1154982D03*
X1036400Y1172000D03*
X1087200Y1189018D03*
X1036400Y1206036D03*
X1087200Y1223054D03*
X1036400Y1240072D03*
X1087200Y1257090D03*
D12*
X1160000Y1322000D03*
X1160000Y1364000D03*
X1105000Y1364000D03*
X1105000Y1322000D03*
D10*
X772800Y795090D03*
X823600Y778072D03*
X772800Y761054D03*
X823600Y744036D03*
X772800Y727018D03*
X823600Y710000D03*
X772800Y692982D03*
X823600Y675964D03*
X772800Y658946D03*
X823600Y641928D03*
X772800Y624910D03*
X1087200Y624910D03*
X1036400Y641928D03*
X1087200Y658946D03*
X1036400Y675964D03*
X1087200Y692982D03*
X1036400Y710000D03*
X1087200Y727018D03*
X1036400Y744036D03*
X1087200Y761054D03*
X1036400Y778072D03*
X1087200Y795090D03*
D12*
X1160000Y860000D03*
X1160000Y902000D03*
X1105000Y902000D03*
X1105000Y860000D03*
D10*
X772800Y333090D03*
X823600Y316072D03*
X772800Y299054D03*
X823600Y282036D03*
X772800Y265018D03*
X823600Y248000D03*
X772800Y230982D03*
X823600Y213964D03*
X772800Y196946D03*
X823600Y179928D03*
X772800Y162910D03*
X1087200Y162910D03*
X1036400Y179928D03*
X1087200Y196946D03*
X1036400Y213964D03*
X1087200Y230982D03*
X1036400Y248000D03*
X1087200Y265018D03*
X1036400Y282036D03*
X1087200Y299054D03*
X1036400Y316072D03*
X1087200Y333090D03*
D12*
X1160000Y398000D03*
X1160000Y440000D03*
X1105000Y440000D03*
X1105000Y398000D03*
D10*
X431700Y642900D03*
X431700Y668300D03*
X431700Y693700D03*
X431700Y719100D03*
X406300Y642900D03*
X406300Y668300D03*
X406300Y693700D03*
X406300Y719100D03*
D13*
X132000Y1784000D03*
X26000Y1787000D03*
X312000Y1184000D03*
D14*
X312000Y1119591D01*
X299000Y1106591D01*
D13*
X246500Y1245500D03*
D15*
X250500Y1245500D01*
X312000Y1184000D01*
D14*
X299000Y1084000D02*
X302000Y1081000D01*
X302000Y1081782D01*
D13*
X302000Y1081782D03*
D14*
X299000Y1084000D02*
X299000Y1106591D01*
D13*
X274000Y938000D03*
X294782Y1033500D03*
D14*
X274000Y1012718D01*
X274000Y938000D01*
D13*
X298000Y1176000D03*
D14*
X298000Y1118000D01*
X294000Y1114000D01*
D13*
X249000Y1206000D03*
D15*
X268000Y1206000D01*
X298000Y1176000D01*
D14*
X294544Y1073000D02*
X294000Y1073000D01*
X294544Y1073000D02*
X294782Y1073238D01*
D13*
X294782Y1073238D03*
D14*
X294000Y1073000D02*
X294000Y1114000D01*
D13*
X285500Y1133500D03*
X254000Y1154000D03*
D15*
X274500Y1133500D01*
X285500Y1133500D01*
D14*
X285500Y1069500D02*
X301000Y1054000D01*
X300782Y1054000D01*
D13*
X300782Y1054000D03*
D14*
X285500Y1069500D02*
X285500Y1133500D01*
D13*
X32000Y1696000D03*
X160000Y1694300D03*
X204000Y1706000D03*
X215000Y1760000D03*
X200000Y1697000D03*
X377000Y1613000D03*
X377000Y1592000D03*
X695000Y1468000D03*
X650000Y1574000D03*
X696000Y1576000D03*
X794000Y1635000D03*
X802000Y1613000D03*
X742000Y1627000D03*
X750000Y1642000D03*
X1066000Y1631000D03*
X1067000Y1667000D03*
X1113000Y1651000D03*
X1112000Y1632000D03*
X1148000Y1678000D03*
X1187000Y1679000D03*
X695000Y1008000D03*
X650000Y1114000D03*
X696000Y1116000D03*
X794000Y1175000D03*
X802000Y1153000D03*
X742000Y1167000D03*
X750000Y1182000D03*
X1066000Y1171000D03*
X1067000Y1207000D03*
X1113000Y1191000D03*
X1112000Y1172000D03*
X1148000Y1218000D03*
X1187000Y1219000D03*
X695000Y546000D03*
X650000Y652000D03*
X696000Y654000D03*
X794000Y713000D03*
X802000Y691000D03*
X742000Y705000D03*
X750000Y720000D03*
X1066000Y709000D03*
X1067000Y745000D03*
X1113000Y729000D03*
X1112000Y710000D03*
X1148000Y756000D03*
X1187000Y757000D03*
X695000Y84000D03*
X650000Y190000D03*
X696000Y192000D03*
X794000Y251000D03*
X802000Y229000D03*
X742000Y243000D03*
X750000Y258000D03*
X1066000Y247000D03*
X1067000Y283000D03*
X1113000Y267000D03*
X1112000Y248000D03*
X1148000Y294000D03*
X1187000Y295000D03*
X452000Y1528000D03*
X363000Y1529000D03*
X476000Y1559000D03*
X516000Y1554000D03*
X431000Y1487000D03*
X368000Y1650000D03*
X483000Y1351000D03*
X370000Y1052000D03*
X394000Y1019000D03*
X391000Y939000D03*
X404000Y878000D03*
X380000Y1010000D03*
X366000Y1012000D03*
X376000Y944000D03*
X362000Y944000D03*
X317000Y943000D03*
X298000Y944000D03*
X331000Y945000D03*
X235000Y1065100D03*
X310000Y1100000D03*
X333000Y1152000D03*
X229000Y1643000D03*
X283000Y842000D03*
X283000Y893000D03*
X252000Y841000D03*
X331000Y1010000D03*
X314704Y1004204D03*
X282000Y955000D03*
X299000Y955000D03*
X209000Y1849000D03*
X223000Y1843000D03*
X428000Y1612000D03*
X428000Y1595000D03*
X834000Y1527000D03*
X841000Y1545000D03*
X820000Y1540000D03*
X803000Y1528000D03*
X1033000Y1719000D03*
X1063000Y1726000D03*
X1064000Y1746000D03*
X1032000Y1745000D03*
X1091000Y1507000D03*
X834000Y1067000D03*
X841000Y1085000D03*
X820000Y1080000D03*
X803000Y1068000D03*
X1033000Y1259000D03*
X1063000Y1266000D03*
X1064000Y1286000D03*
X1032000Y1285000D03*
X1091000Y1047000D03*
X834000Y605000D03*
X841000Y623000D03*
X820000Y618000D03*
X803000Y606000D03*
X1033000Y797000D03*
X1063000Y804000D03*
X1064000Y824000D03*
X1032000Y823000D03*
X1091000Y585000D03*
X834000Y143000D03*
X841000Y161000D03*
X820000Y156000D03*
X803000Y144000D03*
X1033000Y335000D03*
X1063000Y342000D03*
X1064000Y362000D03*
X1032000Y361000D03*
X1091000Y123000D03*
X474000Y1632000D03*
X315000Y1784000D03*
X316000Y1771000D03*
X315000Y1758000D03*
X298000Y1756000D03*
X205000Y1676000D03*
X196000Y1671000D03*
X288000Y944000D03*
X322000Y910000D03*
X302000Y972000D03*
X237000Y1050000D03*
X329000Y1127000D03*
X316000Y1114000D03*
X337000Y1136000D03*
X330000Y1045000D03*
X192000Y1251000D03*
X187000Y1165000D03*
X188000Y1131000D03*
X190000Y1213000D03*
X305000Y1018000D03*
X290000Y971500D03*
X561000Y1633000D03*
X560000Y1412000D03*
X561000Y1173000D03*
X560000Y952000D03*
X561000Y711000D03*
X560000Y490000D03*
X561000Y249000D03*
X560000Y28000D03*
X425000Y1399000D03*
X438000Y1400000D03*
X574000Y1429000D03*
X549000Y1428000D03*
X763000Y65000D03*
D15*
X646782Y181218D01*
X646362Y181218D01*
X594000Y233580D01*
X594000Y809600D02*
X481700Y921900D01*
X594000Y809600D02*
X594000Y233580D01*
D13*
X693000Y1450000D03*
X693000Y990000D03*
X693000Y528000D03*
X693000Y66000D03*
X516000Y1496000D03*
X476000Y1499000D03*
X383000Y1487000D03*
X383000Y1559000D03*
X368000Y1554000D03*
D15*
X456800Y1419500D02*
X456800Y1411200D01*
X468000Y1400000D01*
D13*
X468000Y1400000D03*
X371000Y1089000D03*
X380000Y1326000D03*
X762000Y529000D03*
D15*
X727000Y564000D01*
X619000Y564000D01*
X619000Y908000D01*
X589000Y938000D01*
X497000Y938000D01*
X487700Y947300D02*
X481700Y947300D01*
X487700Y947300D02*
X497000Y938000D01*
D13*
X762000Y989000D03*
D15*
X745700Y972700D01*
X481700Y972700D01*
D13*
X761000Y1450000D03*
D15*
X684000Y1373000D01*
X655500Y1373000D01*
X611000Y1328500D01*
X611000Y1029000D01*
X580100Y998100D01*
X481700Y998100D01*
D13*
X1055000Y1538000D03*
X1188000Y1840000D03*
X1195000Y1821000D03*
X1195000Y1797000D03*
X1195000Y1776000D03*
X1036000Y1528000D03*
X1098000Y1527000D03*
X1031000Y1545000D03*
D15*
X1075782Y1671636D02*
X1087200Y1683054D01*
X1075782Y1671636D02*
X1075782Y1663362D01*
X857012Y1489500D02*
X696875Y1489500D01*
X1057040Y1644620D02*
X1075782Y1663362D01*
X1057040Y1644620D02*
X1012132Y1644620D01*
X857012Y1489500D01*
X625000Y1417625D02*
X625000Y1395979D01*
X536500Y1307479D01*
X536500Y1107832D02*
X429510Y1000842D01*
X625000Y1417625D02*
X696875Y1489500D01*
X536500Y1307479D02*
X536500Y1107832D01*
X429510Y1000842D02*
X429510Y715990D01*
X432000Y713500D01*
X432000Y718800D01*
X431700Y719100D01*
X612000Y1420146D02*
X772800Y1580946D01*
X612000Y1420146D02*
X612000Y1398500D01*
X523000Y1309500D01*
X523000Y1110353D01*
X406300Y993653D01*
X412782Y881638D02*
X412782Y874362D01*
X406300Y888120D02*
X406300Y993653D01*
X406300Y867880D02*
X406300Y719100D01*
X412782Y881638D02*
X406300Y888120D01*
X412782Y874362D02*
X406300Y867880D01*
D13*
X1055000Y1078000D03*
X1188000Y1380000D03*
X1195000Y1361000D03*
X1195000Y1337000D03*
X1195000Y1316000D03*
X1036000Y1068000D03*
X1098000Y1067000D03*
X1031000Y1085000D03*
X751000Y1375000D03*
X641000Y1161000D03*
D16*
X753000Y1373000D02*
X751000Y1375000D01*
X753000Y1373000D02*
X753000Y1273000D01*
X641000Y1161000D01*
D13*
X789000Y1324000D03*
D16*
X763000Y1045000D02*
X852500Y1045000D01*
D13*
X763000Y1045000D03*
D16*
X852500Y1045000D02*
X907000Y1099500D01*
X907000Y1225000D01*
X808000Y1324000D01*
X789000Y1324000D01*
D15*
X1019554Y1223054D02*
X1087200Y1223054D01*
X926000Y1129500D02*
X926000Y1098858D01*
X758142Y931000D01*
X926000Y1129500D02*
X1019554Y1223054D01*
X642500Y921000D02*
X639500Y921000D01*
D13*
X639500Y921000D03*
X562000Y811500D03*
D15*
X461000Y710500D01*
X461000Y709979D01*
X444721Y693700D01*
X431700Y693700D01*
X652500Y931000D02*
X758142Y931000D01*
X652500Y931000D02*
X642500Y921000D01*
X653354Y1001500D02*
X772800Y1120946D01*
X653354Y1001500D02*
X629500Y1001500D01*
X628000Y1000000D01*
D13*
X628000Y1000000D03*
X544500Y823000D03*
D15*
X452500Y731000D01*
D13*
X452500Y731000D03*
X1055000Y616000D03*
X1188000Y918000D03*
X1195000Y899000D03*
X1195000Y875000D03*
X1195000Y854000D03*
X1036000Y606000D03*
X1098000Y605000D03*
X1031000Y623000D03*
X751000Y913000D03*
X641000Y699000D03*
D16*
X753000Y911000D02*
X751000Y913000D01*
X753000Y911000D02*
X753000Y811000D01*
X641000Y699000D01*
X904500Y765500D02*
X904500Y629500D01*
X904500Y765500D02*
X808000Y862000D01*
X789000Y862000D01*
D13*
X789000Y862000D03*
D16*
X904500Y629500D02*
X858000Y583000D01*
X763000Y583000D01*
D13*
X763000Y583000D03*
D15*
X986554Y761054D02*
X1087200Y761054D01*
X971000Y745500D02*
X971000Y575500D01*
X903500Y508000D01*
X631000Y508000D01*
X631000Y511000D01*
D13*
X631000Y511000D03*
D15*
X971000Y745500D02*
X986554Y761054D01*
D13*
X528000Y659500D03*
D15*
X440500Y659500D01*
X431700Y668300D01*
X726054Y658946D02*
X772800Y658946D01*
X701500Y683500D02*
X634500Y683500D01*
D13*
X634500Y683500D03*
X554500Y628500D03*
D15*
X537500Y611500D01*
X491500Y611500D01*
D13*
X491500Y611500D03*
D15*
X701500Y683500D02*
X726054Y658946D01*
D13*
X1055000Y154000D03*
X1188000Y456000D03*
X1195000Y437000D03*
X1195000Y413000D03*
X1195000Y392000D03*
X1036000Y144000D03*
X1098000Y143000D03*
X1031000Y161000D03*
X751000Y451000D03*
X641000Y237000D03*
D16*
X753000Y449000D02*
X751000Y451000D01*
X753000Y449000D02*
X753000Y349000D01*
X641000Y237000D01*
X904500Y303500D02*
X904500Y167500D01*
X904500Y303500D02*
X808000Y400000D01*
X789000Y400000D01*
D13*
X789000Y400000D03*
D16*
X904500Y167500D02*
X858000Y121000D01*
X764000Y121000D01*
X763000Y122000D01*
D13*
X763000Y122000D03*
D15*
X989054Y299054D02*
X1087200Y299054D01*
X989054Y299054D02*
X988500Y298500D01*
X893840Y353672D02*
X893840Y376660D01*
X949012Y298500D02*
X988500Y298500D01*
X949012Y298500D02*
X893840Y353672D01*
X893840Y376660D02*
X803000Y467500D01*
D13*
X614500Y467500D03*
X529500Y490500D03*
D15*
X431700Y588300D01*
X431700Y642900D01*
X614500Y467500D02*
X803000Y467500D01*
X745246Y224500D02*
X772800Y196946D01*
X745246Y224500D02*
X633000Y224500D01*
X614000Y243500D01*
X614000Y439000D02*
X614500Y439500D01*
D13*
X614500Y439500D03*
X524500Y451500D03*
D15*
X406300Y569700D01*
X406300Y642900D01*
X614000Y439000D02*
X614000Y243500D01*
D13*
X751000Y1835000D03*
X641000Y1621000D03*
D16*
X753000Y1833000D02*
X751000Y1835000D01*
X753000Y1833000D02*
X753000Y1733000D01*
X641000Y1621000D01*
X904500Y1687500D02*
X904500Y1551500D01*
X904500Y1687500D02*
X875000Y1717000D01*
X808000Y1784000D01*
X789000Y1784000D01*
D13*
X789000Y1784000D03*
D16*
X904500Y1551500D02*
X858000Y1505000D01*
X763000Y1505000D01*
D13*
X763000Y1505000D03*
M02*
